<svg id="Layer_1" data-name="Layer 1" xmlns="http://www.w3.org/2000/svg" xmlns:xlink="http://www.w3.org/1999/xlink" viewBox="0 0 896.89 209.48">
  <defs>
    <style>
      .cls-1 {
        fill: none;
      }

      .cls-2 {
        fill: #1e315b;
      }

      .cls-3 {
        clip-path: url(#clip-path);
      }

      .cls-4 {
        fill: url(#linear-gradient);
      }

      .cls-5 {
        fill: #1b345e;
      }

      .cls-5, .cls-6 {
        fill-rule: evenodd;
      }

      .cls-6 {
        fill: #ee3938;
      }
    </style>
    <clipPath id="clip-path" transform="translate(-51.11 -362.71)">
      <rect class="cls-1" x="330.54" y="491.16" width="617.46" height="8.71"/>
    </clipPath>
    <linearGradient id="linear-gradient" x1="-246.71" y1="1548.22" x2="-245.82" y2="1548.22" gradientTransform="translate(171238.34 -1072701.8) scale(692.95)" gradientUnits="userSpaceOnUse">
      <stop offset="0" stop-color="#f5ed6e"/>
      <stop offset="0.1" stop-color="#f5ed6e"/>
      <stop offset="0.1" stop-color="#f4ed6e"/>
      <stop offset="0.14" stop-color="#ccdf67"/>
      <stop offset="0.18" stop-color="#abd362"/>
      <stop offset="0.22" stop-color="#91ca5e"/>
      <stop offset="0.26" stop-color="#7fc45b"/>
      <stop offset="0.31" stop-color="#74c05a"/>
      <stop offset="0.36" stop-color="#70bf59"/>
      <stop offset="0.39" stop-color="#89a352"/>
      <stop offset="0.45" stop-color="#b47446"/>
      <stop offset="0.51" stop-color="#d3523d"/>
      <stop offset="0.55" stop-color="#e63d38"/>
      <stop offset="0.58" stop-color="#ed3536"/>
      <stop offset="0.63" stop-color="#d63742"/>
      <stop offset="0.74" stop-color="#9a3b5f"/>
      <stop offset="0.89" stop-color="#3b438f"/>
      <stop offset="0.92" stop-color="#2a4497"/>
      <stop offset="1" stop-color="#2a4497"/>
    </linearGradient>
  </defs>
  <title>Chris-Digital</title>
  <path class="cls-2" d="M393.33,451.17l-.51,12.88C384.43,468,377,470,370.19,470c-10.61,0-19.22-3.63-25.92-10.79s-10-16.45-10-27.77q0-18.28,10.89-29.78c7.27-7.66,16.54-11.5,27.9-11.5a64.27,64.27,0,0,1,18.58,3.06v13.37c-7.16-4.71-13.74-7.05-20-7.05-8,0-14.38,3-19.07,9.06q-6.49,8.43-6.49,21.61c0,8.63,2,15.69,6.07,21.25,4.5,6.09,10.61,9.13,18.45,9.13,7.1,0,14.71-3.12,22.74-9.37" transform="translate(-51.11 -362.71)"/>
  <path class="cls-2" d="M441.54,468.73H427.61a58,58,0,0,0,1.94-14.66V436.45c0-4.26-.31-7.15-.89-8.73-1.05-2.61-3.32-4-6.69-4-2.91,0-6.52,1.7-10.67,5.12v20.53c0,8.68.67,15.09,2,19.31h-14c1.3-4.06,1.91-10.11,1.91-18.12v-41a56.75,56.75,0,0,0-1.91-14.88l14-3.09a75,75,0,0,0-2,15.94v18.63l7.94-10.12a18.08,18.08,0,0,1,7.89-2.41c5.46,0,9.11,2.68,10.89,8.19q1.56,4.53,1.57,15.37c0,1.51,0,3.79-.08,6.74-.08,3.12-.09,5.37-.09,6.85,0,7.29.69,13.24,2.12,17.92" transform="translate(-51.11 -362.71)"/>
  <path class="cls-2" d="M479.25,414.69l-2.09,11.69a11.91,11.91,0,0,0-7-2.61c-2.33,0-5.75,1.16-10.14,3.59v25.27a63.58,63.58,0,0,0,2,16.1H448a56.2,56.2,0,0,0,2-13.46V433.93a80.2,80.2,0,0,0-2-19.12h12.1v9.71l7.82-9.29a17.77,17.77,0,0,1,6.73-1.57,11.14,11.14,0,0,1,4.64,1" transform="translate(-51.11 -362.71)"/>
  <path class="cls-2" d="M531.45,414.8q-5.06,7.79-10.47,24-7.32,22.19-9.15,26.38c-3.86,9.38-8.43,16.11-13.59,20.3H485.68a56.33,56.33,0,0,0,10-11.34,100.7,100.7,0,0,0,7-13.83l-8.94-23.45c-3.75-9.32-7.69-16.65-11.69-22.07H496c.72,4.08,2.63,10.16,5.65,18.32,2.21,5.86,4.42,11.77,6.64,17.61,1.89-5.84,3.76-11.75,5.65-17.65,2.22-7.42,3.25-13.49,3.15-18.28Z" transform="translate(-51.11 -362.71)"/>
  <path class="cls-2" d="M559.32,454.37a14.09,14.09,0,0,1-5.41,11.69,18.55,18.55,0,0,1-12,3.89c-2.3,0-6.16-.67-11.55-1.93V454.57c4.71,5.13,8.63,7.64,11.85,7.64a6.77,6.77,0,0,0,4.68-1.85,6.14,6.14,0,0,0,2-4.75c0-2.22-1.46-4.71-4.43-7.46-5.54-4.95-8.31-7.5-8.42-7.67a16.42,16.42,0,0,1-4.54-11.11,14.23,14.23,0,0,1,5.44-11.54,17.45,17.45,0,0,1,11.71-4.18,24.1,24.1,0,0,1,9.42,2.12v10.49c-3.53-3.28-6.61-4.9-9.22-4.9a7.37,7.37,0,0,0-4.71,1.52,5.63,5.63,0,0,0-2.26,4.57c0,2.42,1.47,5,4.48,7.81l8.37,7.69a16.87,16.87,0,0,1,4.6,11.42" transform="translate(-51.11 -362.71)"/>
  <path class="cls-2" d="M595.41,433.94a14.11,14.11,0,0,0-2.41-8.63,8.47,8.47,0,0,0-7.29-3.95A8.37,8.37,0,0,0,578,426a18.42,18.42,0,0,0-2.25,9.55h19.56Zm8.41,3.77-.09,5.53H575.52c1.49,12.08,6.69,18.09,15.65,18.09a27.56,27.56,0,0,0,11.47-2.88l-3.82,9.89a37.61,37.61,0,0,1-9.58,1.61c-7.58,0-13.6-2.65-17.88-7.9-4.16-5-6.22-11.6-6.22-19.83q0-11.46,5-19.45,5.73-9.12,15.92-9.11a15.34,15.34,0,0,1,13.77,7.54c2.84,4.35,4.13,9.84,4,16.51" transform="translate(-51.11 -362.71)"/>
  <path class="cls-2" d="M625.85,468.73H611.74a68.78,68.78,0,0,0,2-16.42V412.25a81.53,81.53,0,0,0-2-17.54l14.11-3.09a112,112,0,0,0-2.05,20.05v41.88a55.5,55.5,0,0,0,2.05,15.18" transform="translate(-51.11 -362.71)"/>
  <path class="cls-2" d="M661,454.37c0,4.95-1.79,8.87-5.41,11.69a18.39,18.39,0,0,1-12,3.89c-2.3,0-6.15-.67-11.54-1.93V454.57c4.67,5.13,8.62,7.64,11.84,7.64a6.73,6.73,0,0,0,4.64-1.85,6.1,6.1,0,0,0,2.06-4.75c0-2.22-1.53-4.71-4.53-7.46-5.48-4.95-8.23-7.5-8.36-7.67a16.64,16.64,0,0,1-4.56-11.11,14.34,14.34,0,0,1,5.44-11.54,17.5,17.5,0,0,1,11.71-4.18,23.87,23.87,0,0,1,9.42,2.12v10.49c-3.51-3.28-6.58-4.9-9.2-4.9a7.3,7.3,0,0,0-4.71,1.52,5.56,5.56,0,0,0-2.28,4.57q0,3.63,4.52,7.81l8.39,7.69A17,17,0,0,1,661,454.37" transform="translate(-51.11 -362.71)"/>
  <path class="cls-2" d="M742.58,430.48c0-9.58-2.85-17.16-8.43-22.68q-8.16-8-21.73-8.07v60.55c20.09-1.72,30.16-11.61,30.16-29.8m11.78.12c0,11.53-3.52,20.77-10.45,27.69-6.75,6.71-15.55,10.11-26.38,10.3l-18.65.14q2.54-9,2.54-23.82V417a125.83,125.83,0,0,0-2.54-25.69h7.43q48,0,48.05,39.33" transform="translate(-51.11 -362.71)"/>
  <path class="cls-2" d="M777.21,400.93a9.8,9.8,0,0,1-1.64,5.65,5.59,5.59,0,0,1-4.76,2.72,6,6,0,0,1-5-2.6,9.26,9.26,0,0,1-1.73-5.77,9.54,9.54,0,0,1,1.73-5.72,5.81,5.81,0,0,1,4.93-2.68,5.66,5.66,0,0,1,4.74,2.74,9.36,9.36,0,0,1,1.76,5.66m.54,67.8h-14a56.63,56.63,0,0,0,2-16.06V432.51c0-4.81-.1-7.83-.21-9.09a44.28,44.28,0,0,0-1.77-8.61h14c-.94,4.09-1.54,7-1.76,8.53-.15,1.41-.24,4.27-.24,8.63v20.7a56.19,56.19,0,0,0,2,16.06" transform="translate(-51.11 -362.71)"/>
  <path class="cls-2" d="M815.51,471.41a4.36,4.36,0,0,0-2.75-4.46,16.26,16.26,0,0,0-5.38-.64H799.1c-2,2-3,3.92-3,5.84,0,3.55,3.06,5.29,9.27,5.29,6.77,0,10.16-2,10.16-6m-3.23-37.81a15.09,15.09,0,0,0-2.25-8.23c-1.67-2.69-3.82-4-6.62-4a6.86,6.86,0,0,0-5.7,2.71,10.15,10.15,0,0,0-2.17,6.59,16.38,16.38,0,0,0,2.25,8.56c1.76,2.75,4,4.14,6.92,4.14a6.55,6.55,0,0,0,5.67-3,11.39,11.39,0,0,0,1.9-6.78m16.86-17.77-1,8.61-8.35-.06a23.8,23.8,0,0,1,1.87,8.46,18.48,18.48,0,0,1-5,12.75,15.68,15.68,0,0,1-11.85,5.49,14.16,14.16,0,0,1-4.72-.58c-2,1.4-3,2.74-3,4,0,2.18,3,3.27,9,3.27,1.24,0,3.52-.08,6.88-.31,8.69,0,13,3.82,13,11.49,0,6.13-2.62,10.72-7.85,13.61-4.07,2.33-9.27,3.45-15.49,3.45q-16.74,0-16.75-8.39c0-1.61,1.32-3.77,4-6.44,1.85-1.72,3.71-3.41,5.59-5.12a32.81,32.81,0,0,1-6.2-1.26,5.14,5.14,0,0,1-3.34-5.1c0-1.68,1.39-3.7,4.31-6.05,2-1.47,4-3,6.06-4.46-6.61-3.6-10-9-10-16.34a19.29,19.29,0,0,1,5.25-13.6,16.64,16.64,0,0,1,12.66-5.6c2.61,0,5.87,1,9.71,3.22h4.73a67.76,67.76,0,0,0,10.6-1" transform="translate(-51.11 -362.71)"/>
  <path class="cls-2" d="M845.64,400.93a9.92,9.92,0,0,1-1.7,5.65,5.54,5.54,0,0,1-4.76,2.72,6,6,0,0,1-5-2.6,9.59,9.59,0,0,1-1.75-5.77,9.9,9.9,0,0,1,1.75-5.72,5.69,5.69,0,0,1,9.69.06,9.72,9.72,0,0,1,1.78,5.66m.49,67.8h-14a56.57,56.57,0,0,0,2-16.06V432.51c0-4.81-.11-7.83-.24-9.09a44.94,44.94,0,0,0-1.76-8.61h14a83.59,83.59,0,0,0-1.75,8.53c-.16,1.41-.26,4.27-.26,8.63v20.7a56.88,56.88,0,0,0,2,16.06" transform="translate(-51.11 -362.71)"/>
  <path class="cls-2" d="M883.38,457.77l-3.82,10.49a33.16,33.16,0,0,1-9.74,1.69c-5.82,0-9.47-2.43-10.89-7.2-.67-2-.94-7.06-.94-15V422.54h-7.13l17.19-19V414.8H880v7.74h-11.9v25c0,4.14.25,7,.76,8.52a5.88,5.88,0,0,0,6.11,4.26,15.91,15.91,0,0,0,8.46-2.51" transform="translate(-51.11 -362.71)"/>
  <path class="cls-2" d="M910,460.8v-15H896.69a31.42,31.42,0,0,0-1.56,8.3c0,4.87,3,7.23,8.92,7.23a38.56,38.56,0,0,0,6-.53m12,7.93H910v-5.18l-8,6.4h-2.36a16,16,0,0,1-10.25-2.87c-3-2.26-4.5-5.51-4.5-9.81a13.57,13.57,0,0,1,4.61-10.15,36.18,36.18,0,0,1,10.32-6.29c3.37-1.37,6.78-2.72,10.18-4.08v-2.94c0-7.75-3.16-11.66-9.43-11.66-2.77,0-6.4,1.47-11,4.36l2.87-10.28a30.53,30.53,0,0,1,11.19-2.58c6.77,0,11.45,2.45,14,7.48,1.91,3.71,2.87,9.57,2.87,17.53,0,1.65,0,4.2-.16,7.52s-.16,5.88-.16,7.49c0,6.52.58,11.54,1.82,15.05" transform="translate(-51.11 -362.71)"/>
  <path class="cls-2" d="M944.28,468.73H930.21a68.2,68.2,0,0,0,2-16.42V412.25a80.74,80.74,0,0,0-2-17.54l14.07-3.09a122,122,0,0,0-1.94,20.05v41.88a60,60,0,0,0,1.94,15.18" transform="translate(-51.11 -362.71)"/>
  <g class="cls-3">
    <rect class="cls-4" x="279.42" y="128.45" width="617.46" height="8.71"/>
  </g>
  <path class="cls-2" d="M355.23,556.05H339.86l-2.22,6.84h-7.16l11.86-35.64h10.15l12,35.64h-7Zm-1.56-5-6.16-18.56-6.06,18.56Z" transform="translate(-51.11 -362.71)"/>
  <path class="cls-2" d="M381.13,562.89V527.25h17.52q7.47,0,10.46,3.27t3,11.43q0,13.34-2.4,17.14t-10.83,3.8Zm6.76-5.69h9.64c3.23,0,5.33-.75,6.28-2.24s1.42-4.77,1.42-9.85q0-7.89-1.28-10c-.85-1.42-2.86-2.14-6-2.14H387.89Z" transform="translate(-51.11 -362.71)"/>
  <path class="cls-2" d="M453.37,527.25h7.15L449,562.89H438.65l-11.39-35.64h7L441,547.43q.94,2.9,2.79,9.71H444l.68-2.42q1.25-4.54,2.14-7.26Z" transform="translate(-51.11 -362.71)"/>
  <polygon class="cls-2" points="431.94 170.23 431.94 179.42 448.65 179.42 448.65 184.41 431.94 184.41 431.94 194.49 449.72 194.49 449.72 200.18 425.18 200.18 425.18 164.54 449.56 164.54 449.56 170.23 431.94 170.23"/>
  <path class="cls-2" d="M519.4,562.89V527.25H537q6.56,0,9,2.27t2.48,8.23q0,5.4-1.24,7.38c-.83,1.33-2.52,2.24-5.08,2.75v.23q5.93.38,5.93,6.92v7.86h-6.76v-6.5c0-3.68-1.81-5.51-5.43-5.51h-9.74v12Zm6.76-17.7h9.71c2.32,0,3.85-.42,4.61-1.24s1.13-2.49,1.13-5-.32-4.18-1-4.92-2.09-1.11-4.3-1.11H526.16Z" transform="translate(-51.11 -362.71)"/>
  <polygon class="cls-2" points="530.47 170.6 530.47 200.18 523.71 200.18 523.71 170.6 513.42 170.6 513.42 164.54 541.12 164.54 541.12 170.6 530.47 170.6"/>
  <rect class="cls-2" x="558.07" y="164.54" width="6.76" height="35.63"/>
  <path class="cls-2" d="M662.23,537.64h-6.6a6.12,6.12,0,0,1,0-.73c-.16-2-.61-3.26-1.34-3.77s-2.45-.77-5.16-.77q-4.82,0-6.28.89c-1,.59-1.48,1.83-1.48,3.73,0,2.25.4,3.59,1.2,4s3.45.8,7.94,1q8,.45,10.3,2.27t2.33,7.6q0,7.09-2.74,9.18t-12.08,2.07q-8.41,0-11.16-2t-2.76-8.25l0-1.3h6.57l0,.76c0,2.48.44,4,1.31,4.56s3.24.84,7.12.84q4.54,0,5.8-1c.83-.64,1.25-2.13,1.25-4.46,0-1.72-.32-2.87-.95-3.43s-2-.91-4.11-1l-3.74-.24q-8.46-.5-10.8-2.35c-1.57-1.23-2.35-3.89-2.35-8s.94-6.93,2.83-8.32,5.66-2.07,11.32-2.07q8,0,10.83,1.91t2.79,7.44Z" transform="translate(-51.11 -362.71)"/>
  <rect class="cls-2" x="630.21" y="164.54" width="6.76" height="35.63"/>
  <path class="cls-2" d="M741,527.25v35.64H729.54l-10.18-19.56c-.51-1-1.3-2.68-2.38-5.11l-1.15-2.56-1.12-2.56h-.26l.11,2.35.07,2.32.06,4.68v20.44h-6.77V527.25h11.46l9.27,18.07q1.23,2.4,2.85,5.82l1.36,2.9,1.35,2.92h.24l-.08-2.3-.08-2.29,0-4.6V527.25Z" transform="translate(-51.11 -362.71)"/>
  <path class="cls-2" d="M774.81,543.93H790.5l.11,7.08q0,7.72-2.92,10t-13,2.23q-9.24,0-12.25-3t-3-12.14q0-11.69,1.2-14.77a8.54,8.54,0,0,1,4.52-5.06c2-.88,5.45-1.31,10.28-1.31q9.51,0,12.27,2t2.77,9h-6.84q-.18-3.49-1.53-4.35t-6.74-.84c-3.92,0-6.41.48-7.46,1.46s-1.58,3.26-1.58,6.86l0,3.58,0,4.57q0,5.29,1.56,6.75t7.26,1.44c3.69,0,6-.4,7-1.22s1.5-2.75,1.5-5.8l0-1.46h-9Z" transform="translate(-51.11 -362.71)"/>
  <polygon class="cls-2" points="791.42 164.54 791.42 194.12 808.13 194.12 808.13 200.18 784.66 200.18 784.66 164.54 791.42 164.54"/>
  <polygon class="cls-2" points="831.84 164.54 831.84 194.12 848.54 194.12 848.54 200.18 825.08 200.18 825.08 164.54 831.84 164.54"/>
  <path class="cls-2" d="M938.61,550.17h6.79v1.23q0,7.44-2.72,9.62t-12,2.18q-10.56,0-13-3.45t-2.43-18.43q0-8.82,3.29-11.6t13.76-2.78q7.62,0,10.18,2.28c1.71,1.53,2.56,4.55,2.56,9.08l0,.8H938.3v-.91c0-2.33-.44-3.82-1.32-4.48s-2.88-1-6-1q-6.29,0-7.55,1.54c-.85,1-1.27,4.07-1.27,9.13q0,10.23,1.13,12.12t7.35,1.87c3.36,0,5.54-.34,6.54-1s1.5-2.23,1.5-4.59Z" transform="translate(-51.11 -362.71)"/>
  <path class="cls-5" d="M93.71,443.43c0-39.4,39.76-72.24,92.32-79.27a157.53,157.53,0,0,0-21.31-1.45c-62.73,0-113.61,36.13-113.61,80.72S102,524.2,164.72,524.2A166.1,166.1,0,0,0,186,522.76c-52.56-7.1-92.32-39.93-92.32-79.33" transform="translate(-51.11 -362.71)"/>
  <path class="cls-6" d="M211.44,491.47c0,39.38-39.73,72.19-92.34,79.31a161.14,161.14,0,0,0,21.31,1.41c62.78,0,113.68-36.17,113.68-80.72s-50.9-80.79-113.68-80.79a157.8,157.8,0,0,0-21.31,1.42c52.61,7.08,92.34,39.9,92.34,79.37" transform="translate(-51.11 -362.71)"/>
</svg>
