<svg id="Layer_1" data-name="Layer 1" xmlns="http://www.w3.org/2000/svg" xmlns:xlink="http://www.w3.org/1999/xlink" viewBox="0 0 862.57 201.46">
  <defs>
    <style>
      .cls-1 {
        fill: none;
      }

      .cls-2 {
        fill: #1e315b;
      }

      .cls-3 {
        clip-path: url(#clip-path);
      }

      .cls-4 {
        fill: url(#linear-gradient);
      }

      .cls-5 {
        fill: #1b345e;
      }

      .cls-5, .cls-6 {
        fill-rule: evenodd;
      }

      .cls-6 {
        fill: #ee3938;
      }
    </style>
    <clipPath id="clip-path" transform="translate(-67.89 -393.46)">
      <rect class="cls-1" x="336.62" y="507.55" width="593.84" height="8.38"/>
    </clipPath>
    <linearGradient id="linear-gradient" x1="-246.7" y1="1547.67" x2="-245.85" y2="1547.67" gradientTransform="translate(171221.56 -1072334.54) scale(692.95)" gradientUnits="userSpaceOnUse">
      <stop offset="0" stop-color="#f5ed6e"/>
      <stop offset="0.1" stop-color="#f5ed6e"/>
      <stop offset="0.1" stop-color="#f4ed6e"/>
      <stop offset="0.14" stop-color="#ccdf67"/>
      <stop offset="0.18" stop-color="#abd362"/>
      <stop offset="0.22" stop-color="#91ca5e"/>
      <stop offset="0.26" stop-color="#7fc45b"/>
      <stop offset="0.31" stop-color="#74c05a"/>
      <stop offset="0.36" stop-color="#70bf59"/>
      <stop offset="0.39" stop-color="#89a352"/>
      <stop offset="0.45" stop-color="#b47446"/>
      <stop offset="0.51" stop-color="#d3523d"/>
      <stop offset="0.55" stop-color="#e63d38"/>
      <stop offset="0.58" stop-color="#ed3536"/>
      <stop offset="0.63" stop-color="#d63742"/>
      <stop offset="0.74" stop-color="#9a3b5f"/>
      <stop offset="0.89" stop-color="#3b438f"/>
      <stop offset="0.92" stop-color="#2a4497"/>
      <stop offset="1" stop-color="#2a4497"/>
    </linearGradient>
  </defs>
  <title>Chris-Sign</title>
  <path class="cls-2" d="M403.74,480.25A56.92,56.92,0,0,1,391.86,485a50.78,50.78,0,0,1-12.2,1.29q-17,0-28.3-11.12t-11.3-27.93q0-18.36,12-30.5t30-12.14a61.94,61.94,0,0,1,10.5.83,54.09,54.09,0,0,1,9.84,2.76v13.1A35.33,35.33,0,0,0,392.24,416a37,37,0,0,0-11.51-1.82,25.2,25.2,0,0,0-19.7,8.9q-7.86,8.91-7.86,22.31t7.41,22.36q7.41,8.91,18.53,8.9a37.4,37.4,0,0,0,13.28-2.18,42.58,42.58,0,0,0,12-7.31Z" transform="translate(-67.89 -393.46)"/>
  <path class="cls-2" d="M414.29,469v-43.5a66.07,66.07,0,0,0-.5-8.9,36.34,36.34,0,0,0-1.83-7.19l7.84-1.56,7.85-1.62a38,38,0,0,0-1.85,8.34,116.66,116.66,0,0,0-.53,12.55v12.55l8.34-9.62a28.13,28.13,0,0,1,7.09-1.16q7.49,0,11.38,4.68T456,447.17V469a94.46,94.46,0,0,0,.43,10.4,17.08,17.08,0,0,0,1.55,5.69H442.67a18.93,18.93,0,0,0,1.82-6.07,74.88,74.88,0,0,0,.51-10V448.69c0-3.2-.75-5.59-2.23-7.16s-3.76-2.35-6.83-2.35q-3.13,0-8.19,2.33l-2.48,1.11V469a71.41,71.41,0,0,0,.53,9.94,20.29,20.29,0,0,0,1.85,6.15H412a18.93,18.93,0,0,0,1.83-6.07,77,77,0,0,0,.5-10" transform="translate(-67.89 -393.46)"/>
  <path class="cls-2" d="M471.43,469V446.16a56.4,56.4,0,0,0-.51-8,60.58,60.58,0,0,0-1.82-8.1h13.31v9.77l8.54-9.61a21.52,21.52,0,0,1,7.29-1.37,10,10,0,0,1,4.9,1.11l-2.22,11.84-.51-.35a12,12,0,0,0-7.33-2.28q-3.13,0-8.2,2.33l-2.47,1.11V469a69.87,69.87,0,0,0,.53,9.94,20.57,20.57,0,0,0,1.84,6.15H469.1a18.93,18.93,0,0,0,1.82-6.07,74.88,74.88,0,0,0,.51-10" transform="translate(-67.89 -393.46)"/>
  <path class="cls-2" d="M548,446.16l-9,24.28q-5.22,13.81-9.41,21a36.56,36.56,0,0,1-9.16,10.93H505.88a57,57,0,0,0,9.72-9.87,80.29,80.29,0,0,0,8-13.47l1.47-2.73v0l-13-30.15a72.51,72.51,0,0,0-4.43-8.85,57.26,57.26,0,0,0-5.29-7.24h15.07a28.89,28.89,0,0,0,1.16,4.3c.58,1.69,1.52,4.12,2.84,7.29L531,465.38h0l7.94-23.72a33,33,0,0,0,1.55-6.15,20.35,20.35,0,0,0-.08-5.44h15.85a45.2,45.2,0,0,0-4.2,6.68q-1.77,3.54-4,9.41" transform="translate(-67.89 -393.46)"/>
  <path class="cls-2" d="M588.48,441.81a16.4,16.4,0,0,0-4.75-4,11.57,11.57,0,0,0-5.41-1.26,8.48,8.48,0,0,0-5.45,1.72,5.27,5.27,0,0,0-2.17,4.3,7.53,7.53,0,0,0,1.46,4.55,27.33,27.33,0,0,0,5.41,5.11q6.72,5.2,9.45,9.16a14.63,14.63,0,0,1,2.68,8.44,15.54,15.54,0,0,1-4.94,11.77,17.38,17.38,0,0,1-12.43,4.67,43.87,43.87,0,0,1-7-.48,51.58,51.58,0,0,1-7.16-1.84v-13.1a24.91,24.91,0,0,0,6.38,5.71,12.71,12.71,0,0,0,6.53,1.87,7.79,7.79,0,0,0,5.37-1.89,6.16,6.16,0,0,0,2.12-4.78,7.21,7.21,0,0,0-1.71-4.51,40,40,0,0,0-6.47-5.81q-6.07-4.71-8.54-8.5a15,15,0,0,1-2.44-8.35,14,14,0,0,1,5.38-11.25q5.38-4.48,13.53-4.48a22.85,22.85,0,0,1,5.16.51,25.71,25.71,0,0,1,5,1.82Z" transform="translate(-67.89 -393.46)"/>
  <path class="cls-2" d="M623.16,486.27q-11.38,0-18.66-7.61t-7.29-19.55q0-13,6.4-21.63t16-8.62h.1q9.4,0,14.49,6.53T639.3,454v5H608.86a25.79,25.79,0,0,0,4.35,12.44,14.28,14.28,0,0,0,12.24,6.27,25.86,25.86,0,0,0,6.88-.92,23,23,0,0,0,6.13-2.61l-4.37,10.57A50.08,50.08,0,0,1,628.3,486a38.58,38.58,0,0,1-5.14.3m7.15-34.95q0-7.19-2.65-11a8.66,8.66,0,0,0-7.62-3.79h.05a9.49,9.49,0,0,0-8.45,4.65,22.07,22.07,0,0,0-2.88,10.12Z" transform="translate(-67.89 -393.46)"/>
  <path class="cls-2" d="M651.47,469v-43.5a64.25,64.25,0,0,0-.51-8.9,36.3,36.3,0,0,0-1.82-7.19l7.84-1.56,7.84-1.62a38.61,38.61,0,0,0-1.85,8.34,116.66,116.66,0,0,0-.53,12.55V469a71.41,71.41,0,0,0,.53,9.94,20.57,20.57,0,0,0,1.85,6.15H649.14A18.93,18.93,0,0,0,651,479a74.88,74.88,0,0,0,.51-10" transform="translate(-67.89 -393.46)"/>
  <path class="cls-2" d="M702.73,441.81a16.4,16.4,0,0,0-4.75-4,11.57,11.57,0,0,0-5.41-1.26,8.48,8.48,0,0,0-5.45,1.72,5.27,5.27,0,0,0-2.17,4.3,7.53,7.53,0,0,0,1.46,4.55,27.33,27.33,0,0,0,5.41,5.11q6.72,5.2,9.45,9.16a14.63,14.63,0,0,1,2.68,8.44A15.54,15.54,0,0,1,699,481.6a17.38,17.38,0,0,1-12.43,4.67,43.87,43.87,0,0,1-7-.48,51.58,51.58,0,0,1-7.16-1.84v-13.1a24.91,24.91,0,0,0,6.38,5.71,12.71,12.71,0,0,0,6.53,1.87,7.79,7.79,0,0,0,5.37-1.89,6.16,6.16,0,0,0,2.12-4.78,7.17,7.17,0,0,0-1.72-4.51,39.37,39.37,0,0,0-6.46-5.81q-6.07-4.71-8.54-8.5a15,15,0,0,1-2.44-8.35A14,14,0,0,1,679,433.34c3.59-3,8.11-4.48,13.53-4.48a22.85,22.85,0,0,1,5.16.51,25.71,25.71,0,0,1,5,1.82Z" transform="translate(-67.89 -393.46)"/>
  <path class="cls-2" d="M787.44,421.42a24.9,24.9,0,0,0-7.08-5.51,17.51,17.51,0,0,0-7.78-1.72,11.61,11.61,0,0,0-8.21,3,9.78,9.78,0,0,0-3.26,7.51,10.83,10.83,0,0,0,2.53,7q2.48,3.09,9,7.19,9.81,6.27,13.81,11.73a21,21,0,0,1,4,12.75,21.51,21.51,0,0,1-7,16.39q-7,6.53-17.56,6.52a45.66,45.66,0,0,1-9-.76,47.42,47.42,0,0,1-8.75-2.83V467.86a25.62,25.62,0,0,0,7.53,6.68,17.66,17.66,0,0,0,8.56,2.12,14.33,14.33,0,0,0,9.74-3.36,10.69,10.69,0,0,0,3.87-8.42,12.31,12.31,0,0,0-2.63-7.79q-2.58-3.34-9.25-7.59-9.6-6.08-13.49-11.28a19.3,19.3,0,0,1-3.92-11.94,19.7,19.7,0,0,1,7.1-15.5q7.1-6.19,17.82-6.2a34.79,34.79,0,0,1,7.66.76,24.35,24.35,0,0,1,6.34,2.38Z" transform="translate(-67.89 -393.46)"/>
  <path class="cls-2" d="M803.07,469V446.16a58,58,0,0,0-.5-8,62.18,62.18,0,0,0-1.82-8.1h15.68a20.77,20.77,0,0,0-1.85,6.18,71.52,71.52,0,0,0-.53,9.91V469a71.41,71.41,0,0,0,.53,9.94,20.57,20.57,0,0,0,1.85,6.15H800.75a19.19,19.19,0,0,0,1.82-6.07,77,77,0,0,0,.5-10m5.24-61.86a6.72,6.72,0,0,1,5.25,2.48,8.9,8.9,0,0,1,2.16,6.07,8.81,8.81,0,0,1-2.16,6,6.84,6.84,0,0,1-10.51,0,8.85,8.85,0,0,1-2.15-6,8.94,8.94,0,0,1,2.15-6.07,6.73,6.73,0,0,1,5.26-2.48" transform="translate(-67.89 -393.46)"/>
  <path class="cls-2" d="M838.51,470.34a2.82,2.82,0,0,0,1.72,2.4,8.4,8.4,0,0,0,4.25,1h11.84q7.08,0,10.37,2.93T870,486q0,7.08-6.88,12t-16.84,4.91q-10.12,0-15.18-2c-3.37-1.34-5.06-3.33-5.06-6a7.53,7.53,0,0,1,2-4.52,85.8,85.8,0,0,1,8.09-8,22.32,22.32,0,0,1-6.73-1.42c-2.25-1-3.39-2.46-3.39-4.45a5.45,5.45,0,0,1,1.83-4,93.34,93.34,0,0,1,9.61-7.08,19,19,0,0,1-5.47-3.54,16.51,16.51,0,0,1-5.51-12.7A20.21,20.21,0,0,1,832,434.65a18.35,18.35,0,0,1,13.86-5.79A19.51,19.51,0,0,1,857,432.1h5.67q3.28,0,6.45-.31a25.46,25.46,0,0,0,4.48-.7l-1.17,8.7-8.9,0a19.6,19.6,0,0,1,1.72,8.39,17.79,17.79,0,0,1-5.54,13.38A19.21,19.21,0,0,1,845.84,467a23.67,23.67,0,0,1-4.09-.35,6.41,6.41,0,0,0-2.33,1.72,3.15,3.15,0,0,0-.91,2m6.73-33.79a7.66,7.66,0,0,0-6.17,2.76,10.89,10.89,0,0,0-2.33,7.31,14.18,14.18,0,0,0,2.86,8.92,8.43,8.43,0,0,0,6.85,3.72h-.05a7.85,7.85,0,0,0,6.27-2.7,10.87,10.87,0,0,0,2.33-7.31,14.45,14.45,0,0,0-2.81-9,8.4,8.4,0,0,0-6.9-3.69Zm-7.89,51.65a4.71,4.71,0,0,0,2.5,4.4q2.5,1.41,7.76,1.41c3.85,0,6.69-.49,8.53-1.49a4.88,4.88,0,0,0,2.76-4.58,4.79,4.79,0,0,0-2-4,8.7,8.7,0,0,0-5.36-1.49H840.73a7.68,7.68,0,0,0-2.4,2.58,6.23,6.23,0,0,0-1,3.19" transform="translate(-67.89 -393.46)"/>
  <path class="cls-2" d="M880,469V446.16a57,57,0,0,0-.5-8,59,59,0,0,0-1.82-8.05h13.3v9.57l8.35-9.62a28,28,0,0,1,7.08-1.16q7.49,0,11.38,4.68t3.9,13.63V469a92,92,0,0,0,.43,10.4,17.1,17.1,0,0,0,1.54,5.69H908.34a18.69,18.69,0,0,0,1.82-6.07,74.88,74.88,0,0,0,.51-10V448.69q0-4.8-2.23-7.16c-1.48-1.57-3.76-2.35-6.82-2.35q-3.15,0-8.2,2.33l-2.48,1.11V469a71.41,71.41,0,0,0,.53,9.94,20.57,20.57,0,0,0,1.85,6.15H877.64a18.93,18.93,0,0,0,1.82-6.07,75.2,75.2,0,0,0,.5-10" transform="translate(-67.89 -393.46)"/>
  <path class="cls-2" d="M337.38,576.05V541.78h16.85q5.92,0,8.07,1.89t2.15,7.15q0,6.34-5.05,7.48v.12q5.88.92,5.87,8.17c0,3.49-.75,5.95-2.26,7.35s-4.13,2.11-7.88,2.11Zm6.5-19.88h8c2.58,0,4.22-.29,4.94-.86s1.06-1.88,1.06-3.94c0-2.74-1.55-4.12-4.67-4.12h-9.29Zm0,14.41H351l2.29-.05c2.19,0,3.63-.31,4.33-.93s1-1.93,1-3.92-.36-3.38-1.09-3.92-2.52-.8-5.39-.8h-8.31Z" transform="translate(-67.89 -393.46)"/>
  <path class="cls-2" d="M386.13,541.48q9.35,0,12,3.1t2.69,13.87c0,7.85-.91,12.8-2.7,14.84s-6.16,3.06-13.07,3.06q-9.34,0-12.08-3T370.26,560q0-12.25,2.69-15.39t13.18-3.14m-.5,5.57q-6.56,0-7.66,1.68t-1.1,11.65c0,4.92.43,7.89,1.29,8.89s3.4,1.51,7.62,1.51q6,0,7.26-1.7c.8-1.13,1.2-4.55,1.2-10.28s-.38-9.13-1.14-10.18-3.25-1.57-7.47-1.57" transform="translate(-67.89 -393.46)"/>
  <path class="cls-2" d="M427.88,569.47H413.09L411,576.05h-6.88l11.4-34.27h9.76l11.58,34.27h-6.76Zm-1.51-4.79-5.92-17.85-5.83,17.85Z" transform="translate(-67.89 -393.46)"/>
  <path class="cls-2" d="M441.68,576.05V541.78h16.9q6.3,0,8.69,2.18t2.38,7.91q0,5.21-1.19,7.11c-.8,1.27-2.42,2.15-4.89,2.63v.23q5.7.35,5.7,6.65v7.56h-6.5V569.8q0-5.29-5.22-5.3h-9.37v11.55Zm6.5-17h9.34q3.35,0,4.44-1.2c.72-.79,1.09-2.38,1.09-4.78s-.32-4-.94-4.73-2-1.07-4.13-1.07h-9.8Z" transform="translate(-67.89 -393.46)"/>
  <path class="cls-2" d="M476.73,576.05V541.78h16.84q7.19,0,10.06,3.14t2.87,11q0,12.83-2.31,16.48t-10.42,3.65Zm6.5-5.47h9.26q4.68,0,6-2.15T499.9,559c0-5.05-.41-8.27-1.23-9.64s-2.75-2.06-5.78-2.06h-9.66Z" transform="translate(-67.89 -393.46)"/>
  <rect class="cls-2" x="460.02" y="148.32" width="6.5" height="34.27"/>
  <path class="cls-2" d="M574.2,541.78v34.27h-11l-9.8-18.8q-.72-1.41-2.28-4.93l-1.1-2.46-1.08-2.46h-.26l.1,2.26.08,2.24,0,4.49v19.66h-6.5V541.78h11l8.91,17.37q1.18,2.31,2.74,5.6l1.3,2.79,1.31,2.81h.23l-.08-2.21-.07-2.21,0-4.42V541.78Z" transform="translate(-67.89 -393.46)"/>
  <path class="cls-2" d="M582.13,576.05V541.78H599q7.18,0,10.06,3.14t2.87,11q0,12.83-2.31,16.48t-10.42,3.65Zm6.5-5.47h9.26q4.68,0,6-2.15T605.3,559c0-5.05-.41-8.27-1.23-9.64s-2.75-2.06-5.78-2.06h-9.66Z" transform="translate(-67.89 -393.46)"/>
  <path class="cls-2" d="M640.59,541.78h6.51v22.8q0,7.15-2.75,9.46t-11.24,2.31q-9,0-11.75-2.18T618.58,565V541.78h6.5V565q0,3.79,1.35,4.81c.91.68,3,1,6.38,1s5.59-.34,6.47-1,1.31-2.37,1.31-5Z" transform="translate(-67.89 -393.46)"/>
  <path class="cls-2" d="M680.43,551.77h-6.35c0-.32-.05-.55-.05-.7-.15-1.93-.58-3.14-1.28-3.63s-2.36-.74-5-.74c-3.08,0-5.09.29-6,.85s-1.42,1.77-1.42,3.59c0,2.16.39,3.46,1.16,3.9s3.31.77,7.63,1c5.1.28,8.41,1,9.9,2.18s2.25,3.61,2.25,7.31c0,4.55-.88,7.5-2.63,8.83s-5.64,2-11.63,2q-8.09,0-10.73-2c-1.77-1.3-2.65-3.95-2.65-7.93l0-1.26h6.33l0,.73c0,2.4.41,3.86,1.25,4.4s3.12.8,6.86.8q4.37,0,5.57-.93t1.2-4.29c0-1.66-.3-2.76-.91-3.3s-1.93-.88-4-1l-3.59-.22q-8.13-.48-10.39-2.26t-2.26-7.66q0-6,2.72-8t10.89-2q7.73,0,10.42,1.83t2.68,7.16Z" transform="translate(-67.89 -393.46)"/>
  <polygon class="cls-2" points="633.45 154.15 633.45 182.59 626.95 182.59 626.95 154.15 617.06 154.15 617.06 148.32 643.69 148.32 643.69 154.15 633.45 154.15"/>
  <path class="cls-2" d="M716.78,576.05V541.78h16.89q6.3,0,8.69,2.18t2.39,7.91q0,5.21-1.2,7.11t-4.88,2.63v.23q5.7.35,5.7,6.65v7.56h-6.5V569.8c0-3.53-1.75-5.3-5.23-5.3h-9.36v11.55Zm6.5-17h9.34c2.22,0,3.7-.4,4.43-1.2s1.09-2.38,1.09-4.78-.31-4-.94-4.73-2-1.07-4.13-1.07h-9.79Z" transform="translate(-67.89 -393.46)"/>
  <rect class="cls-2" x="683.93" y="148.32" width="6.5" height="34.27"/>
  <polygon class="cls-2" points="704.24 153.8 704.24 162.63 720.3 162.63 720.3 167.43 704.24 167.43 704.24 177.12 721.33 177.12 721.33 182.59 697.73 182.59 697.73 148.32 721.18 148.32 721.18 153.8 704.24 153.8"/>
  <path class="cls-2" d="M821.4,551.77h-6.35c0-.32,0-.55,0-.7-.15-1.93-.58-3.14-1.28-3.63s-2.36-.74-5-.74c-3.08,0-5.09.29-6,.85s-1.42,1.77-1.42,3.59c0,2.16.39,3.46,1.16,3.9s3.31.77,7.63,1q7.67.42,9.91,2.18c1.49,1.18,2.24,3.61,2.24,7.31,0,4.55-.88,7.5-2.63,8.83s-5.64,2-11.63,2q-8.09,0-10.73-2c-1.77-1.3-2.65-3.95-2.65-7.93l0-1.26h6.32l0,.73c0,2.4.41,3.86,1.25,4.4s3.12.8,6.86.8q4.37,0,5.57-.93t1.2-4.29c0-1.66-.3-2.76-.91-3.3s-1.93-.88-4-1l-3.59-.22q-8.13-.48-10.39-2.26t-2.26-7.66q0-6,2.72-8t10.89-2q7.73,0,10.42,1.83t2.68,7.16Z" transform="translate(-67.89 -393.46)"/>
  <polygon class="cls-2" points="782.02 148.32 782.02 176.77 798.09 176.77 798.09 182.59 775.52 182.59 775.52 148.32 782.02 148.32"/>
  <polygon class="cls-2" points="809.79 148.32 809.79 176.77 825.85 176.77 825.85 182.59 803.28 182.59 803.28 148.32 809.79 148.32"/>
  <path class="cls-2" d="M920.1,563.82h6.53V565q0,7.15-2.61,9.26t-11.55,2.09q-10.14,0-12.48-3.31t-2.33-17.73c0-5.65,1.05-9.38,3.16-11.16s6.52-2.67,13.23-2.67q7.34,0,9.79,2.19t2.46,8.73l0,.78H919.8v-.88c0-2.24-.42-3.68-1.27-4.31s-2.77-.94-5.78-.94c-4,0-6.46.5-7.27,1.48s-1.22,3.92-1.22,8.79q0,9.84,1.09,11.65t7.07,1.81c3.23,0,5.32-.34,6.29-1s1.44-2.14,1.44-4.42Z" transform="translate(-67.89 -393.46)"/>
  <g class="cls-3">
    <rect class="cls-4" x="268.73" y="114.09" width="593.84" height="8.38"/>
  </g>
  <path class="cls-5" d="M108.85,471.09c0-37.9,38.24-69.48,88.8-76.24a152.29,152.29,0,0,0-20.5-1.39c-60.33,0-109.26,34.74-109.26,77.63s48.93,77.67,109.26,77.67a161,161,0,0,0,20.5-1.37c-50.56-6.84-88.8-38.41-88.8-76.3" transform="translate(-67.89 -393.46)"/>
  <path class="cls-6" d="M222.08,517.29c0,37.88-38.21,69.43-88.8,76.27a154,154,0,0,0,20.49,1.36c60.37,0,109.33-34.79,109.33-77.63s-49-77.7-109.33-77.7A150.66,150.66,0,0,0,133.28,441c50.59,6.8,88.8,38.37,88.8,76.33" transform="translate(-67.89 -393.46)"/>
</svg>
