<svg id="Layer_1" data-name="Layer 1" xmlns="http://www.w3.org/2000/svg" xmlns:xlink="http://www.w3.org/1999/xlink" viewBox="0 0 863.12 149.21">
  <defs>
    <style>
      .cls-1 {
        fill: none;
      }

      .cls-2 {
        fill: #1e315b;
      }

      .cls-3 {
        clip-path: url(#clip-path);
      }

      .cls-4 {
        fill: url(#linear-gradient);
      }

      .cls-5 {
        fill: #1b345e;
      }

      .cls-5, .cls-6 {
        fill-rule: evenodd;
      }

      .cls-6 {
        fill: #ee3938;
      }
    </style>
    <clipPath id="clip-path" transform="translate(-58.62 -429.87)">
      <rect class="cls-1" x="257.65" y="539.18" width="664.09" height="6.2"/>
    </clipPath>
    <linearGradient id="linear-gradient" x1="-246.88" y1="1547.03" x2="-246.25" y2="1547.03" gradientTransform="translate(258516.43 -1618587.47) scale(1046.33)" gradientUnits="userSpaceOnUse">
      <stop offset="0" stop-color="#f5ed6e"/>
      <stop offset="0.1" stop-color="#f5ed6e"/>
      <stop offset="0.1" stop-color="#f4ed6e"/>
      <stop offset="0.14" stop-color="#ccdf67"/>
      <stop offset="0.18" stop-color="#abd362"/>
      <stop offset="0.22" stop-color="#91ca5e"/>
      <stop offset="0.26" stop-color="#7fc45b"/>
      <stop offset="0.31" stop-color="#74c05a"/>
      <stop offset="0.36" stop-color="#70bf59"/>
      <stop offset="0.39" stop-color="#89a352"/>
      <stop offset="0.45" stop-color="#b47446"/>
      <stop offset="0.51" stop-color="#d3523d"/>
      <stop offset="0.55" stop-color="#e63d38"/>
      <stop offset="0.58" stop-color="#ed3536"/>
      <stop offset="0.63" stop-color="#d63742"/>
      <stop offset="0.74" stop-color="#9a3b5f"/>
      <stop offset="0.89" stop-color="#3b438f"/>
      <stop offset="0.92" stop-color="#2a4497"/>
      <stop offset="1" stop-color="#2a4497"/>
    </linearGradient>
  </defs>
  <title>Chris-Decor</title>
  <path class="cls-2" d="M307.36,513.79a42.55,42.55,0,0,1-8.81,3.5,37.31,37.31,0,0,1-9,1q-12.58,0-21-8.25t-8.37-20.68q0-13.59,8.88-22.59t22.25-9a45.61,45.61,0,0,1,7.78.62,39.36,39.36,0,0,1,7.28,2v9.7a26.06,26.06,0,0,0-7.54-3.89,27.33,27.33,0,0,0-8.53-1.35,18.69,18.69,0,0,0-14.59,6.59q-5.82,6.6-5.82,16.52t5.49,16.56a17.13,17.13,0,0,0,13.73,6.6,27.72,27.72,0,0,0,9.83-1.62,31.63,31.63,0,0,0,8.86-5.41Z" transform="translate(-58.62 -429.87)"/>
  <path class="cls-2" d="M315.17,505.43V473.21a49.72,49.72,0,0,0-.37-6.59,27.52,27.52,0,0,0-1.35-5.32l5.8-1.16,5.81-1.2a28.36,28.36,0,0,0-1.37,6.18,86.14,86.14,0,0,0-.39,9.29v9.29l6.18-7.11a20.46,20.46,0,0,1,5.25-.87q5.53,0,8.43,3.47t2.88,10.1v16.14a69.12,69.12,0,0,0,.32,7.7,12.71,12.71,0,0,0,1.14,4.22H336.19a14,14,0,0,0,1.35-4.5,57.8,57.8,0,0,0,.37-7.42v-15q0-3.56-1.65-5.3a6.66,6.66,0,0,0-5.06-1.74,15.53,15.53,0,0,0-6.07,1.72l-1.83.82v19.52a52.75,52.75,0,0,0,.39,7.36,15.17,15.17,0,0,0,1.37,4.56H313.45a14.27,14.27,0,0,0,1.35-4.5,57.8,57.8,0,0,0,.37-7.42" transform="translate(-58.62 -429.87)"/>
  <path class="cls-2" d="M357.49,505.43V488.54a42.07,42.07,0,0,0-.38-5.92,44.78,44.78,0,0,0-1.35-6h9.86v7.23l6.33-7.11a15.77,15.77,0,0,1,5.39-1,7.45,7.45,0,0,1,3.64.83l-1.65,8.77-.38-.27a8.9,8.9,0,0,0-5.43-1.68,15.49,15.49,0,0,0-6.07,1.72l-1.83.82v19.52a52.75,52.75,0,0,0,.39,7.36,15.17,15.17,0,0,0,1.37,4.56H355.76a14,14,0,0,0,1.35-4.5,55.69,55.69,0,0,0,.38-7.42" transform="translate(-58.62 -429.87)"/>
  <path class="cls-2" d="M414.23,488.54l-6.71,18a106.75,106.75,0,0,1-7,15.55,27.09,27.09,0,0,1-6.78,8.09H383a41.76,41.76,0,0,0,7.2-7.31,60,60,0,0,0,6-10l1.09-2v0l-9.62-22.33a53.86,53.86,0,0,0-3.28-6.56,42.2,42.2,0,0,0-3.92-5.36h11.16a20.92,20.92,0,0,0,.87,3.19q.63,1.88,2.09,5.39l7.05,17.57h0l5.88-17.57a25,25,0,0,0,1.15-4.55,15.2,15.2,0,0,0-.06-4H420.3a33.23,33.23,0,0,0-3.11,4.95c-.88,1.75-1.86,4.07-3,7" transform="translate(-58.62 -429.87)"/>
  <path class="cls-2" d="M444.18,485.32a12,12,0,0,0-3.52-3,8.47,8.47,0,0,0-4-.94,6.32,6.32,0,0,0-4,1.27,3.91,3.91,0,0,0-1.6,3.19,5.62,5.62,0,0,0,1.08,3.37,19.74,19.74,0,0,0,4,3.78,33.86,33.86,0,0,1,7,6.78,10.8,10.8,0,0,1,2,6.26,11.48,11.48,0,0,1-3.66,8.71,12.83,12.83,0,0,1-9.2,3.47,32.16,32.16,0,0,1-5.2-.36,38.3,38.3,0,0,1-5.3-1.37v-9.7a18.38,18.38,0,0,0,4.72,4.23,9.42,9.42,0,0,0,4.84,1.39,5.75,5.75,0,0,0,4-1.41,4.52,4.52,0,0,0,1.57-3.54,5.31,5.31,0,0,0-1.27-3.33,28.78,28.78,0,0,0-4.79-4.31,28.27,28.27,0,0,1-6.33-6.29,11.12,11.12,0,0,1-1.8-6.18,10.39,10.39,0,0,1,4-8.34,15.15,15.15,0,0,1,10-3.32,17.06,17.06,0,0,1,3.82.38,19.66,19.66,0,0,1,3.71,1.35Z" transform="translate(-58.62 -429.87)"/>
  <path class="cls-2" d="M469.86,518.25A18.28,18.28,0,0,1,456,512.61q-5.4-5.64-5.4-14.48,0-9.63,4.74-16t11.86-6.39h.07q7,0,10.74,4.84t3.76,13.78V498H459.27a19.11,19.11,0,0,0,3.22,9.21,10.59,10.59,0,0,0,9.07,4.65,19.23,19.23,0,0,0,5.1-.69,17.09,17.09,0,0,0,4.53-1.93L478,517.08a36.16,36.16,0,0,1-4.28.94,28.23,28.23,0,0,1-3.81.23m5.3-25.89c0-3.55-.68-6.26-2-8.13a6.4,6.4,0,0,0-5.64-2.81h0a7,7,0,0,0-6.26,3.44,16.42,16.42,0,0,0-2.14,7.5Z" transform="translate(-58.62 -429.87)"/>
  <path class="cls-2" d="M490.82,505.43V473.21a48.07,48.07,0,0,0-.37-6.59,26.81,26.81,0,0,0-1.35-5.32l5.81-1.16,5.8-1.2a29,29,0,0,0-1.36,6.18,85.69,85.69,0,0,0-.4,9.29v31a52.46,52.46,0,0,0,.4,7.36,15.46,15.46,0,0,0,1.36,4.56H489.1a14,14,0,0,0,1.35-4.5,56,56,0,0,0,.37-7.42" transform="translate(-58.62 -429.87)"/>
  <path class="cls-2" d="M528.79,485.32a12,12,0,0,0-3.52-3,8.43,8.43,0,0,0-4-.94,6.3,6.3,0,0,0-4,1.27,3.92,3.92,0,0,0-1.61,3.19,5.56,5.56,0,0,0,1.09,3.37,19.9,19.9,0,0,0,4,3.78,34,34,0,0,1,7,6.78,10.86,10.86,0,0,1,2,6.26,11.48,11.48,0,0,1-3.65,8.71,12.87,12.87,0,0,1-9.21,3.47,32.11,32.11,0,0,1-5.19-.36,38,38,0,0,1-5.31-1.37v-9.7a18.4,18.4,0,0,0,4.73,4.23,9.39,9.39,0,0,0,4.84,1.39,5.72,5.72,0,0,0,4-1.41,4.53,4.53,0,0,0,1.58-3.54,5.37,5.37,0,0,0-1.27-3.33,29.38,29.38,0,0,0-4.8-4.31,28.19,28.19,0,0,1-6.32-6.29,11.12,11.12,0,0,1-1.81-6.18,10.39,10.39,0,0,1,4-8.34,15.15,15.15,0,0,1,10-3.32,16.94,16.94,0,0,1,3.82.38,19.41,19.41,0,0,1,3.71,1.35Z" transform="translate(-58.62 -429.87)"/>
  <path class="cls-2" d="M564.54,500.34V475.65a79.44,79.44,0,0,0-.45-9.25,49.24,49.24,0,0,0-1.61-7.76h10q16,0,25.33,8.07t9.36,21.83q0,13.26-8.71,21t-23.58,7.78H562.52a49.53,49.53,0,0,0,1.57-7.65,80.65,80.65,0,0,0,.45-9.36m8.91,10.6q11,0,17.65-5.92t6.67-15.58q0-11-6.33-17.69t-16.75-6.7h-1.24Z" transform="translate(-58.62 -429.87)"/>
  <path class="cls-2" d="M634,518.25a18.31,18.31,0,0,1-13.83-5.64q-5.39-5.64-5.39-14.48,0-9.63,4.74-16t11.86-6.39h.07q7,0,10.73,4.84t3.77,13.78V498H623.39a19,19,0,0,0,3.22,9.21,10.57,10.57,0,0,0,9.07,4.65,19.1,19.1,0,0,0,5.09-.69,17,17,0,0,0,4.54-1.93l-3.24,7.82a35.82,35.82,0,0,1-4.29.94,28,28,0,0,1-3.8.23m5.3-25.89q0-5.33-2-8.13a6.42,6.42,0,0,0-5.64-2.81h0a7,7,0,0,0-6.26,3.44,16.3,16.3,0,0,0-2.14,7.5Z" transform="translate(-58.62 -429.87)"/>
  <path class="cls-2" d="M679.48,517.08A38.84,38.84,0,0,1,675,518a31.07,31.07,0,0,1-4,.23,17.73,17.73,0,0,1-13.47-5.7,20,20,0,0,1-5.38-14.31,22.76,22.76,0,0,1,6-16.09A19.5,19.5,0,0,1,673,475.72c1.6,0,3,.06,4.18.17s2.82.36,4.92.73l-.41,9.4a15.75,15.75,0,0,0-4.47-3.52,11.09,11.09,0,0,0-4.89-1.08,10.26,10.26,0,0,0-8.55,4.06q-3.16,4.06-3.16,11T664,507.72a11,11,0,0,0,9,4.16,15.44,15.44,0,0,0,4-.57,49.42,49.42,0,0,0,5.66-2.05Z" transform="translate(-58.62 -429.87)"/>
  <path class="cls-2" d="M693.17,512.53A20.64,20.64,0,0,1,688,498.2q0-9.66,5.71-16.07a18.38,18.38,0,0,1,14.3-6.41,16.5,16.5,0,0,1,12.87,5.74A20.73,20.73,0,0,1,726,495.8q0,9.68-5.7,16.06A18.34,18.34,0,0,1,706,518.25a16.57,16.57,0,0,1-12.85-5.72m22.46-5.06a18.28,18.28,0,0,0,1.93-8.63q0-7.8-3.74-12.49a12.92,12.92,0,0,0-10.16-4.93,10.28,10.28,0,0,0-5.22,5.08,18.53,18.53,0,0,0-1.93,8.67q0,7.79,3.74,12.47a12.93,12.93,0,0,0,10.16,4.91,10.4,10.4,0,0,0,5.22-5.08" transform="translate(-58.62 -429.87)"/>
  <path class="cls-2" d="M734.67,505.43V488.54a42.07,42.07,0,0,0-.38-5.92,44.78,44.78,0,0,0-1.35-6h9.86v7.23l6.33-7.11a15.77,15.77,0,0,1,5.39-1,7.45,7.45,0,0,1,3.64.83l-1.65,8.77-.38-.27a8.9,8.9,0,0,0-5.43-1.68,15.49,15.49,0,0,0-6.07,1.72l-1.83.82v19.52a52.75,52.75,0,0,0,.39,7.36,15.17,15.17,0,0,0,1.37,4.56H732.94a14,14,0,0,0,1.35-4.5,55.69,55.69,0,0,0,.38-7.42" transform="translate(-58.62 -429.87)"/>
  <path class="cls-2" d="M788.47,517.35A48.38,48.38,0,0,0,790,509.7a80.65,80.65,0,0,0,.45-9.36V475.65a79.44,79.44,0,0,0-.45-9.25,49.24,49.24,0,0,0-1.61-7.76h13a49.43,49.43,0,0,0-1.57,7.66,80.35,80.35,0,0,0-.45,9.35v35.18a81.35,81.35,0,0,0,11.12-1.09,37.9,37.9,0,0,0,12.1-4.23l-2.43,5.92-2.47,5.92H788.47Z" transform="translate(-58.62 -429.87)"/>
  <path class="cls-2" d="M830.33,517.35a48.44,48.44,0,0,0,1.58-7.65,80.65,80.65,0,0,0,.45-9.36V475.65a79.44,79.44,0,0,0-.45-9.25,49.24,49.24,0,0,0-1.61-7.76h13a49.49,49.49,0,0,0-1.58,7.66,80.35,80.35,0,0,0-.45,9.35v35.18a81.68,81.68,0,0,0,11.13-1.09,37.9,37.9,0,0,0,12.1-4.23l-2.43,5.92-2.48,5.92H830.33Z" transform="translate(-58.62 -429.87)"/>
  <path class="cls-2" d="M917.34,513.79a42.49,42.49,0,0,1-8.8,3.5,37.42,37.42,0,0,1-9,1q-12.59,0-21-8.25t-8.37-20.68q0-13.59,8.88-22.59t22.25-9a45.49,45.49,0,0,1,7.77.62,39.67,39.67,0,0,1,7.29,2v9.7a26.12,26.12,0,0,0-7.55-3.89,27.31,27.31,0,0,0-8.52-1.35,18.67,18.67,0,0,0-14.59,6.59q-5.82,6.6-5.82,16.52t5.48,16.56a17.15,17.15,0,0,0,13.73,6.6,27.74,27.74,0,0,0,9.84-1.62,31.63,31.63,0,0,0,8.86-5.41Z" transform="translate(-58.62 -429.87)"/>
  <g class="cls-3">
    <rect class="cls-4" x="199.03" y="109.31" width="664.09" height="6.2"/>
  </g>
  <path class="cls-5" d="M89,487.37c0-28.07,28.32-51.46,65.76-56.47a113.9,113.9,0,0,0-15.18-1c-44.68,0-80.92,25.74-80.92,57.5s36.24,57.52,80.92,57.52a117.37,117.37,0,0,0,15.18-1C117.28,538.81,89,515.43,89,487.37" transform="translate(-58.62 -429.87)"/>
  <path class="cls-6" d="M172.81,521.58c0,28.06-28.3,51.42-65.76,56.49a113.94,113.94,0,0,0,15.18,1c44.71,0,81-25.76,81-57.5S166.94,464,122.23,464a112.29,112.29,0,0,0-15.18,1c37.46,5,65.76,28.42,65.76,56.53" transform="translate(-58.62 -429.87)"/>
</svg>
