<?xml version="1.0" encoding="utf-8"?>
<!-- Generator: Adobe Illustrator 23.0.3, SVG Export Plug-In . SVG Version: 6.00 Build 0)  -->
<svg version="1.1" id="Layer_1" xmlns="http://www.w3.org/2000/svg" xmlns:xlink="http://www.w3.org/1999/xlink" x="0px" y="0px"
	 viewBox="0 0 902.7 266.4" style="enable-background:new 0 0 902.7 266.4;" xml:space="preserve">
<style type="text/css">
	.st0{fill:#FFFFFF;}
	.st1{fill:#1E315B;}
	.st2{clip-path:url(#SVGID_2_);}
	.st3{fill:url(#SVGID_3_);}
	.st4{fill-rule:evenodd;clip-rule:evenodd;fill:#1B345E;}
	.st5{fill-rule:evenodd;clip-rule:evenodd;fill:#EE3938;}
</style>
<g>
	<path class="st0" d="M776.8,266.4H127.2C57,266.4,0,209.5,0,139.2v-12C0,57,57,0,127.2,0h649.6C847,0,904,56.9,904,127.2v12
		C904,209.5,847.1,266.4,776.8,266.4z"/>
</g>
<g>
	<title>Chris-Group</title>
	<path class="st1" d="M323.7,129.2c-3.2,1.7-6.5,3-10,4c-3.4,0.8-6.8,1.1-10.2,1.1c-9.5,0-17.5-3.1-23.8-9.4
		c-6.3-6.2-9.5-14.1-9.5-23.5c0-10.3,3.4-18.9,10.1-25.7s15.1-10.2,25.3-10.2c3,0,5.9,0.2,8.8,0.7c2.8,0.5,5.6,1.3,8.3,2.3v11
		c-2.6-1.9-5.5-3.4-8.6-4.4s-6.4-1.5-9.7-1.5c-6.4-0.1-12.4,2.6-16.6,7.4c-4.4,5-6.6,11.3-6.6,18.8s2.1,13.8,6.2,18.8
		c3.7,4.8,9.5,7.6,15.6,7.5c3.8,0.1,7.6-0.6,11.2-1.8c3.7-1.5,7.1-3.5,10.1-6.1L323.7,129.2z"/>
	<path class="st1" d="M332.6,119.7V83.1c0-2.5-0.1-5-0.4-7.5c-0.3-2-0.8-4.1-1.5-6l6.6-1.3l6.6-1.4c-0.8,2.3-1.3,4.6-1.5,7
		c-0.3,3.5-0.5,7-0.5,10.5V95l7-8.1c1.9-0.6,4-0.9,6-1c4.2,0,7.4,1.3,9.6,3.9c2.2,2.6,3.3,6.5,3.3,11.5v18.3c0,2.9,0.1,5.8,0.4,8.7
		c0.1,1.7,0.6,3.3,1.3,4.8h-12.9c0.8-1.6,1.3-3.3,1.5-5.1c0.3-2.8,0.5-5.6,0.4-8.4v-17.1c0-2.7-0.6-4.7-1.9-6c-1.2-1.3-3.2-2-5.7-2
		c-2.4,0.2-4.8,0.9-6.9,2l-2.1,0.9v22.2c-0.1,2.8,0.1,5.6,0.4,8.3c0.2,1.8,0.8,3.5,1.5,5.2h-13.2c0.8-1.6,1.3-3.3,1.5-5.1
		C332.5,125.4,332.6,122.5,332.6,119.7"/>
	<path class="st1" d="M380.7,119.7v-19.2c0-2.3-0.1-4.5-0.4-6.7c-0.4-2.3-0.9-4.6-1.5-6.8H390v8.2l7.2-8.1c2-0.7,4-1.1,6.1-1.1
		c1.4,0,2.9,0.3,4.1,0.9l-1.9,10l-0.5-0.3c-1.8-1.3-4-2-6.2-1.9c-2.4,0.2-4.8,0.9-6.9,2l-2.1,0.9v22.2c0,2.8,0.1,5.6,0.5,8.4
		c0.2,1.8,0.8,3.5,1.5,5.2h-13.2c0.8-1.6,1.3-3.3,1.5-5.1C380.6,125.4,380.7,122.6,380.7,119.7"/>
	<path class="st1" d="M445.1,100.5l-7.6,20.4c-2.2,6.1-4.8,12-7.9,17.7c-1.9,3.5-4.6,6.7-7.7,9.2h-12.2c3.1-2.4,5.8-5.2,8.2-8.3
		c2.6-3.5,4.9-7.3,6.8-11.3l1.2-2.3l0,0L415,100.5c-1.1-2.6-2.3-5.1-3.7-7.5c-1.3-2.1-2.8-4.2-4.5-6.1h12.7c0.2,1.2,0.6,2.4,1,3.6
		c0.5,1.4,1.3,3.5,2.4,6.1l8,20l0,0l6.7-20c0.6-1.7,1-3.4,1.3-5.2c0.2-1.5,0.2-3.1-0.1-4.6H452c-1.3,1.8-2.5,3.6-3.5,5.6
		C447.5,94.6,446.4,97.2,445.1,100.5"/>
	<path class="st1" d="M479.1,96.9c-1.1-1.4-2.5-2.5-4-3.4c-1.4-0.7-3-1.1-4.5-1.1c-1.7-0.1-3.3,0.4-4.6,1.5
		c-1.2,0.8-1.8,2.2-1.8,3.6c0,1.4,0.4,2.7,1.2,3.8c1.3,1.6,2.8,3.1,4.5,4.3c3,2.2,5.7,4.8,7.9,7.7c1.5,2.1,2.3,4.6,2.3,7.1
		c0.1,3.7-1.4,7.3-4.2,9.9c-2.8,2.6-6.6,4.1-10.5,3.9c-2,0-3.9-0.1-5.9-0.4c-2-0.4-4-0.9-6-1.5v-11c1.5,1.9,3.3,3.5,5.4,4.8
		c1.7,1,3.6,1.6,5.5,1.6c1.7,0.1,3.3-0.5,4.5-1.6c1.2-1,1.8-2.5,1.8-4c0-1.4-0.5-2.7-1.4-3.8c-1.6-1.8-3.5-3.5-5.4-4.9
		c-2.8-2-5.2-4.4-7.2-7.1c-1.4-2.1-2.1-4.5-2-7c-0.1-3.7,1.6-7.2,4.5-9.5c3.2-2.6,7.3-3.9,11.4-3.8c1.5,0,2.9,0.1,4.3,0.4
		c1.5,0.4,2.9,0.9,4.2,1.5V96.9z"/>
	<path class="st1" d="M508.3,134.3c-5.9,0.2-11.6-2.1-15.7-6.4c-4.1-4.3-6.1-9.8-6.1-16.5c0-7.3,1.8-13.4,5.4-18.2
		c3.6-4.8,8.1-7.3,13.5-7.3h0.1c5.3,0,9.3,1.8,12.2,5.5s4.3,8.9,4.3,15.6v4.2h-25.6c0.3,3.7,1.6,7.4,3.7,10.5
		c2.3,3.5,6.2,5.5,10.3,5.4c2,0,3.9-0.3,5.8-0.8c1.8-0.5,3.5-1.2,5.2-2.2l-3.7,8.9c-1.6,0.5-3.2,0.8-4.9,1.1
		C511.2,134.2,509.8,134.3,508.3,134.3 M514.3,104.9c0-4-0.7-7.1-2.2-9.2c-1.4-2.1-3.9-3.3-6.4-3.2l0,0c-2.9-0.1-5.6,1.4-7.1,3.9
		c-1.5,2.6-2.3,5.5-2.4,8.5H514.3z"/>
	<path class="st1" d="M532.1,119.7V83.1c0-2.5-0.1-5-0.4-7.5c-0.3-2-0.8-4.1-1.5-6l6.6-1.3l6.6-1.4c-0.8,2.3-1.3,4.6-1.5,7
		c-0.3,3.5-0.5,7-0.5,10.5v35.2c0,2.8,0.1,5.6,0.5,8.4c0.2,1.8,0.8,3.5,1.5,5.2h-13.2c0.8-1.6,1.3-3.3,1.5-5.1
		C532,125.3,532.2,122.5,532.1,119.7"/>
	<path class="st1" d="M575.3,96.9c-1.1-1.4-2.5-2.5-4-3.4c-1.4-0.7-3-1.1-4.5-1.1c-1.7-0.1-3.3,0.4-4.6,1.5
		c-1.2,0.8-1.8,2.2-1.8,3.6c0,1.4,0.4,2.7,1.2,3.8c1.3,1.6,2.8,3.1,4.5,4.3c3,2.2,5.7,4.8,7.9,7.7c1.5,2.1,2.3,4.6,2.3,7.1
		c0.1,3.7-1.4,7.3-4.2,9.9c-2.8,2.6-6.6,4.1-10.5,3.9c-2,0-3.9-0.1-5.9-0.4c-2-0.4-4-0.9-6-1.5v-11c1.5,1.9,3.3,3.5,5.4,4.8
		c1.7,1,3.6,1.6,5.5,1.6c1.7,0.1,3.3-0.5,4.5-1.6c1.2-1,1.8-2.5,1.8-4c0-1.4-0.5-2.7-1.4-3.8c-1.6-1.8-3.5-3.5-5.4-4.9
		c-2.8-2-5.2-4.4-7.2-7.1c-1.3-2.1-2-4.5-2-7c-0.1-3.7,1.6-7.2,4.5-9.5c3.2-2.6,7.3-3.9,11.4-3.8c1.5,0,2.9,0.1,4.3,0.4
		c1.5,0.4,2.9,0.9,4.2,1.5V96.9z"/>
	<path class="st1" d="M644.1,134.3c-9.4,0-17.2-3.1-23.5-9.4c-6.3-6.2-9.4-14.1-9.4-23.5c0-10.3,3.4-18.9,10.3-25.7
		c6.9-6.8,15.5-10.2,25.9-10.2c2.8,0,5.5,0.2,8.2,0.6c2.9,0.6,5.8,1.4,8.7,2.4v11c-2.9-2-6-3.5-9.3-4.6c-3.2-0.9-6.5-1.4-9.8-1.3
		c-6.3-0.1-12.4,2.6-16.5,7.3c-4.4,4.9-6.6,11.1-6.6,18.5c0,7.7,2,14,6.1,19.1s9.2,7.6,15.3,7.6l0,0c4.7,0,9.4-0.8,13.9-2.3v-4.6
		c0-3.5-0.1-7-0.5-10.5c-0.4-3-1-5.9-1.8-8.8h14.8c-0.8,2.8-1.4,5.8-1.8,8.7c-0.4,3.5-0.6,7.1-0.5,10.6v1.2c0,1.8,0.1,3.6,0.3,5.3
		c0.2,1.5,0.5,2.9,0.9,4.3C661,133,652.6,134.4,644.1,134.3L644.1,134.3z"/>
	<path class="st1" d="M682.4,119.7v-19.2c0-2.3-0.1-4.5-0.4-6.7c-0.4-2.3-0.9-4.6-1.5-6.8h11.2v8.2l7.2-8.1c2-0.7,4-1.1,6.1-1.1
		c1.4,0,2.8,0.3,4.1,0.9l-1.9,10l-0.4-0.3c-1.8-1.3-4-2-6.2-1.9c-2.4,0.2-4.8,0.9-6.9,2l-2.1,0.9v22.2c0,2.8,0.1,5.6,0.5,8.4
		c0.2,1.8,0.8,3.5,1.5,5.2h-13.2c0.8-1.6,1.3-3.3,1.5-5.1C682.3,125.4,682.5,122.6,682.4,119.7"/>
	<path class="st1" d="M717.6,127.8c-3.9-4.3-5.8-9.7-5.8-16.3c0-7.3,2.2-13.4,6.5-18.3c4.1-4.7,10-7.4,16.2-7.3
		c5.6-0.1,11,2.3,14.6,6.5c3.9,4.3,5.8,9.8,5.8,16.3c0,7.3-2.2,13.4-6.5,18.2c-4.1,4.7-10,7.4-16.2,7.2
		C726.6,134.4,721.2,132,717.6,127.8 M743.1,122.1c1.5-3,2.3-6.4,2.2-9.8c0-5.9-1.4-10.6-4.2-14.2c-2.8-3.5-7-5.6-11.5-5.6
		c-2.6,1.1-4.7,3.2-5.9,5.8c-1.5,3.1-2.3,6.4-2.2,9.9c0,5.9,1.4,10.6,4.3,14.2c2.8,3.5,7,5.6,11.5,5.6
		C739.8,126.7,741.9,124.7,743.1,122.1"/>
	<path class="st1" d="M772.9,100.5v17.2c0,2.7,0.6,4.6,1.9,5.9c1.2,1.3,3.1,1.9,5.6,1.9c2.5-0.1,4.9-0.7,7.2-1.7l1.5-0.6v-22.8
		c0-2.3-0.1-4.5-0.4-6.8c-0.3-2.3-0.9-4.5-1.5-6.8h13.2c-0.8,1.6-1.3,3.4-1.5,5.2c-0.3,2.8-0.5,5.6-0.5,8.3v19.2
		c0,2.8,0.1,5.6,0.5,8.4c0.2,1.8,0.8,3.5,1.5,5.2h-10.8v-7.9l-7.3,7.9c-2,0.6-4,0.9-6,1c-4.2,0-7.3-1.1-9.5-3.3
		c-2.2-2.2-3.2-5.4-3.2-9.6v-20.8c0-2.2-0.1-4.5-0.4-6.7c-0.4-2.3-0.9-4.6-1.5-6.8h13.2c-0.8,1.6-1.3,3.4-1.6,5.2
		C773,94.9,772.8,97.7,772.9,100.5"/>
	<path class="st1" d="M812.3,100.5c0-2.3-0.1-4.5-0.4-6.7c-0.4-2.3-0.9-4.6-1.5-6.8h11.2v8l6.3-7.5l1.2-0.6c1.7-0.7,3.5-1.1,5.3-1
		c4.9,0,8.9,2.3,11.9,6.9c3,4.6,4.6,10.5,4.5,17.8c0,7.5-1.4,13.4-4.3,17.5c-2.9,4.1-7,6.2-12.3,6.1c-4.6,0-9.1-1.6-12.6-4.6v4.8
		c0,2.2,0.1,4.5,0.5,6.7c0.4,2.3,0.9,4.6,1.5,6.9h-13.2c0.7-2.2,1.2-4.5,1.5-6.8c0.3-2.2,0.4-4.5,0.4-6.8L812.3,100.5z M829.3,127
		c3.4,0.2,6.7-1.4,8.8-4.1c2.1-2.8,3.1-6.7,3.1-11.8c0-5-1-9-3-11.9c-1.7-2.8-4.8-4.5-8.1-4.4c-2,0.1-4,0.5-5.8,1.3
		c-1,0.4-1.9,0.9-2.8,1.4V123C823.3,125.4,826.2,126.9,829.3,127"/>
	<g>
		<g>
			<defs>
				<rect id="SVGID_1_" x="267.3" y="158.1" width="585.8" height="7"/>
			</defs>
			<clipPath id="SVGID_2_">
				<use xlink:href="#SVGID_1_"  style="overflow:visible;"/>
			</clipPath>
			<g class="st2">
				
					<linearGradient id="SVGID_3_" gradientUnits="userSpaceOnUse" x1="-172.648" y1="1516.6136" x2="-171.9281" y2="1516.6136" gradientTransform="matrix(812.65 0 0 812.65 140567.6406 -1232314.5)">
					<stop  offset="0" style="stop-color:#F5ED6E"/>
					<stop  offset="0.1" style="stop-color:#F5ED6E"/>
					<stop  offset="0.1" style="stop-color:#F4ED6E"/>
					<stop  offset="0.14" style="stop-color:#CCDF67"/>
					<stop  offset="0.18" style="stop-color:#ABD362"/>
					<stop  offset="0.22" style="stop-color:#91CA5E"/>
					<stop  offset="0.26" style="stop-color:#7FC45B"/>
					<stop  offset="0.31" style="stop-color:#74C05A"/>
					<stop  offset="0.36" style="stop-color:#70BF59"/>
					<stop  offset="0.39" style="stop-color:#89A352"/>
					<stop  offset="0.45" style="stop-color:#B47446"/>
					<stop  offset="0.51" style="stop-color:#D3523D"/>
					<stop  offset="0.55" style="stop-color:#E63D38"/>
					<stop  offset="0.58" style="stop-color:#ED3536"/>
					<stop  offset="0.63" style="stop-color:#D63742"/>
					<stop  offset="0.74" style="stop-color:#9A3B5F"/>
					<stop  offset="0.89" style="stop-color:#3B438F"/>
					<stop  offset="0.92" style="stop-color:#2A4497"/>
					<stop  offset="1" style="stop-color:#2A4497"/>
				</linearGradient>
				<rect x="267.2" y="158.1" class="st3" width="585.8" height="7.1"/>
			</g>
		</g>
	</g>
	<path class="st4" d="M80.6,112.6c0-36.4,36.8-66.8,85.4-73.3c-6.5-0.9-13.1-1.3-19.7-1.3c-58,0-105,33.4-105,74.6s47,74.7,105,74.7
		c6.6,0,13.2-0.5,19.7-1.3C117.4,179.4,80.6,149.1,80.6,112.6"/>
	<path class="st5" d="M189.4,157.1c0,36.4-36.7,66.8-85.4,73.3c6.5,0.9,13.1,1.3,19.7,1.3c58.1,0,105.1-33.5,105.1-74.6
		s-47.1-74.7-105.1-74.7c-6.6,0-13.2,0.4-19.7,1.3C152.7,90.2,189.4,120.6,189.4,157.1"/>
	<path class="st1" d="M274.3,214.1v-28h13.8c3.2,0,5.4,0.5,6.6,1.5s1.8,3,1.8,5.8c0,3.5-1.4,5.5-4.1,6.1v0.1
		c3.2,0.5,4.8,2.7,4.8,6.7c0,2.9-0.6,4.9-1.9,6s-3.4,1.7-6.4,1.7L274.3,214.1L274.3,214.1z M279.6,197.8h6.5c2.1,0,3.5-0.2,4-0.7
		s0.9-1.5,0.9-3.2c0-2.2-1.3-3.4-3.8-3.4h-7.6V197.8z M279.6,209.6h5.8h1.9c1.8,0,3-0.2,3.5-0.8s0.9-1.6,0.9-3.2s-0.3-2.8-0.9-3.2
		s-2.1-0.7-4.4-0.7h-6.8V209.6z"/>
	<path class="st1" d="M302.5,214.1v-28h13.8c3.4,0,5.8,0.6,7.1,1.8c1.3,1.2,2,3.3,2,6.5c0,2.8-0.3,4.8-1,5.8s-2,1.8-4,2.2v0.2
		c3.1,0.2,4.7,2,4.7,5.4v6.2h-5.3v-5.1c0-2.9-1.4-4.3-4.3-4.3h-7.6v9.4h-5.4V214.1z M307.8,200.2h7.6c1.8,0,3-0.3,3.6-1
		s0.9-2,0.9-3.9s-0.3-3.3-0.8-3.9c-0.5-0.6-1.6-0.9-3.4-0.9h-8L307.8,200.2z"/>
	<polygon class="st1" points="335.9,190.6 335.9,197.8 349.1,197.8 349.1,201.7 335.9,201.7 335.9,209.6 349.9,209.6 349.9,214.1 
		330.6,214.1 330.6,186.1 349.8,186.1 349.8,190.6 	"/>
	<path class="st1" d="M372.4,208.7h-12.1l-1.7,5.4H353l9.4-28h8l9.5,28h-5.5L372.4,208.7z M371.1,204.8l-4.9-14.6l-4.8,14.6H371.1z"
		/>
	<polygon class="st1" points="394.8,190.8 394.8,214.1 389.5,214.1 389.5,190.8 381.4,190.8 381.4,186.1 403.2,186.1 403.2,190.8 	
		"/>
	<polygon class="st1" points="431.2,186.1 431.2,214.1 425.9,214.1 425.9,202 412.7,202 412.7,214.1 407.4,214.1 407.4,186.1 
		412.7,186.1 412.7,197.5 425.9,197.5 425.9,186.1 	"/>
	<rect x="437.6" y="186.1" class="st1" width="5.3" height="28"/>
	<path class="st1" d="M475.5,186.1v28h-9l-8-15.4c-0.4-0.8-1-2.1-1.9-4l-0.9-2l-0.9-2h-0.2l0.1,1.8l0.1,1.8v3.7v16h-5.3v-28h9
		l7.3,14.2c0.6,1.2,1.4,2.8,2.2,4.6l1.1,2.3l1.1,2.3h0.2l-0.1-1.8l-0.1-1.8v-3.6v-16.1L475.5,186.1L475.5,186.1z"/>
	<path class="st1" d="M493,199.2h12.3l0.1,5.6c0,4.1-0.8,6.7-2.3,7.8c-1.5,1.2-4.9,1.8-10.2,1.8c-4.8,0-8-0.8-9.6-2.3
		c-1.6-1.6-2.4-4.7-2.4-9.5c0-6.1,0.3-10,0.9-11.6c0.6-1.8,1.9-3.2,3.5-4c1.6-0.7,4.3-1,8.1-1c5,0,8.2,0.5,9.7,1.6s2.2,3.4,2.2,7
		h-5.4c-0.1-1.8-0.5-3-1.2-3.4s-2.5-0.7-5.3-0.7c-3.1,0-5,0.4-5.9,1.2c-0.8,0.8-1.2,2.6-1.2,5.4v2.8v3.6c0,2.8,0.4,4.5,1.2,5.3
		s2.7,1.1,5.7,1.1s4.7-0.3,5.5-1s1.2-2.2,1.2-4.5v-1.2h-7L493,199.2z"/>
	<polygon class="st1" points="528,186.1 528,209.3 541.2,209.3 541.2,214.1 522.7,214.1 522.7,186.1 	"/>
	<rect x="545.4" y="186.1" class="st1" width="5.3" height="28"/>
	<polygon class="st1" points="562.6,190.6 562.6,198.1 575.1,198.1 575.1,202.6 562.6,202.6 562.6,214.1 557.3,214.1 557.3,186.1 
		575.8,186.1 575.8,190.6 	"/>
	<polygon class="st1" points="585.4,190.6 585.4,197.8 598.5,197.8 598.5,201.7 585.4,201.7 585.4,209.6 599.3,209.6 599.3,214.1 
		580,214.1 580,186.1 599.2,186.1 599.2,190.6 	"/>
	<polygon class="st1" points="628.1,190.8 628.1,214.1 622.8,214.1 622.8,190.8 614.7,190.8 614.7,186.1 636.4,186.1 636.4,190.8 	
		"/>
	<path class="st1" d="M652.3,185.8c5.1,0,8.4,0.8,9.8,2.5c1.5,1.7,2.2,5.5,2.2,11.3c0,6.4-0.7,10.5-2.2,12.1s-5,2.5-10.7,2.5
		c-5.1,0-8.4-0.8-9.9-2.5c-1.5-1.6-2.2-5.3-2.2-10.9c0-6.7,0.7-10.9,2.2-12.6C643,186.7,646.6,185.8,652.3,185.8 M651.9,190.4
		c-3.6,0-5.7,0.5-6.3,1.4s-0.9,4.1-0.9,9.5c0,4,0.3,6.4,1,7.3c0.7,0.8,2.8,1.2,6.2,1.2s5.3-0.5,5.9-1.4s1-3.7,1-8.4
		c0-4.7-0.3-7.5-0.9-8.3C657.3,190.9,655.3,190.4,651.9,190.4"/>
	<path class="st1" d="M681.5,214.1v-28h13.8c3.2,0,5.4,0.5,6.6,1.5s1.8,3,1.8,5.8c0,3.5-1.4,5.5-4.1,6.1v0.1
		c3.2,0.5,4.8,2.7,4.8,6.7c0,2.9-0.6,4.9-1.8,6c-1.2,1.2-3.4,1.7-6.5,1.7L681.5,214.1z M686.9,197.8h6.5c2.1,0,3.5-0.2,4-0.7
		s0.9-1.5,0.9-3.2c0-2.2-1.3-3.4-3.8-3.4h-7.6L686.9,197.8L686.9,197.8z M686.9,209.6h5.8h1.9c1.8,0,3-0.2,3.5-0.8s0.9-1.6,0.9-3.2
		s-0.3-2.8-0.9-3.2s-2.1-0.7-4.4-0.7h-6.8V209.6z"/>
	<path class="st1" d="M709.7,214.1v-28h13.8c3.4,0,5.8,0.6,7.1,1.8c1.3,1.2,2,3.3,2,6.5c0,2.8-0.3,4.8-1,5.8s-2,1.8-4,2.2v0.2
		c3.1,0.2,4.7,2,4.7,5.4v6.2H727v-5.1c0-2.9-1.4-4.3-4.3-4.3H715v9.4h-5.3V214.1z M715.1,200.2h7.6c1.8,0,3-0.3,3.6-1s0.9-2,0.9-3.9
		s-0.2-3.3-0.8-3.9c-0.6-0.6-1.6-0.9-3.4-0.9h-8v9.7H715.1z"/>
	<path class="st1" d="M755.3,208.7h-12.1l-1.8,5.4h-5.6l9.3-28h8l9.5,28h-5.5L755.3,208.7z M754.1,204.8l-4.9-14.6l-4.8,14.6H754.1z
		"/>
	<path class="st1" d="M792.6,186.1v28h-9l-8-15.4c-0.4-0.8-1-2.1-1.9-4l-0.9-2l-0.9-2h-0.2l0.1,1.8l0.1,1.8v3.7v16h-5.3v-28h9
		l7.3,14.2c0.6,1.2,1.4,2.8,2.2,4.6l1.1,2.3l1.1,2.3h0.2l-0.1-1.8l-0.1-1.8v-3.6v-16.1L792.6,186.1L792.6,186.1z"/>
	<path class="st1" d="M799.1,214.1v-28h13.8c3.9,0,6.6,0.9,8.2,2.6c1.6,1.7,2.3,4.7,2.3,9c0,7-0.6,11.5-1.9,13.5c-1.3,2-4.1,3-8.5,3
		L799.1,214.1z M804.4,209.6h7.6c2.5,0,4.2-0.6,4.9-1.8s1.1-3.8,1.1-7.8s-0.3-6.8-1-7.9c-0.7-1.1-2.2-1.7-4.7-1.7h-7.9L804.4,209.6z
		"/>
	<path class="st1" d="M849.6,194.2h-5.2c0-0.2,0-0.4,0-0.6c-0.1-1.6-0.5-2.6-1-3c-0.6-0.4-1.9-0.6-4.1-0.6c-2.5,0-4.2,0.2-4.9,0.7
		s-1.2,1.4-1.2,2.9c0,1.8,0.3,2.8,0.9,3.2s2.7,0.6,6.2,0.8c4.2,0.2,6.9,0.8,8.1,1.8c1.2,1,1.8,3,1.8,6c0,3.7-0.7,6.1-2.2,7.2
		s-4.6,1.6-9.5,1.6c-4.4,0-7.3-0.5-8.8-1.6c-1.4-1.1-2.2-3.2-2.2-6.5v-1h5.2v0.6c0,2,0.3,3.2,1,3.6s2.5,0.7,5.6,0.7
		c2.4,0,3.9-0.2,4.5-0.8s1-1.7,1-3.5c0.1-1-0.1-1.9-0.8-2.7c-1-0.6-2.1-0.9-3.2-0.8l-2.9-0.2c-4.4-0.3-7.3-0.9-8.5-1.8
		c-1.2-1-1.8-3.1-1.8-6.3c0-3.2,0.7-5.5,2.2-6.5s4.5-1.6,8.9-1.6c4.2,0,7.1,0.5,8.5,1.5s2.2,3,2.2,5.8L849.6,194.2z"/>
</g>
</svg>
