<?xml version="1.0" encoding="utf-8"?>
<!-- Generator: Adobe Illustrator 23.0.3, SVG Export Plug-In . SVG Version: 6.00 Build 0)  -->
<svg version="1.1" id="Layer_1" xmlns="http://www.w3.org/2000/svg" xmlns:xlink="http://www.w3.org/1999/xlink" x="0px" y="0px"
	 viewBox="0 0 1016.9 1229.8" style="enable-background:new 0 0 1016.9 1229.8;" xml:space="preserve">
<style type="text/css">
	.st0{fill:#FFFFFF;}
	.st1{fill:#1E315B;}
	.st2{clip-path:url(#SVGID_2_);}
	.st3{fill:url(#SVGID_3_);}
	.st4{fill-rule:evenodd;clip-rule:evenodd;fill:#1B345E;}
	.st5{fill-rule:evenodd;clip-rule:evenodd;fill:#EE3938;}
	.st6{enable-background:new    ;}
</style>
<path class="st0" d="M872.2,1229.8h-717c-71.5,0-130-58.5-130-130V-12.5h977v1112.3C1002.2,1171.3,943.7,1229.8,872.2,1229.8z"/>
<title>Chris-Group</title>
<g id="Layer_2">
	<path class="st1" d="M388.9,1057c-3.1,1.6-6.3,2.9-9.6,3.8c-3.2,0.7-6.5,1.1-9.8,1.1c-9.1,0-16.8-3-22.9-9
		c-6.1-6.1-9.1-13.6-9.1-22.6c0-9.9,3.3-18.2,9.7-24.7c6.4-6.5,14.5-9.8,24.3-9.8c2.8,0,5.7,0.2,8.5,0.7c2.7,0.5,5.4,1.2,8,2.2v10.6
		c-2.5-1.8-5.3-3.3-8.3-4.2c-3-1-6.2-1.4-9.3-1.4c-6.1-0.1-12,2.5-16,7.1c-4.2,4.8-6.4,10.9-6.4,18.1s2,13.3,6,18.1
		c3.6,4.6,9.2,7.3,15,7.2c3.7,0.1,7.3-0.5,10.8-1.7c3.5-1.4,6.8-3.4,9.7-5.9L388.9,1057z"/>
	<path class="st1" d="M397.5,1047.9v-35.2c0-2.4-0.1-4.8-0.4-7.2c-0.3-2-0.8-3.9-1.4-5.8l6.4-1.3l6.4-1.3c-0.8,2.2-1.3,4.4-1.4,6.7
		c-0.3,3.4-0.5,6.7-0.5,10.1v10.2l6.7-7.8c1.9-0.6,3.8-0.9,5.8-1c4,0,7.1,1.3,9.2,3.8c2.1,2.5,3.2,6.3,3.2,11.1v17.6
		c0,2.8,0.1,5.6,0.4,8.4c0.1,1.6,0.5,3.2,1.3,4.6h-12.4c0.8-1.5,1.3-3.2,1.4-4.9c0.3-2.7,0.4-5.4,0.4-8.1v-16.3
		c0-2.6-0.6-4.5-1.8-5.8c-1.3-1.3-3.1-1.9-5.5-1.9c-2.3,0.2-4.6,0.9-6.6,1.9l-2,0.9v21.4c-0.1,2.7,0.1,5.3,0.4,8
		c0.2,1.7,0.7,3.4,1.4,5h-12.7c0.8-1.5,1.3-3.2,1.4-4.9C397.4,1053.3,397.5,1050.6,397.5,1047.9"/>
	<path class="st1" d="M443.8,1047.9v-18.4c0-2.2-0.1-4.3-0.4-6.4c-0.4-2.2-0.9-4.4-1.4-6.5h10.8v7.9l6.9-7.8c1.9-0.7,3.9-1,5.9-1.1
		c1.4,0,2.7,0.3,3.9,0.9l-1.8,9.6l-0.4-0.3c-1.7-1.3-3.8-1.9-6-1.8c-2.3,0.2-4.6,0.9-6.6,1.9l-2,0.9v21.4c0,2.7,0.1,5.4,0.5,8.1
		c0.2,1.7,0.7,3.4,1.4,5h-12.7c0.8-1.5,1.3-3.2,1.4-4.9C443.6,1053.5,443.8,1050.7,443.8,1047.9"/>
	<path class="st1" d="M505.8,1029.5l-7.3,19.6c-2.1,5.9-4.6,11.6-7.6,17c-1.9,3.4-4.4,6.4-7.4,8.9h-11.7c3-2.3,5.6-5,7.9-8
		c2.5-3.4,4.7-7,6.5-10.9l1.2-2.2l0,0l-10.5-24.4c-1-2.5-2.2-4.9-3.6-7.2c-1.3-2.1-2.7-4-4.3-5.9h12.2c0.2,1.2,0.6,2.3,1,3.5
		c0.5,1.3,1.3,3.4,2.3,5.9l7.7,19.2l0,0l6.4-19.2c0.6-1.6,1-3.3,1.3-5c0.2-1.5,0.2-3-0.1-4.4h12.8c-1.3,1.7-2.4,3.5-3.4,5.4
		C507.9,1024.2,506.7,1026.8,505.8,1029.5"/>
	<path class="st1" d="M538.5,1025.9c-1.1-1.3-2.4-2.4-3.8-3.3c-1.3-0.7-2.8-1-4.3-1.1c-1.6-0.1-3.2,0.4-4.4,1.4
		c-1.1,0.8-1.8,2.1-1.7,3.5c0,1.3,0.4,2.6,1.2,3.7c1.2,1.6,2.7,3,4.3,4.1c2.9,2.1,5.4,4.6,7.6,7.4c1.4,2,2.2,4.4,2.2,6.8
		c0.1,3.6-1.4,7.1-4,9.5c-2.7,2.6-6.4,3.9-10.1,3.8c-1.9,0-3.8-0.1-5.7-0.4c-1.9-0.4-3.8-0.9-5.8-1.4v-10.6c1.4,1.8,3.2,3.4,5.2,4.6
		c1.6,1,3.4,1.5,5.3,1.5c1.6,0.1,3.2-0.5,4.3-1.5c1.1-1,1.8-2.4,1.7-3.8c0-1.3-0.5-2.6-1.3-3.7c-1.6-1.7-3.3-3.3-5.2-4.7
		c-2.7-1.9-5-4.2-6.9-6.8c-1.3-2-2-4.3-1.9-6.7c-0.1-3.6,1.5-6.9,4.3-9.1c3.1-2.5,7-3.8,11-3.7c1.4,0,2.8,0.1,4.1,0.4
		c1.4,0.4,2.7,0.8,4,1.4V1025.9z"/>
	<path class="st1" d="M566.6,1061.9c-5.7,0.2-11.2-2-15.1-6.2c-3.9-4.1-5.9-9.4-5.9-15.9c0-7,1.7-12.9,5.2-17.5c3.5-4.6,7.8-7,13-7
		h0.1c5.1,0,8.9,1.7,11.7,5.3s4.1,8.6,4.1,15v4h-24.6c0.3,3.6,1.5,7.1,3.6,10.1c2.2,3.3,5.9,5.3,9.9,5.2c1.9,0,3.8-0.3,5.6-0.8
		c1.8-0.5,3.4-1.2,5-2.1l-3.6,8.6c-1.5,0.5-3.1,0.8-4.7,1.1C569.5,1061.9,568,1061.9,566.6,1061.9 M572.4,1033.6
		c0-3.8-0.7-6.8-2.1-8.9c-1.4-2-3.7-3.2-6.2-3.1l0,0c-2.8-0.1-5.4,1.4-6.8,3.8c-1.4,2.5-2.2,5.3-2.3,8.2H572.4z"/>
	<path class="st1" d="M589.5,1047.9v-35.2c0-2.4-0.1-4.8-0.4-7.2c-0.3-2-0.8-3.9-1.4-5.8l6.4-1.3l6.4-1.3c-0.8,2.2-1.3,4.4-1.4,6.7
		c-0.3,3.4-0.5,6.7-0.5,10.1v33.9c0,2.7,0.1,5.4,0.5,8.1c0.2,1.7,0.7,3.4,1.4,5h-12.7c0.8-1.5,1.3-3.2,1.4-4.9
		C589.4,1053.3,589.5,1050.6,589.5,1047.9"/>
	<path class="st1" d="M631.1,1025.9c-1.1-1.3-2.4-2.4-3.8-3.3c-1.3-0.7-2.8-1-4.3-1.1c-1.6-0.1-3.2,0.4-4.4,1.4
		c-1.1,0.8-1.8,2.1-1.7,3.5c0,1.3,0.4,2.6,1.2,3.7c1.2,1.6,2.7,3,4.3,4.1c2.9,2.1,5.4,4.6,7.6,7.4c1.4,2,2.2,4.4,2.2,6.8
		c0.1,3.6-1.4,7.1-4,9.5c-2.7,2.6-6.4,3.9-10.1,3.8c-1.9,0-3.8-0.1-5.7-0.4c-1.9-0.4-3.8-0.9-5.8-1.4v-10.6c1.4,1.8,3.2,3.4,5.2,4.6
		c1.6,1,3.4,1.5,5.3,1.5c1.6,0.1,3.2-0.5,4.3-1.5c1.1-1,1.8-2.4,1.7-3.8c0-1.3-0.5-2.6-1.3-3.7c-1.6-1.7-3.3-3.3-5.2-4.7
		c-2.7-1.9-5-4.2-6.9-6.8c-1.3-2-1.9-4.4-1.9-6.7c-0.1-3.6,1.5-6.9,4.3-9.1c3.1-2.5,7-3.8,11-3.7c1.4,0,2.8,0.1,4.1,0.4
		c1.4,0.4,2.7,0.8,4,1.4V1025.9z"/>
	<path class="st1" d="M697.3,1061.9c-9,0-16.6-3-22.6-9c-6.1-6.1-9-13.6-9-22.6c0-9.9,3.3-18.2,9.9-24.7c6.6-6.5,14.9-9.8,24.9-9.8
		c2.6,0,5.3,0.2,7.9,0.6c2.8,0.6,5.6,1.4,8.4,2.3v10.6c-2.8-1.9-5.8-3.4-8.9-4.4c-3.1-0.9-6.2-1.3-9.4-1.3c-6.1-0.1-11.9,2.5-15.9,7
		c-4.2,4.7-6.4,10.7-6.4,17.8c0,7.4,1.9,13.5,5.9,18.4s8.9,7.3,14.7,7.3l0,0c4.5,0,9.1-0.8,13.4-2.2v-4.4c0-3.4-0.1-6.7-0.5-10.1
		c-0.4-2.9-1-5.7-1.7-8.5h14.2c-0.8,2.7-1.3,5.5-1.7,8.4c-0.4,3.4-0.6,6.8-0.5,10.2v1.2c0,1.7,0.1,3.4,0.3,5.1
		c0.2,1.4,0.5,2.8,0.9,4.1C713.4,1060.6,705.4,1062.1,697.3,1061.9L697.3,1061.9z"/>
	<path class="st1" d="M734.2,1047.9v-18.4c0-2.2-0.1-4.3-0.4-6.4c-0.4-2.2-0.9-4.4-1.4-6.5h10.8v7.9l6.9-7.8c1.9-0.7,3.9-1,5.9-1.1
		c1.4,0,2.7,0.3,3.9,0.9l-1.8,9.6l-0.4-0.3c-1.7-1.3-3.8-1.9-6-1.8c-2.3,0.2-4.6,0.9-6.6,1.9l-2,0.9v21.4c0,2.7,0.1,5.4,0.5,8.1
		c0.2,1.7,0.7,3.4,1.4,5h-12.7c0.8-1.5,1.3-3.2,1.4-4.9C734.1,1053.5,734.2,1050.7,734.2,1047.9"/>
	<path class="st1" d="M768,1055.7c-3.8-4.1-5.6-9.3-5.6-15.7c0-7,2.1-12.9,6.3-17.6c3.9-4.5,9.6-7.1,15.6-7
		c5.4-0.1,10.5,2.2,14.1,6.3c3.8,4.1,5.6,9.4,5.6,15.7c0,7-2.1,12.9-6.3,17.5c-3.9,4.5-9.6,7.1-15.6,6.9
		C776.7,1062,771.5,1059.8,768,1055.7 M792.5,1050.2c1.5-2.9,2.2-6.2,2.1-9.4c0-5.7-1.3-10.2-4-13.7c-2.7-3.4-6.8-5.4-11.1-5.4
		c-2.5,1.1-4.5,3.1-5.7,5.6c-1.5,3-2.2,6.2-2.1,9.5c0,5.7,1.3,10.2,4.1,13.7c2.7,3.4,6.8,5.4,11.1,5.4
		C789.4,1054.6,791.4,1052.6,792.5,1050.2"/>
	<path class="st1" d="M821.2,1029.4v16.6c0,2.6,0.6,4.4,1.8,5.7c1.3,1.3,3,1.8,5.4,1.8c2.4-0.1,4.7-0.7,6.9-1.6l1.4-0.6v-21.8
		c0-2.2-0.1-4.4-0.4-6.5c-0.3-2.2-0.8-4.4-1.4-6.5h12.7c-0.8,1.6-1.3,3.3-1.4,5c-0.3,2.7-0.5,5.3-0.5,8v18.5c0,2.7,0.1,5.4,0.5,8.1
		c0.2,1.7,0.7,3.4,1.4,5h-10.4v-7.6l-7,7.6c-1.9,0.6-3.8,0.9-5.8,1c-4,0-7-1.1-9.1-3.2c-2.1-2.1-3.1-5.2-3.1-9.2v-20
		c0-2.2-0.1-4.3-0.4-6.4c-0.4-2.2-0.9-4.4-1.4-6.5h12.7c-0.8,1.6-1.3,3.3-1.5,5C821.3,1024.1,821.1,1026.7,821.2,1029.4"/>
	<path class="st1" d="M859.1,1029.5c0-2.2-0.1-4.3-0.4-6.4c-0.4-2.2-0.9-4.4-1.4-6.5h10.8v7.7l6.1-7.2l1.2-0.6c1.6-0.7,3.3-1,5.1-1
		c4.7,0,8.6,2.2,11.5,6.6c2.9,4.4,4.4,10.1,4.3,17.1c0,7.2-1.3,12.9-4.1,16.8c-2.6,3.9-7.1,6.1-11.8,5.9c-4.4,0-8.7-1.6-12.1-4.4
		v4.6c0,2.2,0.1,4.3,0.5,6.4c0.4,2.2,0.9,4.4,1.4,6.6h-12.7c0.7-2.1,1.2-4.3,1.4-6.5c0.3-2.2,0.4-4.4,0.4-6.5L859.1,1029.5z
		 M875.5,1054.9c3.3,0.2,6.5-1.3,8.5-3.9c2-2.7,3-6.4,3-11.4s-1-8.7-2.9-11.5c-1.6-2.7-4.6-4.3-7.8-4.2c-1.9,0.1-3.8,0.5-5.6,1.3
		c-0.9,0.4-1.8,0.8-2.7,1.3v24.5C869.8,1053.4,872.5,1054.8,875.5,1054.9"/>
	<g>
		<defs>
			<rect id="SVGID_1_" x="334.7" y="1084.8" width="563.7" height="6.7"/>
		</defs>
		<clipPath id="SVGID_2_">
			<use xlink:href="#SVGID_1_"  style="overflow:visible;"/>
		</clipPath>
		<g class="st2">
			
				<linearGradient id="SVGID_3_" gradientUnits="userSpaceOnUse" x1="-424.1391" y1="74.6117" x2="-423.4462" y2="74.6117" gradientTransform="matrix(812.65 0 0 -812.65 345010.125 61721.4414)">
				<stop  offset="0" style="stop-color:#F5ED6E"/>
				<stop  offset="0.1" style="stop-color:#F5ED6E"/>
				<stop  offset="0.1" style="stop-color:#F4ED6E"/>
				<stop  offset="0.14" style="stop-color:#CCDF67"/>
				<stop  offset="0.18" style="stop-color:#ABD362"/>
				<stop  offset="0.22" style="stop-color:#91CA5E"/>
				<stop  offset="0.26" style="stop-color:#7FC45B"/>
				<stop  offset="0.31" style="stop-color:#74C05A"/>
				<stop  offset="0.36" style="stop-color:#70BF59"/>
				<stop  offset="0.39" style="stop-color:#89A352"/>
				<stop  offset="0.45" style="stop-color:#B47446"/>
				<stop  offset="0.51" style="stop-color:#D3523D"/>
				<stop  offset="0.55" style="stop-color:#E63D38"/>
				<stop  offset="0.58" style="stop-color:#ED3536"/>
				<stop  offset="0.63" style="stop-color:#D63742"/>
				<stop  offset="0.74" style="stop-color:#9A3B5F"/>
				<stop  offset="0.89" style="stop-color:#3B438F"/>
				<stop  offset="0.92" style="stop-color:#2A4497"/>
				<stop  offset="1" style="stop-color:#2A4497"/>
			</linearGradient>
			<rect x="334.7" y="1084.8" class="st3" width="563.7" height="6.8"/>
		</g>
	</g>
	<path class="st4" d="M155,1041c0-35,35.4-64.3,82.2-70.5c-6.3-0.8-12.6-1.3-19-1.3c-55.8,0-101,32.1-101,71.8
		c0,39.6,45.2,71.9,101,71.9c6.3,0,12.7-0.4,19-1.3C190.4,1105.3,155,1076.2,155,1041"/>
	<path class="st5" d="M259.7,1083.9c0,35-35.3,64.3-82.2,70.5c6.3,0.9,12.6,1.3,19,1.3c55.9,0,101.1-32.2,101.1-71.8
		c0-39.6-45.2-71.9-101-71.9c-6.3,0-12.7,0.4-19,1.3C224.4,1019.6,259.7,1048.7,259.7,1083.9"/>
	<g class="st6">
		<path class="st1" d="M357.3,1113.7c0,2.7-1.6,4.8-4.3,5.5c3.3,0.6,5.3,3,5.3,6.3c0,4.3-3.5,6.9-9.2,6.9h-11.4v-24.9h11.1
			C354,1107.5,357.3,1109.9,357.3,1113.7z M352.4,1114.6c0-1.9-1.5-3-4-3h-6.1v6.1h6.1C350.9,1117.7,352.4,1116.5,352.4,1114.6z
			 M353.3,1124.9c0-2-1.8-3.3-4.8-3.2h-6.1v6.6h6.1C351.5,1128.3,353.3,1127.1,353.3,1124.9z"/>
		<path class="st1" d="M378.5,1132.4l-4.3-7.4c-0.3,0-0.6,0-0.9,0h-5.6v7.3h-4.8v-24.9h10.4c6.4,0,10.1,3.1,10.1,8.6
			c0,3.9-1.7,6.7-5,8.1l5.5,8.3H378.5z M367.7,1120.9h5.6c3.6,0,5.6-1.5,5.6-4.7c0-3.1-2-4.6-5.6-4.6h-5.6V1120.9z"/>
		<path class="st1" d="M406.9,1107.5v4.2h-13.5v6.2h12.1v4.2h-12.1v6.3h13.9v4.2h-18.7v-24.9H406.9z"/>
		<path class="st1" d="M428.4,1127.2h-12.2l-2.2,5.3h-5l10.9-24.9h5l10.8,24.9h-5.1L428.4,1127.2z M426.7,1123.1l-4.3-10.5
			l-4.4,10.5H426.7z"/>
		<path class="st1" d="M456.3,1107.5v4.2h-7.8v20.7h-4.8v-20.7H436v-4.2H456.3z"/>
		<path class="st1" d="M464.5,1107.5v10.6h12.4v-10.6h4.8v24.9h-4.8v-10.1h-12.4v10.1h-4.8v-24.9H464.5z"/>
		<path class="st1" d="M492.6,1107.5v24.9h-4.8v-24.9H492.6z"/>
		<path class="st1" d="M503.3,1107.5l12.9,17.1v-17.1h4.6v24.9h-4.5l-12.8-17v17h-4.7v-24.9H503.3z"/>
		<path class="st1" d="M543.8,1120h4.2v9.4c-2.6,1.9-6.4,3.2-9.9,3.2c-7.4,0-13.2-5.5-13.2-12.7s5.8-12.6,13.5-12.6
			c3.6,0,7.3,1.4,9.8,3.6l-2.7,3.5c-1.9-1.7-4.5-2.8-7.1-2.8c-4.8,0-8.6,3.7-8.6,8.4c0,4.7,3.8,8.4,8.6,8.4c1.7,0,3.7-0.6,5.4-1.6
			V1120z"/>
		<path class="st1" d="M568.9,1107.5v20.6h10.8v4.3h-15.5v-24.9H568.9z"/>
		<path class="st1" d="M588.2,1107.5v24.9h-4.8v-24.9H588.2z"/>
		<path class="st1" d="M611.5,1107.5l0,4.2h-12.4v6.7h11.3v4.2h-11.3v9.9h-4.8v-24.9H611.5z"/>
		<path class="st1" d="M633.3,1107.5v4.2h-13.5v6.2H632v4.2h-12.1v6.3h13.9v4.2h-18.7v-24.9H633.3z"/>
		<path class="st1" d="M654.1,1107.5v24.9h-4.8v-24.9H654.1z"/>
		<path class="st1" d="M664.7,1107.5l12.9,17.1v-17.1h4.6v24.9h-4.5l-12.8-17v17h-4.7v-24.9H664.7z"/>
		<path class="st1" d="M705.9,1107.5v4.2h-7.8v20.7h-4.8v-20.7h-7.8v-4.2H705.9z"/>
		<path class="st1" d="M733.9,1120c0,7.2-5.8,12.7-13.3,12.7s-13.3-5.5-13.3-12.7c0-7.2,5.8-12.6,13.3-12.6S733.9,1112.8,733.9,1120
			z M712.2,1120c0,4.7,3.9,8.4,8.5,8.4c4.6,0,8.3-3.7,8.3-8.4s-3.8-8.3-8.3-8.3C716,1111.6,712.2,1115.3,712.2,1120z"/>
		<path class="st1" d="M768.4,1113.7c0,2.7-1.6,4.8-4.3,5.5c3.3,0.6,5.3,3,5.3,6.3c0,4.3-3.5,6.9-9.2,6.9h-11.4v-24.9h11.1
			C765.1,1107.5,768.4,1109.9,768.4,1113.7z M763.5,1114.6c0-1.9-1.5-3-4-3h-6.1v6.1h6.1C762,1117.7,763.5,1116.5,763.5,1114.6z
			 M764.4,1124.9c0-2-1.8-3.3-4.8-3.2h-6.1v6.6h6.1C762.6,1128.3,764.4,1127.1,764.4,1124.9z"/>
		<path class="st1" d="M789.6,1132.4l-4.3-7.4c-0.3,0-0.6,0-0.9,0h-5.6v7.3H774v-24.9h10.4c6.4,0,10.1,3.1,10.1,8.6
			c0,3.9-1.7,6.7-5,8.1l5.5,8.3H789.6z M778.8,1120.9h5.6c3.6,0,5.6-1.5,5.6-4.7c0-3.1-2-4.6-5.6-4.6h-5.6V1120.9z"/>
		<path class="st1" d="M816,1127.2h-12.2l-2.2,5.3h-5l10.9-24.9h5l10.8,24.9h-5.1L816,1127.2z M814.3,1123.1l-4.3-10.5l-4.4,10.5
			H814.3z"/>
		<path class="st1" d="M830.9,1107.5l12.9,17.1v-17.1h4.6v24.9h-4.5l-12.8-17v17h-4.7v-24.9H830.9z"/>
		<path class="st1" d="M877.8,1120c0,7.3-5.5,12.5-13.2,12.5h-10.2v-24.9h10.4C872.4,1107.5,877.8,1112.7,877.8,1120z M872.9,1120
			c0-4.9-3.5-8.3-8.2-8.3h-5.5v16.5h5.7C869.5,1128.2,872.9,1124.8,872.9,1120z"/>
		<path class="st1" d="M890.2,1111.6c-2.2,0-3.7,0.8-3.7,2.4c0,5.1,13.4,2.3,13.4,11.3c0,4.7-4.1,7.4-9.5,7.4c-4,0-7.9-1.6-10.5-4
			l2-4c2.6,2.3,5.9,3.7,8.6,3.7c2.7,0,4.3-1,4.3-2.7c0-5.2-13.4-2.2-13.4-11.1c0-4.3,3.7-7.1,9.3-7.1c3.3,0,6.6,1.1,9,2.6l-1.9,4.1
			C895,1112.4,892.1,1111.6,890.2,1111.6z"/>
	</g>
</g>
</svg>
