<?xml version="1.0" encoding="utf-8"?>
<!-- Generator: Adobe Illustrator 23.0.3, SVG Export Plug-In . SVG Version: 6.00 Build 0)  -->
<svg version="1.1" id="Layer_1" xmlns="http://www.w3.org/2000/svg" xmlns:xlink="http://www.w3.org/1999/xlink" x="0px" y="0px"
	 viewBox="0 0 811.9 193.7" style="enable-background:new 0 0 811.9 193.7;" xml:space="preserve">
<style type="text/css">
	.st0{fill:#1E315B;}
	.st1{clip-path:url(#SVGID_2_);}
	.st2{fill:url(#SVGID_3_);}
	.st3{fill-rule:evenodd;clip-rule:evenodd;fill:#1B345E;}
	.st4{fill-rule:evenodd;clip-rule:evenodd;fill:#EE3938;}
	.st5{enable-background:new    ;}
</style>
<title>Chris-Group</title>
<path class="st0" d="M282.4,91.2c-3.2,1.7-6.5,3-10,4c-3.3,0.8-6.8,1.1-10.2,1.1c-9.5,0-17.5-3.1-23.8-9.4s-9.5-14.1-9.5-23.5
	c0-10.3,3.4-18.9,10.1-25.7s15.1-10.2,25.3-10.2c2.9,0,5.9,0.2,8.8,0.7c2.8,0.5,5.6,1.3,8.3,2.3v11c-2.6-1.9-5.5-3.4-8.6-4.4
	c-3.1-1-6.4-1.5-9.7-1.5c-6.4-0.1-12.4,2.6-16.6,7.4c-4.4,5-6.6,11.3-6.6,18.8s2.1,13.8,6.2,18.8c3.7,4.8,9.5,7.6,15.6,7.5
	c3.8,0.1,7.6-0.6,11.2-1.8c3.7-1.5,7.1-3.5,10.1-6.1L282.4,91.2z"/>
<path class="st0" d="M291.3,81.7V45.1c0-2.5-0.1-5-0.4-7.5c-0.3-2-0.8-4.1-1.5-6l6.6-1.3l6.6-1.4c-0.8,2.3-1.3,4.6-1.5,7
	c-0.3,3.5-0.5,7-0.5,10.5V57l7-8.1c2-0.6,4-0.9,6-1c4.2,0,7.4,1.3,9.6,3.9c2.2,2.6,3.3,6.5,3.3,11.5v18.3c0,2.9,0.1,5.8,0.4,8.7
	c0.1,1.7,0.6,3.3,1.3,4.8h-12.9c0.8-1.6,1.3-3.3,1.5-5.1c0.3-2.8,0.5-5.6,0.4-8.4V64.7c0-2.7-0.6-4.7-1.9-6s-3.2-2-5.7-2
	c-2.4,0.2-4.8,0.9-6.9,2l-2.1,0.9v22.2c-0.1,2.8,0.1,5.5,0.4,8.3c0.3,1.8,0.8,3.5,1.5,5.2h-13.2c0.8-1.6,1.3-3.3,1.5-5.1
	C291.2,87.4,291.3,84.5,291.3,81.7"/>
<path class="st0" d="M339.4,81.7V62.6c0-2.2-0.1-4.5-0.4-6.7c-0.4-2.3-0.9-4.6-1.5-6.8h11.2v8.2l7.2-8.1c2-0.7,4-1.1,6.1-1.1
	c1.4,0,2.8,0.3,4.1,0.9l-1.9,10l-0.4-0.3c-1.8-1.3-4-2-6.2-1.9c-2.4,0.2-4.8,0.9-6.9,2l-2.1,0.9v22.2c0,2.8,0.1,5.6,0.5,8.4
	c0.3,1.8,0.8,3.5,1.5,5.2h-13.2c0.8-1.6,1.3-3.3,1.5-5.1C339.3,87.5,339.4,84.6,339.4,81.7"/>
<path class="st0" d="M403.8,62.6L396.2,83c-2.2,6.1-4.8,12-7.9,17.7c-1.9,3.5-4.6,6.7-7.7,9.2h-12.2c3.1-2.4,5.8-5.2,8.2-8.3
	c2.6-3.5,4.9-7.3,6.8-11.3l1.2-2.3l0,0l-10.9-25.4c-1.1-2.6-2.3-5.1-3.7-7.5c-1.3-2.2-2.8-4.2-4.5-6.1h12.7c0.2,1.2,0.6,2.4,1,3.6
	c0.5,1.4,1.3,3.5,2.4,6.1l8,20l0,0l6.7-20c0.6-1.7,1-3.4,1.3-5.2c0.2-1.5,0.2-3.1-0.1-4.6h13.3c-1.3,1.8-2.5,3.6-3.5,5.6
	C406,57.1,404.8,59.8,403.8,62.6"/>
<path class="st0" d="M437.8,58.9c-1.1-1.4-2.5-2.5-4-3.4c-1.4-0.7-2.9-1.1-4.5-1.1c-1.7-0.1-3.3,0.4-4.6,1.5
	c-1.2,0.8-1.8,2.2-1.8,3.6c0,1.4,0.4,2.7,1.2,3.8c1.3,1.6,2.8,3.1,4.5,4.3c3,2.2,5.7,4.8,7.9,7.7c1.5,2.1,2.3,4.6,2.3,7.1
	c0.1,3.8-1.4,7.4-4.2,9.9c-2.8,2.7-6.6,4.1-10.5,3.9c-2,0-3.9-0.1-5.9-0.4c-2-0.4-4-0.9-6-1.5v-11c1.5,1.9,3.3,3.5,5.4,4.8
	c1.7,1,3.6,1.6,5.5,1.6c1.7,0.1,3.3-0.5,4.5-1.6c1.2-1,1.8-2.5,1.8-4c0-1.4-0.5-2.7-1.4-3.8c-1.6-1.8-3.4-3.5-5.4-4.9
	c-2.8-2-5.2-4.4-7.2-7.1c-1.4-2.1-2.1-4.5-2-7c-0.1-3.7,1.6-7.2,4.5-9.5c3.2-2.6,7.3-3.9,11.4-3.8c1.4,0,2.9,0.1,4.3,0.4
	c1.4,0.4,2.8,0.9,4.2,1.5V58.9z"/>
<path class="st0" d="M467,96.3c-5.9,0.2-11.6-2.1-15.7-6.4c-4.1-4.3-6.1-9.8-6.1-16.5c0-7.3,1.8-13.4,5.4-18.2s8.1-7.3,13.5-7.3h0.1
	c5.3,0,9.3,1.8,12.2,5.5s4.3,8.9,4.3,15.6v4.2h-25.6c0.3,3.8,1.6,7.4,3.7,10.5c2.3,3.5,6.2,5.5,10.3,5.4c2,0,3.9-0.3,5.8-0.8
	c1.8-0.5,3.6-1.2,5.2-2.2l-3.7,8.9c-1.6,0.5-3.2,0.8-4.9,1.1C470,96.3,468.5,96.3,467,96.3 M473,66.9c0-4-0.7-7.1-2.2-9.2
	c-1.4-2.1-3.9-3.3-6.4-3.2l0,0c-2.9-0.1-5.6,1.4-7.1,3.9c-1.5,2.6-2.3,5.5-2.4,8.5H473z"/>
<path class="st0" d="M490.8,81.7V45.1c0-2.5-0.1-5-0.4-7.5c-0.3-2-0.8-4.1-1.5-6l6.6-1.3l6.6-1.4c-0.8,2.3-1.3,4.6-1.5,7
	c-0.3,3.5-0.5,7-0.5,10.5v35.2c0,2.8,0.1,5.6,0.5,8.4c0.3,1.8,0.8,3.5,1.5,5.2h-13.2c0.8-1.6,1.3-3.3,1.5-5.1
	C490.7,87.3,490.9,84.5,490.8,81.7"/>
<path class="st0" d="M534,58.9c-1.1-1.4-2.5-2.5-4-3.4c-1.4-0.7-2.9-1.1-4.5-1.1c-1.7-0.1-3.3,0.4-4.6,1.5c-1.2,0.8-1.8,2.2-1.8,3.6
	c0,1.4,0.4,2.7,1.2,3.8c1.3,1.6,2.8,3.1,4.5,4.3c3,2.2,5.7,4.8,7.9,7.7c1.5,2.1,2.3,4.6,2.3,7.1c0.1,3.8-1.4,7.4-4.2,9.9
	c-2.8,2.7-6.6,4.1-10.5,3.9c-2,0-3.9-0.1-5.9-0.4c-2-0.4-4-0.9-6-1.5v-11c1.5,1.9,3.3,3.5,5.4,4.8c1.7,1,3.6,1.6,5.5,1.6
	c1.7,0.1,3.3-0.5,4.5-1.6c1.2-1,1.8-2.5,1.8-4c0-1.4-0.5-2.7-1.4-3.8c-1.6-1.8-3.4-3.5-5.4-4.9c-2.8-2-5.2-4.4-7.2-7.1
	c-1.3-2.1-2-4.5-2-7c-0.1-3.7,1.6-7.2,4.5-9.5c3.2-2.6,7.3-3.9,11.4-3.8c1.4,0,2.9,0.1,4.3,0.4c1.4,0.4,2.8,0.9,4.2,1.5V58.9z"/>
<path class="st0" d="M602.8,96.3c-9.4,0-17.2-3.1-23.5-9.4s-9.4-14.1-9.4-23.5c0-10.3,3.4-18.9,10.3-25.7s15.5-10.2,25.9-10.2
	c2.7,0,5.5,0.2,8.2,0.6c2.9,0.6,5.9,1.4,8.7,2.4v11c-2.9-2-6-3.5-9.3-4.6c-3.2-0.9-6.5-1.4-9.8-1.3c-6.3-0.1-12.3,2.6-16.5,7.3
	c-4.4,4.9-6.6,11.1-6.6,18.5c0,7.7,2,14,6.1,19.1s9.2,7.6,15.3,7.6l0,0c4.7,0,9.4-0.8,13.9-2.3v-4.6c0-3.5-0.1-7-0.5-10.5
	c-0.4-3-1-5.9-1.8-8.8h14.8c-0.8,2.9-1.4,5.8-1.8,8.7c-0.4,3.5-0.6,7.1-0.5,10.6v1.2c0,1.8,0.1,3.5,0.3,5.3c0.2,1.5,0.5,2.9,0.9,4.3
	C619.6,95,611.2,96.4,602.8,96.3L602.8,96.3z"/>
<path class="st0" d="M641.2,81.7V62.6c0-2.2-0.1-4.5-0.4-6.7c-0.4-2.3-0.9-4.6-1.5-6.8h11.2v8.2l7.2-8.1c2-0.7,4-1.1,6.1-1.1
	c1.4,0,2.8,0.3,4.1,0.9L666,59l-0.4-0.3c-1.8-1.3-4-2-6.2-1.9c-2.4,0.2-4.8,0.9-6.9,2l-2.1,0.9v22.2c0,2.8,0.1,5.6,0.5,8.4
	c0.3,1.8,0.8,3.5,1.5,5.2h-13.2c0.8-1.6,1.3-3.3,1.5-5.1C641.1,87.5,641.2,84.6,641.2,81.7"/>
<path class="st0" d="M676.3,89.8c-3.9-4.3-5.8-9.7-5.8-16.3c0-7.3,2.2-13.4,6.5-18.3c4.1-4.7,10-7.4,16.2-7.3
	c5.6-0.1,10.9,2.3,14.6,6.5c3.9,4.3,5.8,9.8,5.8,16.3c0,7.3-2.2,13.4-6.5,18.2c-4,4.7-10,7.4-16.2,7.2
	C685.3,96.4,679.9,94.1,676.3,89.8 M701.8,84.1c1.5-3,2.3-6.4,2.2-9.8c0-5.9-1.4-10.6-4.2-14.2c-2.8-3.5-7-5.6-11.5-5.6
	c-2.6,1.1-4.7,3.2-5.9,5.8c-1.5,3.1-2.3,6.5-2.2,9.9c0,5.9,1.4,10.6,4.3,14.2c2.8,3.5,7,5.6,11.5,5.6
	C698.5,88.7,700.6,86.7,701.8,84.1"/>
<path class="st0" d="M731.6,62.5v17.2c0,2.7,0.6,4.6,1.9,5.9s3.1,1.9,5.6,1.9c2.5-0.1,4.9-0.7,7.2-1.7l1.5-0.6V62.5
	c0-2.3-0.1-4.5-0.4-6.8c-0.4-2.3-0.9-4.6-1.5-6.8h13.2c-0.8,1.6-1.3,3.4-1.5,5.2c-0.3,2.8-0.5,5.5-0.5,8.3v19.2
	c0,2.8,0.1,5.6,0.5,8.4c0.3,1.8,0.8,3.5,1.5,5.2h-10.8v-7.9l-7.3,7.9c-2,0.6-4,0.9-6,1c-4.2,0-7.3-1.1-9.5-3.3s-3.2-5.4-3.2-9.6
	V62.5c0-2.2-0.1-4.5-0.4-6.7c-0.4-2.3-0.9-4.6-1.5-6.8h13.2c-0.8,1.6-1.3,3.4-1.6,5.2C731.7,57,731.5,59.7,731.6,62.5"/>
<path class="st0" d="M771,62.6c0-2.2-0.1-4.5-0.4-6.7c-0.4-2.3-0.9-4.6-1.5-6.8h11.2v8l6.3-7.5l1.2-0.6c1.7-0.7,3.5-1.1,5.3-1
	c4.9,0,8.9,2.3,11.9,6.9s4.6,10.5,4.5,17.8c0,7.5-1.4,13.4-4.3,17.5c-2.7,4.1-7.4,6.4-12.3,6.1c-4.6,0-9.1-1.6-12.6-4.6v4.8
	c0,2.2,0.1,4.5,0.5,6.7c0.4,2.3,0.9,4.6,1.5,6.9h-13.2c0.7-2.2,1.2-4.5,1.5-6.8c0.3-2.3,0.4-4.5,0.4-6.8L771,62.6z M788,89
	c3.4,0.2,6.7-1.4,8.8-4.1c2.1-2.8,3.1-6.7,3.1-11.8s-1-9-3-11.9c-1.7-2.8-4.8-4.5-8.1-4.4c-2,0.1-4,0.5-5.8,1.3
	c-1,0.4-1.9,0.9-2.8,1.4V85C782,87.5,784.9,89,788,89"/>
<g>
	<defs>
		<rect id="SVGID_1_" x="226" y="120.1" width="585.8" height="7"/>
	</defs>
	<clipPath id="SVGID_2_">
		<use xlink:href="#SVGID_1_"  style="overflow:visible;"/>
	</clipPath>
	<g class="st1">
		
			<linearGradient id="SVGID_3_" gradientUnits="userSpaceOnUse" x1="-525.4456" y1="-700.9666" x2="-524.7256" y2="-700.9666" gradientTransform="matrix(812.65 0 0 -812.65 427228.125 -569516.875)">
			<stop  offset="0" style="stop-color:#F5ED6E"/>
			<stop  offset="0.1" style="stop-color:#F5ED6E"/>
			<stop  offset="0.1" style="stop-color:#F4ED6E"/>
			<stop  offset="0.14" style="stop-color:#CCDF67"/>
			<stop  offset="0.18" style="stop-color:#ABD362"/>
			<stop  offset="0.22" style="stop-color:#91CA5E"/>
			<stop  offset="0.26" style="stop-color:#7FC45B"/>
			<stop  offset="0.31" style="stop-color:#74C05A"/>
			<stop  offset="0.36" style="stop-color:#70BF59"/>
			<stop  offset="0.39" style="stop-color:#89A352"/>
			<stop  offset="0.45" style="stop-color:#B47446"/>
			<stop  offset="0.51" style="stop-color:#D3523D"/>
			<stop  offset="0.55" style="stop-color:#E63D38"/>
			<stop  offset="0.58" style="stop-color:#ED3536"/>
			<stop  offset="0.63" style="stop-color:#D63742"/>
			<stop  offset="0.74" style="stop-color:#9A3B5F"/>
			<stop  offset="0.89" style="stop-color:#3B438F"/>
			<stop  offset="0.92" style="stop-color:#2A4497"/>
			<stop  offset="1" style="stop-color:#2A4497"/>
		</linearGradient>
		<rect x="226" y="120.1" class="st2" width="585.8" height="7.1"/>
	</g>
</g>
<path class="st3" d="M39.3,74.6c0-36.4,36.8-66.8,85.4-73.3C118.2,0.4,111.6,0,105,0C47,0,0,33.4,0,74.6s47,74.7,105,74.7
	c6.6,0,13.2-0.5,19.7-1.3C76.1,141.4,39.3,111.1,39.3,74.6"/>
<path class="st4" d="M148.1,119.1c0,36.4-36.7,66.8-85.4,73.3c6.5,0.9,13.1,1.3,19.7,1.3c58.1,0,105.1-33.5,105.1-74.6
	s-47-74.7-105-74.7c-6.6,0-13.2,0.4-19.7,1.3C111.4,52.3,148.1,82.6,148.1,119.1"/>
<g class="st5">
	<path class="st0" d="M249.6,150.1c0,2.8-1.7,5-4.5,5.7c3.4,0.6,5.5,3.1,5.5,6.5c0,4.4-3.7,7.1-9.6,7.1h-11.8v-25.9h11.5
		C246.2,143.7,249.6,146.1,249.6,150.1z M244.5,151c0-2-1.6-3.1-4.1-3.1h-6.3v6.3h6.3C242.9,154.3,244.5,153.1,244.5,151z
		 M245.4,161.8c0-2.1-1.9-3.4-5-3.4h-6.3v6.8h6.3C243.5,165.3,245.4,164,245.4,161.8z"/>
	<path class="st0" d="M271.6,169.6l-4.5-7.7c-0.3,0-0.6,0-0.9,0h-5.8v7.6h-5v-25.9h10.8c6.7,0,10.5,3.2,10.5,8.9
		c0,4.1-1.8,7-5.1,8.4l5.7,8.6H271.6z M260.3,157.6h5.8c3.7,0,5.8-1.6,5.8-4.8c0-3.2-2.1-4.7-5.8-4.7h-5.8V157.6z"/>
	<path class="st0" d="M301.1,143.7v4.3h-14v6.4h12.6v4.3h-12.6v6.5h14.5v4.3h-19.4v-25.9H301.1z"/>
	<path class="st0" d="M323.4,164.1h-12.7l-2.3,5.5h-5.1l11.4-25.9h5.1l11.2,25.9h-5.3L323.4,164.1z M321.7,159.8l-4.5-10.9
		l-4.6,10.9H321.7z"/>
	<path class="st0" d="M352.5,143.7v4.4h-8.1v21.5h-5v-21.5h-8.1v-4.4H352.5z"/>
	<path class="st0" d="M360.9,143.7v11.1h12.9v-11.1h5v25.9h-5v-10.5h-12.9v10.5h-5v-25.9H360.9z"/>
	<path class="st0" d="M390.2,143.7v25.9h-5v-25.9H390.2z"/>
	<path class="st0" d="M401.2,143.7l13.4,17.7v-17.7h4.8v25.9h-4.7l-13.3-17.7v17.7h-4.8v-25.9H401.2z"/>
	<path class="st0" d="M443.3,156.7h4.3v9.7c-2.7,2-6.7,3.4-10.2,3.4c-7.7,0-13.7-5.7-13.7-13.2s6.1-13.1,14-13.1
		c3.7,0,7.5,1.4,10.1,3.7l-2.8,3.6c-2-1.8-4.7-2.9-7.3-2.9c-5,0-8.9,3.8-8.9,8.7c0,4.9,4,8.7,9,8.7c1.8,0,3.8-0.6,5.6-1.6V156.7z"/>
	<path class="st0" d="M469.4,143.7v21.4h11.2v4.5h-16.1v-25.9H469.4z"/>
	<path class="st0" d="M489.5,143.7v25.9h-5v-25.9H489.5z"/>
	<path class="st0" d="M513.7,143.7l0,4.3h-12.9v7h11.7v4.3h-11.7v10.2h-5v-25.9H513.7z"/>
	<path class="st0" d="M536.4,143.7v4.3h-14v6.4h12.6v4.3h-12.6v6.5h14.5v4.3h-19.4v-25.9H536.4z"/>
	<path class="st0" d="M557.9,143.7v25.9h-5v-25.9H557.9z"/>
	<path class="st0" d="M569,143.7l13.4,17.7v-17.7h4.8v25.9h-4.7l-13.3-17.7v17.7h-4.8v-25.9H569z"/>
	<path class="st0" d="M611.7,143.7v4.4h-8.1v21.5h-5v-21.5h-8.1v-4.4H611.7z"/>
	<path class="st0" d="M640.8,156.6c0,7.4-6,13.2-13.8,13.2s-13.8-5.7-13.8-13.2c0-7.5,6-13.1,13.8-13.1S640.8,149.2,640.8,156.6z
		 M618.3,156.6c0,4.9,4,8.7,8.8,8.7c4.7,0,8.7-3.8,8.7-8.7c0-4.9-3.9-8.7-8.7-8.7C622.3,148,618.3,151.7,618.3,156.6z"/>
	<path class="st0" d="M676.7,150.1c0,2.8-1.7,5-4.5,5.7c3.4,0.6,5.5,3.1,5.5,6.5c0,4.4-3.7,7.1-9.6,7.1h-11.8v-25.9h11.5
		C673.3,143.7,676.7,146.1,676.7,150.1z M671.6,151c0-2-1.6-3.1-4.1-3.1h-6.3v6.3h6.3C670.1,154.3,671.6,153.1,671.6,151z
		 M672.6,161.8c0-2.1-1.9-3.4-5-3.4h-6.3v6.8h6.3C670.7,165.3,672.6,164,672.6,161.8z"/>
	<path class="st0" d="M698.7,169.6l-4.5-7.7c-0.3,0-0.6,0-0.9,0h-5.8v7.6h-5v-25.9h10.8c6.7,0,10.5,3.2,10.5,8.9
		c0,4.1-1.8,7-5.1,8.4l5.7,8.6H698.7z M687.5,157.6h5.8c3.7,0,5.8-1.6,5.8-4.8c0-3.2-2.1-4.7-5.8-4.7h-5.8V157.6z"/>
	<path class="st0" d="M726.1,164.1h-12.7l-2.3,5.5h-5.1l11.4-25.9h5.1l11.2,25.9h-5.3L726.1,164.1z M724.4,159.8l-4.5-10.9
		l-4.6,10.9H724.4z"/>
	<path class="st0" d="M741.6,143.7l13.4,17.7v-17.7h4.8v25.9h-4.7l-13.3-17.7v17.7h-4.8v-25.9H741.6z"/>
	<path class="st0" d="M790.4,156.6c0,7.5-5.7,13-13.7,13h-10.6v-25.9h10.8C784.8,143.7,790.4,149,790.4,156.6z M785.3,156.7
		c0-5.1-3.7-8.6-8.5-8.6h-5.7v17.2h5.9C781.8,165.2,785.3,161.7,785.3,156.7z"/>
	<path class="st0" d="M803.3,148c-2.3,0-3.8,0.9-3.8,2.4c0,5.3,13.9,2.4,13.9,11.7c0,4.8-4.2,7.7-9.9,7.7c-4.1,0-8.2-1.7-11-4.1
		l2.1-4.2c2.7,2.4,6.2,3.8,9,3.8s4.4-1,4.4-2.8c0-5.4-13.9-2.3-13.9-11.5c0-4.5,3.9-7.4,9.7-7.4c3.4,0,6.9,1.1,9.4,2.7l-2,4.3
		C808.3,148.8,805.3,148,803.3,148z"/>
</g>
</svg>
