<svg id="Layer_1" data-name="Layer 1" xmlns="http://www.w3.org/2000/svg" xmlns:xlink="http://www.w3.org/1999/xlink" viewBox="0 0 811.91 193.69">
  <defs>
    <style>
      .cls-1 {
        fill: none;
      }

      .cls-2 {
        fill: #1e315b;
      }

      .cls-3 {
        clip-path: url(#clip-path);
      }

      .cls-4 {
        fill: url(#linear-gradient);
      }

      .cls-5 {
        fill: #1b345e;
      }

      .cls-5, .cls-6 {
        fill-rule: evenodd;
      }

      .cls-6 {
        fill: #ee3938;
      }
    </style>
    <clipPath id="clip-path" transform="translate(-79.93 -396.9)">
      <rect class="cls-1" x="306" y="516.97" width="585.84" height="7.05"/>
    </clipPath>
    <linearGradient id="linear-gradient" x1="-246.79" y1="1546.56" x2="-246.07" y2="1546.56" gradientTransform="translate(200777.89 -1256688.11) scale(812.65)" gradientUnits="userSpaceOnUse">
      <stop offset="0" stop-color="#f5ed6e"/>
      <stop offset="0.1" stop-color="#f5ed6e"/>
      <stop offset="0.1" stop-color="#f4ed6e"/>
      <stop offset="0.14" stop-color="#ccdf67"/>
      <stop offset="0.18" stop-color="#abd362"/>
      <stop offset="0.22" stop-color="#91ca5e"/>
      <stop offset="0.26" stop-color="#7fc45b"/>
      <stop offset="0.31" stop-color="#74c05a"/>
      <stop offset="0.36" stop-color="#70bf59"/>
      <stop offset="0.39" stop-color="#89a352"/>
      <stop offset="0.45" stop-color="#b47446"/>
      <stop offset="0.51" stop-color="#d3523d"/>
      <stop offset="0.55" stop-color="#e63d38"/>
      <stop offset="0.58" stop-color="#ed3536"/>
      <stop offset="0.63" stop-color="#d63742"/>
      <stop offset="0.74" stop-color="#9a3b5f"/>
      <stop offset="0.89" stop-color="#3b438f"/>
      <stop offset="0.92" stop-color="#2a4497"/>
      <stop offset="1" stop-color="#2a4497"/>
    </linearGradient>
  </defs>
  <title>Chris-Group</title>
  <path class="cls-2" d="M362.46,488.13a48.46,48.46,0,0,1-10,4,42.81,42.81,0,0,1-10.25,1.08q-14.31,0-23.81-9.36t-9.51-23.49q0-15.45,10.08-25.66t25.28-10.21a51.33,51.33,0,0,1,8.83.7,45,45,0,0,1,8.27,2.32v11a29.56,29.56,0,0,0-8.57-4.43,31.06,31.06,0,0,0-9.68-1.53A21.21,21.21,0,0,0,326.53,440q-6.61,7.5-6.61,18.77t6.23,18.81a19.47,19.47,0,0,0,15.59,7.49,31.63,31.63,0,0,0,11.17-1.84A35.79,35.79,0,0,0,363,477.12Z" transform="translate(-79.93 -396.9)"/>
  <path class="cls-2" d="M371.33,478.64V442a55.33,55.33,0,0,0-.42-7.49,30.77,30.77,0,0,0-1.53-6l6.59-1.32,6.6-1.36a31.79,31.79,0,0,0-1.55,7,96.33,96.33,0,0,0-.45,10.55V454l7-8.09a23.51,23.51,0,0,1,6-1q6.3,0,9.57,3.94t3.28,11.47v18.34a78.29,78.29,0,0,0,.36,8.74,14.25,14.25,0,0,0,1.3,4.79H395.21a16,16,0,0,0,1.53-5.11,64.16,64.16,0,0,0,.42-8.42V461.58q0-4.05-1.87-6t-5.74-2a17.76,17.76,0,0,0-6.9,2l-2.08.94v22.17A59.16,59.16,0,0,0,381,487a17,17,0,0,0,1.55,5.17H369.38a16,16,0,0,0,1.53-5.11,64.16,64.16,0,0,0,.42-8.42" transform="translate(-79.93 -396.9)"/>
  <path class="cls-2" d="M419.4,478.64V459.45a47,47,0,0,0-.43-6.73,49.84,49.84,0,0,0-1.53-6.8h11.19v8.21l7.2-8.09a18.13,18.13,0,0,1,6.12-1.15,8.49,8.49,0,0,1,4.13.94l-1.87,10-.43-.3a10.09,10.09,0,0,0-6.17-1.92,17.72,17.72,0,0,0-6.89,2l-2.09.94v22.17a59.16,59.16,0,0,0,.45,8.36,17.54,17.54,0,0,0,1.55,5.17H417.44a15.76,15.76,0,0,0,1.53-5.11,62.13,62.13,0,0,0,.43-8.42" transform="translate(-79.93 -396.9)"/>
  <path class="cls-2" d="M483.85,459.45l-7.62,20.42a122.49,122.49,0,0,1-7.91,17.66,30.83,30.83,0,0,1-7.71,9.19H448.38a47.85,47.85,0,0,0,8.18-8.3,67.84,67.84,0,0,0,6.77-11.33l1.23-2.3v0l-10.93-25.36a59.15,59.15,0,0,0-3.72-7.45,47.46,47.46,0,0,0-4.45-6.08h12.68a24.79,24.79,0,0,0,1,3.61c.48,1.42,1.28,3.46,2.38,6.13l8,20h0l6.68-20a28.18,28.18,0,0,0,1.3-5.17,17.16,17.16,0,0,0-.07-4.57h13.33a38.65,38.65,0,0,0-3.53,5.61c-1,2-2.12,4.63-3.36,7.92" transform="translate(-79.93 -396.9)"/>
  <path class="cls-2" d="M517.86,455.79a13.68,13.68,0,0,0-4-3.36,9.69,9.69,0,0,0-4.55-1.07,7.14,7.14,0,0,0-4.59,1.45,4.42,4.42,0,0,0-1.82,3.62,6.39,6.39,0,0,0,1.23,3.83,22.74,22.74,0,0,0,4.55,4.29,38.52,38.52,0,0,1,7.94,7.71,12.22,12.22,0,0,1,2.26,7.1,13.08,13.08,0,0,1-4.15,9.9,14.63,14.63,0,0,1-10.46,3.93,36.94,36.94,0,0,1-5.9-.4,44.39,44.39,0,0,1-6-1.55v-11a21,21,0,0,0,5.36,4.81,10.74,10.74,0,0,0,5.5,1.58,6.57,6.57,0,0,0,4.52-1.6,5.15,5.15,0,0,0,1.78-4,6.08,6.08,0,0,0-1.44-3.79,33.41,33.41,0,0,0-5.44-4.89,32.1,32.1,0,0,1-7.19-7.15,12.57,12.57,0,0,1-2.05-7,11.81,11.81,0,0,1,4.53-9.47,17.22,17.22,0,0,1,11.38-3.77,19.52,19.52,0,0,1,4.34.43,22.2,22.2,0,0,1,4.21,1.53Z" transform="translate(-79.93 -396.9)"/>
  <path class="cls-2" d="M547,493.19a20.76,20.76,0,0,1-15.7-6.4q-6.14-6.41-6.13-16.45,0-10.93,5.38-18.19t13.47-7.26h.09q7.9,0,12.19,5.49T560.62,466v4.17H535a21.63,21.63,0,0,0,3.66,10.47A12,12,0,0,0,549,486a21.84,21.84,0,0,0,5.79-.78,19.55,19.55,0,0,0,5.15-2.19l-3.68,8.88a42.07,42.07,0,0,1-4.87,1.07,32.05,32.05,0,0,1-4.32.25m6-29.4q0-6-2.24-9.24a7.28,7.28,0,0,0-6.4-3.19h0a8,8,0,0,0-7.11,3.92,18.66,18.66,0,0,0-2.43,8.51Z" transform="translate(-79.93 -396.9)"/>
  <path class="cls-2" d="M570.85,478.64V442a53.54,53.54,0,0,0-.43-7.49,30.08,30.08,0,0,0-1.53-6l6.6-1.32,6.59-1.36a33,33,0,0,0-1.55,7,96.33,96.33,0,0,0-.45,10.55v35.24a59.16,59.16,0,0,0,.45,8.36,17.54,17.54,0,0,0,1.55,5.17H568.89a15.76,15.76,0,0,0,1.53-5.11,62.13,62.13,0,0,0,.43-8.42" transform="translate(-79.93 -396.9)"/>
  <path class="cls-2" d="M614,455.79a13.68,13.68,0,0,0-4-3.36,9.69,9.69,0,0,0-4.55-1.07,7.14,7.14,0,0,0-4.59,1.45,4.43,4.43,0,0,0-1.83,3.62,6.4,6.4,0,0,0,1.24,3.83,22.74,22.74,0,0,0,4.55,4.29,38.52,38.52,0,0,1,7.94,7.71,12.22,12.22,0,0,1,2.26,7.1,13.08,13.08,0,0,1-4.15,9.9,14.63,14.63,0,0,1-10.46,3.93,36.85,36.85,0,0,1-5.9-.4,44.39,44.39,0,0,1-6-1.55v-11a21,21,0,0,0,5.36,4.81,10.74,10.74,0,0,0,5.5,1.58,6.53,6.53,0,0,0,4.51-1.6,5.12,5.12,0,0,0,1.79-4,6.08,6.08,0,0,0-1.44-3.79,33.41,33.41,0,0,0-5.44-4.89,32.1,32.1,0,0,1-7.19-7.15,12.57,12.57,0,0,1-2-7,11.81,11.81,0,0,1,4.53-9.47,17.22,17.22,0,0,1,11.38-3.77,19.52,19.52,0,0,1,4.34.43,22.2,22.2,0,0,1,4.21,1.53Z" transform="translate(-79.93 -396.9)"/>
  <path class="cls-2" d="M682.87,493.19q-14.11,0-23.51-9.36T650,460.34q0-15.45,10.34-25.66t25.92-10.21a48.9,48.9,0,0,1,8.23.61,61.47,61.47,0,0,1,8.66,2.41v11a37.53,37.53,0,0,0-9.26-4.64,33,33,0,0,0-9.81-1.32,21.25,21.25,0,0,0-16.5,7.34Q661,447.24,661,458.34q0,11.49,6.12,19.13t15.32,7.64h.05a41.08,41.08,0,0,0,13.91-2.34v-4.64a90.62,90.62,0,0,0-.51-10.51,56.42,56.42,0,0,0-1.82-8.81h14.78a56.34,56.34,0,0,0-1.79,8.7,88.9,88.9,0,0,0-.52,10.62v1.23a45.84,45.84,0,0,0,.26,5.32,27.89,27.89,0,0,0,.89,4.34,69.12,69.12,0,0,1-24.85,4.17Z" transform="translate(-79.93 -396.9)"/>
  <path class="cls-2" d="M721.19,478.64V459.45a48.61,48.61,0,0,0-.42-6.73,51.39,51.39,0,0,0-1.53-6.8h11.19v8.21l7.19-8.09a18.23,18.23,0,0,1,6.13-1.15,8.47,8.47,0,0,1,4.12.94l-1.87,10-.42-.3a10.09,10.09,0,0,0-6.17-1.92,17.76,17.76,0,0,0-6.9,2l-2.08.94v22.17a59.16,59.16,0,0,0,.45,8.36,17,17,0,0,0,1.55,5.17H719.24a16,16,0,0,0,1.53-5.11,64.16,64.16,0,0,0,.42-8.42" transform="translate(-79.93 -396.9)"/>
  <path class="cls-2" d="M756.32,486.7q-5.82-6.48-5.83-16.27,0-11,6.49-18.26a20.87,20.87,0,0,1,16.24-7.28,18.72,18.72,0,0,1,14.61,6.52q5.82,6.49,5.81,16.29,0,11-6.47,18.24a20.87,20.87,0,0,1-16.25,7.25,18.79,18.79,0,0,1-14.6-6.49M781.83,481a20.9,20.9,0,0,0,2.19-9.81q0-8.85-4.25-14.19a14.68,14.68,0,0,0-11.53-5.6,11.7,11.7,0,0,0-5.94,5.77,21.15,21.15,0,0,0-2.19,9.85q0,8.85,4.26,14.17a14.67,14.67,0,0,0,11.53,5.57,11.94,11.94,0,0,0,5.93-5.76" transform="translate(-79.93 -396.9)"/>
  <path class="cls-2" d="M811.66,459.43v17.22q0,4,1.86,5.93t5.63,1.93a20.27,20.27,0,0,0,7.24-1.66l1.53-.59V459.43a47,47,0,0,0-.43-6.75,48.13,48.13,0,0,0-1.53-6.76h13.19a17.5,17.5,0,0,0-1.55,5.19,59.14,59.14,0,0,0-.45,8.34v19.19a59.16,59.16,0,0,0,.45,8.36,17.54,17.54,0,0,0,1.55,5.17H828.39V484.3l-7.28,7.88a26.74,26.74,0,0,1-6,1q-6.25,0-9.48-3.31t-3.24-9.65V459.44a48.36,48.36,0,0,0-.42-6.72,51.22,51.22,0,0,0-1.54-6.8h13.19a17.82,17.82,0,0,0-1.57,5.18,62.92,62.92,0,0,0-.43,8.33" transform="translate(-79.93 -396.9)"/>
  <path class="cls-2" d="M851.05,459.45a47,47,0,0,0-.43-6.73,49.84,49.84,0,0,0-1.53-6.8h11.19v8l6.3-7.45,1.15-.59a12.49,12.49,0,0,1,5.28-1q7.35,0,11.91,6.85t4.55,17.84q0,11.31-4.32,17.46t-12.31,6.15a18.86,18.86,0,0,1-12.56-4.64v4.77a45,45,0,0,0,.45,6.68,54.77,54.77,0,0,0,1.55,6.85H849.09a48.44,48.44,0,0,0,1.53-6.76,47.4,47.4,0,0,0,.43-6.77Zm17,26.42a10.35,10.35,0,0,0,8.81-4.15q3.11-4.14,3.1-11.81c0-5-1-9-3-11.93a9.33,9.33,0,0,0-8.1-4.41,15.8,15.8,0,0,0-5.79,1.32,25.75,25.75,0,0,0-2.81,1.37v25.48a9.46,9.46,0,0,0,7.79,4.13" transform="translate(-79.93 -396.9)"/>
  <g class="cls-3">
    <rect class="cls-4" x="226.06" y="120.07" width="585.84" height="7.05"/>
  </g>
  <path class="cls-5" d="M119.32,471.54c0-36.44,36.76-66.8,85.37-73.3A145.85,145.85,0,0,0,185,396.9c-58,0-105,33.41-105,74.64S127,546.21,185,546.21a154.49,154.49,0,0,0,19.72-1.32c-48.61-6.57-85.37-36.92-85.37-73.35" transform="translate(-79.93 -396.9)"/>
  <path class="cls-6" d="M228.17,516c0,36.42-36.73,66.76-85.37,73.33a147.35,147.35,0,0,0,19.7,1.31c58.05,0,105.11-33.45,105.11-74.64s-47.06-74.7-105.11-74.7a147.35,147.35,0,0,0-19.7,1.31c48.64,6.55,85.37,36.9,85.37,73.39" transform="translate(-79.93 -396.9)"/>
  <path class="cls-2" d="M313.06,573V545h13.77c3.23,0,5.43.51,6.6,1.55s1.75,3,1.75,5.83q0,5.19-4.12,6.12v.1q4.8.74,4.8,6.67,0,4.29-1.85,6T327.57,573Zm5.32-16.25h6.5c2.11,0,3.45-.23,4-.69s.88-1.54.88-3.22c0-2.25-1.28-3.37-3.82-3.37h-7.59Zm0,11.78h5.83l1.86,0c1.79,0,3-.25,3.54-.76s.85-1.57.85-3.2-.29-2.76-.89-3.2-2.06-.66-4.4-.66h-6.79Z" transform="translate(-79.93 -396.9)"/>
  <path class="cls-2" d="M341.27,573V545h13.81q5.15,0,7.1,1.78t1.95,6.47q0,4.25-1,5.8t-4,2.16v.18q4.66.29,4.66,5.44V573h-5.31v-5.11c0-2.88-1.43-4.32-4.27-4.32h-7.65V573Zm5.32-13.91h7.63c1.82,0,3-.32,3.62-1s.89-2,.89-3.91-.26-3.29-.77-3.87-1.64-.87-3.37-.87h-8Z" transform="translate(-79.93 -396.9)"/>
  <polygon class="cls-2" points="294.73 152.57 294.73 159.79 307.87 159.79 307.87 163.71 294.73 163.71 294.73 171.63 308.71 171.63 308.71 176.1 289.42 176.1 289.42 148.1 308.58 148.1 308.58 152.57 294.73 152.57"/>
  <path class="cls-2" d="M411.1,567.63H399L397.27,573h-5.62L401,545h8l9.46,28h-5.52Zm-1.23-3.92L405,549.12l-4.76,14.59Z" transform="translate(-79.93 -396.9)"/>
  <polygon class="cls-2" points="353.61 152.86 353.61 176.1 348.3 176.1 348.3 152.86 340.21 152.86 340.21 148.1 361.98 148.1 361.98 152.86 353.61 152.86"/>
  <polygon class="cls-2" points="389.98 148.1 389.98 176.1 384.67 176.1 384.67 164 371.54 164 371.54 176.1 366.22 176.1 366.22 148.1 371.54 148.1 371.54 159.53 384.67 159.53 384.67 148.1 389.98 148.1"/>
  <rect class="cls-2" x="396.46" y="148.1" width="5.31" height="28.01"/>
  <path class="cls-2" d="M514.22,545v28h-9l-8-15.36c-.4-.77-1-2.11-1.87-4l-.91-2-.88-2h-.2l.08,1.85.06,1.83,0,3.67V573h-5.31V545h9l7.28,14.2c.64,1.25,1.39,2.78,2.24,4.57l1.06,2.28,1.07,2.3h.18l-.06-1.81-.06-1.8,0-3.62V545Z" transform="translate(-79.93 -396.9)"/>
  <path class="cls-2" d="M531.72,558.11h12.33l.08,5.56q0,6.08-2.28,7.82c-1.53,1.18-4.93,1.76-10.21,1.76q-7.26,0-9.62-2.34c-1.58-1.56-2.36-4.74-2.36-9.54q0-9.2.94-11.61a6.73,6.73,0,0,1,3.55-4q2.39-1,8.08-1,7.47,0,9.65,1.59t2.17,7h-5.37q-.15-2.75-1.2-3.42t-5.31-.66q-4.62,0-5.86,1.15c-.82.76-1.24,2.56-1.24,5.39l0,2.81,0,3.59q0,4.17,1.23,5.31c.82.76,2.73,1.14,5.71,1.14s4.74-.33,5.53-1,1.18-2.16,1.18-4.55l0-1.15h-7Z" transform="translate(-79.93 -396.9)"/>
  <polygon class="cls-2" points="486.86 148.1 486.86 171.34 499.99 171.34 499.99 176.1 481.55 176.1 481.55 148.1 486.86 148.1"/>
  <rect class="cls-2" x="504.23" y="148.1" width="5.31" height="28.01"/>
  <polygon class="cls-2" points="521.38 152.57 521.38 160.12 533.94 160.12 533.94 164.59 521.38 164.59 521.38 176.1 516.07 176.1 516.07 148.1 534.62 148.1 534.62 152.57 521.38 152.57"/>
  <polygon class="cls-2" points="544.17 152.57 544.17 159.79 557.3 159.79 557.3 163.71 544.17 163.71 544.17 171.63 558.14 171.63 558.14 176.1 538.86 176.1 538.86 148.1 558.02 148.1 558.02 152.57 544.17 152.57"/>
  <polygon class="cls-2" points="586.88 152.86 586.88 176.1 581.57 176.1 581.57 152.86 573.48 152.86 573.48 148.1 595.25 148.1 595.25 152.86 586.88 152.86"/>
  <path class="cls-2" d="M691.06,544.75q7.63,0,9.83,2.54t2.19,11.33q0,9.63-2.2,12.13t-10.68,2.5q-7.63,0-9.87-2.47t-2.24-10.89q0-10,2.2-12.57t10.77-2.57m-.41,4.56q-5.35,0-6.26,1.37t-.9,9.52q0,6,1,7.26c.71.82,2.79,1.24,6.23,1.24s5.27-.47,5.93-1.39,1-3.72,1-8.4-.32-7.47-.94-8.32-2.65-1.28-6.1-1.28" transform="translate(-79.93 -396.9)"/>
  <path class="cls-2" d="M720.29,573V545h13.77c3.22,0,5.42.51,6.59,1.55s1.76,3,1.76,5.83q0,5.19-4.13,6.12v.1q4.8.74,4.8,6.67,0,4.29-1.84,6c-1.24,1.15-3.38,1.72-6.45,1.72Zm5.31-16.25h6.51c2.1,0,3.45-.23,4-.69s.87-1.54.87-3.22q0-3.37-3.82-3.37H725.6Zm0,11.78h5.83l1.87,0c1.79,0,3-.25,3.53-.76s.86-1.57.86-3.2-.3-2.76-.9-3.2-2.06-.66-4.4-.66H725.6Z" transform="translate(-79.93 -396.9)"/>
  <path class="cls-2" d="M748.49,573V545H762.3q5.15,0,7.1,1.78t2,6.47q0,4.25-1,5.8t-4,2.16v.18q4.67.29,4.66,5.44V573h-5.31v-5.11q0-4.32-4.27-4.32h-7.65V573Zm5.32-13.91h7.63c1.82,0,3-.32,3.62-1s.89-2,.89-3.91-.25-3.29-.77-3.87-1.63-.87-3.37-.87h-8Z" transform="translate(-79.93 -396.9)"/>
  <path class="cls-2" d="M794.08,567.63H782L780.25,573h-5.62l9.31-28h8l9.46,28h-5.52Zm-1.23-3.92L788,549.12l-4.75,14.59Z" transform="translate(-79.93 -396.9)"/>
  <path class="cls-2" d="M831.35,545v28h-9l-8-15.36c-.39-.77-1-2.11-1.86-4l-.91-2-.88-2h-.2l.08,1.85.06,1.83,0,3.67V573h-5.31V545h9l7.28,14.2c.64,1.25,1.39,2.78,2.24,4.57l1.06,2.28,1.07,2.3h.18l-.06-1.81-.06-1.8,0-3.62V545Z" transform="translate(-79.93 -396.9)"/>
  <path class="cls-2" d="M837.83,573V545H851.6q5.86,0,8.22,2.56c1.56,1.71,2.35,4.71,2.35,9q0,10.49-1.89,13.47t-8.52,3Zm5.32-4.47h7.57c2.54,0,4.19-.58,4.93-1.75s1.12-3.75,1.12-7.75-.34-6.76-1-7.88-2.24-1.68-4.72-1.68h-7.89Z" transform="translate(-79.93 -396.9)"/>
  <path class="cls-2" d="M888.38,553.16h-5.19a5.22,5.22,0,0,1,0-.57q-.18-2.36-1-3c-.57-.4-1.93-.6-4.06-.6-2.52,0-4.16.23-4.93.7s-1.16,1.44-1.16,2.93c0,1.76.31,2.83.94,3.18s2.71.63,6.24.82q6.25.35,8.09,1.79t1.84,6q0,5.58-2.16,7.21t-9.5,1.63q-6.6,0-8.77-1.6t-2.16-6.48l0-1h5.17l0,.6c0,2,.34,3.15,1,3.59s2.55.65,5.6.65c2.38,0,3.89-.25,4.55-.76s1-1.67,1-3.51a3.59,3.59,0,0,0-.75-2.69,5.69,5.69,0,0,0-3.23-.81l-2.94-.19q-6.64-.39-8.49-1.84c-1.23-1-1.85-3.06-1.85-6.26s.74-5.45,2.23-6.54,4.45-1.63,8.89-1.63q6.32,0,8.52,1.5t2.19,5.85Z" transform="translate(-79.93 -396.9)"/>
</svg>
