<svg id="Layer_1" data-name="Layer 1" xmlns="http://www.w3.org/2000/svg" xmlns:xlink="http://www.w3.org/1999/xlink" viewBox="0 0 902.7 1055.65">
  <defs>
    <style>
      .cls-1 {
        fill: none;
      }

      .cls-2 {
        fill: #fff;
      }

      .cls-3 {
        fill: #1e315b;
      }

      .cls-4 {
        clip-path: url(#clip-path);
      }

      .cls-5 {
        fill: url(#linear-gradient);
      }

      .cls-6 {
        fill: #1b345e;
      }

      .cls-6, .cls-7 {
        fill-rule: evenodd;
      }

      .cls-7 {
        fill: #ee3938;
      }
    </style>
    <clipPath id="clip-path">
      <rect class="cls-1" x="267.3" y="947.35" width="585.8" height="7"/>
    </clipPath>
    <linearGradient id="linear-gradient" x1="-220.59" y1="-93.81" x2="-219.87" y2="-93.81" gradientTransform="matrix(812.65, 0, 0, -812.65, 179526.84, -75287.29)" gradientUnits="userSpaceOnUse">
      <stop offset="0" stop-color="#f5ed6e"/>
      <stop offset="0.1" stop-color="#f5ed6e"/>
      <stop offset="0.1" stop-color="#f4ed6e"/>
      <stop offset="0.14" stop-color="#ccdf67"/>
      <stop offset="0.18" stop-color="#abd362"/>
      <stop offset="0.22" stop-color="#91ca5e"/>
      <stop offset="0.26" stop-color="#7fc45b"/>
      <stop offset="0.31" stop-color="#74c05a"/>
      <stop offset="0.36" stop-color="#70bf59"/>
      <stop offset="0.39" stop-color="#89a352"/>
      <stop offset="0.45" stop-color="#b47446"/>
      <stop offset="0.51" stop-color="#d3523d"/>
      <stop offset="0.55" stop-color="#e63d38"/>
      <stop offset="0.58" stop-color="#ed3536"/>
      <stop offset="0.63" stop-color="#d63742"/>
      <stop offset="0.74" stop-color="#9a3b5f"/>
      <stop offset="0.89" stop-color="#3b438f"/>
      <stop offset="0.92" stop-color="#2a4497"/>
      <stop offset="1" stop-color="#2a4497"/>
    </linearGradient>
  </defs>
  <title>group-logo-white-long</title>
  <path class="cls-2" d="M0,0H902.7a0,0,0,0,1,0,0V948.61a107,107,0,0,1-107,107H107a107,107,0,0,1-107-107V0A0,0,0,0,1,0,0Z"/>
  <g>
    <path class="cls-3" d="M323.7,918.45a50.93,50.93,0,0,1-10,4,44.26,44.26,0,0,1-10.2,1.1c-9.5,0-17.5-3.1-23.8-9.4s-9.5-14.1-9.5-23.5c0-10.3,3.4-18.9,10.1-25.7s15.1-10.2,25.3-10.2a51.39,51.39,0,0,1,8.8.7,48.72,48.72,0,0,1,8.3,2.3v11a30.42,30.42,0,0,0-8.6-4.4,31.71,31.71,0,0,0-9.7-1.5,21.51,21.51,0,0,0-16.6,7.4c-4.4,5-6.6,11.3-6.6,18.8s2.1,13.8,6.2,18.8a19.33,19.33,0,0,0,15.6,7.5,32.86,32.86,0,0,0,11.2-1.8,35.85,35.85,0,0,0,10.1-6.1Z"/>
    <path class="cls-3" d="M332.6,909v-36.6a62.82,62.82,0,0,0-.4-7.5,31,31,0,0,0-1.5-6l6.6-1.3,6.6-1.4a28.23,28.23,0,0,0-1.5,7c-.3,3.5-.5,7-.5,10.5v10.6l7-8.1a24.3,24.3,0,0,1,6-1q6.3,0,9.6,3.9c2.2,2.6,3.3,6.5,3.3,11.5v18.3a84.42,84.42,0,0,0,.4,8.7,13.17,13.17,0,0,0,1.3,4.8H356.6a15,15,0,0,0,1.5-5.1,59.07,59.07,0,0,0,.4-8.4v-17.1c0-2.7-.6-4.7-1.9-6s-3.2-2-5.7-2a18.33,18.33,0,0,0-6.9,2l-2.1.9v22.2a57,57,0,0,0,.4,8.3,19.31,19.31,0,0,0,1.5,5.2H330.6a15,15,0,0,0,1.5-5.1,56.1,56.1,0,0,0,.5-8.3"/>
    <path class="cls-3" d="M380.7,909v-19.2a49.22,49.22,0,0,0-.4-6.7c-.4-2.3-.9-4.6-1.5-6.8H390v8.2l7.2-8.1a18.26,18.26,0,0,1,6.1-1.1,9.46,9.46,0,0,1,4.1.9l-1.9,10-.5-.3a9.9,9.9,0,0,0-6.2-1.9,18.33,18.33,0,0,0-6.9,2l-2.1.9v22.2a59.19,59.19,0,0,0,.5,8.4,19.31,19.31,0,0,0,1.5,5.2H378.6a15,15,0,0,0,1.5-5.1,49.76,49.76,0,0,0,.6-8.6"/>
    <path class="cls-3" d="M445.1,889.75l-7.6,20.4a127.34,127.34,0,0,1-7.9,17.7,31,31,0,0,1-7.7,9.2H409.7a46,46,0,0,0,8.2-8.3,67.76,67.76,0,0,0,6.8-11.3l1.2-2.3h0L415,889.75a65.27,65.27,0,0,0-3.7-7.5,43.55,43.55,0,0,0-4.5-6.1h12.7a24.18,24.18,0,0,0,1,3.6c.5,1.4,1.3,3.5,2.4,6.1l8,20h0l6.7-20a30.43,30.43,0,0,0,1.3-5.2,14.21,14.21,0,0,0-.1-4.6H452a40.4,40.4,0,0,0-3.5,5.6c-1,2.2-2.1,4.8-3.4,8.1"/>
    <path class="cls-3" d="M479.1,886.15a14.47,14.47,0,0,0-4-3.4,10.3,10.3,0,0,0-4.5-1.1,6.41,6.41,0,0,0-4.6,1.5,4.28,4.28,0,0,0-1.8,3.6,6.36,6.36,0,0,0,1.2,3.8,22.94,22.94,0,0,0,4.5,4.3,38.48,38.48,0,0,1,7.9,7.7,12.27,12.27,0,0,1,2.3,7.1,13,13,0,0,1-4.2,9.9,14.47,14.47,0,0,1-10.5,3.9,39,39,0,0,1-5.9-.4q-3-.6-6-1.5v-11a20.7,20.7,0,0,0,5.4,4.8,11,11,0,0,0,5.5,1.6,6.1,6.1,0,0,0,4.5-1.6,5.18,5.18,0,0,0,1.8-4,5.94,5.94,0,0,0-1.4-3.8,35.69,35.69,0,0,0-5.4-4.9,32.35,32.35,0,0,1-7.2-7.1,12.64,12.64,0,0,1,2.5-16.5,17.45,17.45,0,0,1,11.4-3.8,20.24,20.24,0,0,1,4.3.4,26,26,0,0,1,4.2,1.5v9Z"/>
    <path class="cls-3" d="M508.3,923.55a20.68,20.68,0,0,1-15.7-6.4c-4.1-4.3-6.1-9.8-6.1-16.5,0-7.3,1.8-13.4,5.4-18.2s8.1-7.3,13.5-7.3h.1c5.3,0,9.3,1.8,12.2,5.5s4.3,8.9,4.3,15.6v4.2H496.4a22.13,22.13,0,0,0,3.7,10.5,12,12,0,0,0,10.3,5.4,22.55,22.55,0,0,0,5.8-.8,21.37,21.37,0,0,0,5.2-2.2l-3.7,8.9a38.77,38.77,0,0,1-4.9,1.1c-1.6.1-3,.2-4.5.2m6-29.4c0-4-.7-7.1-2.2-9.2a7.4,7.4,0,0,0-6.4-3.2h0a8,8,0,0,0-7.1,3.9,18.13,18.13,0,0,0-2.4,8.5Z"/>
    <path class="cls-3" d="M532.1,909v-36.6a62.82,62.82,0,0,0-.4-7.5,31,31,0,0,0-1.5-6l6.6-1.3,6.6-1.4a28.23,28.23,0,0,0-1.5,7c-.3,3.5-.5,7-.5,10.5v35.2a59.19,59.19,0,0,0,.5,8.4,19.31,19.31,0,0,0,1.5,5.2H530.2a15,15,0,0,0,1.5-5.1,59.07,59.07,0,0,0,.4-8.4"/>
    <path class="cls-3" d="M575.3,886.15a14.47,14.47,0,0,0-4-3.4,10.3,10.3,0,0,0-4.5-1.1,6.41,6.41,0,0,0-4.6,1.5,4.28,4.28,0,0,0-1.8,3.6,6.36,6.36,0,0,0,1.2,3.8,22.94,22.94,0,0,0,4.5,4.3,38.48,38.48,0,0,1,7.9,7.7,12.27,12.27,0,0,1,2.3,7.1,13,13,0,0,1-4.2,9.9,14.47,14.47,0,0,1-10.5,3.9,39,39,0,0,1-5.9-.4q-3-.6-6-1.5v-11a20.7,20.7,0,0,0,5.4,4.8,11,11,0,0,0,5.5,1.6,6.1,6.1,0,0,0,4.5-1.6,5.18,5.18,0,0,0,1.8-4,5.94,5.94,0,0,0-1.4-3.8,35.69,35.69,0,0,0-5.4-4.9,32.35,32.35,0,0,1-7.2-7.1,13.25,13.25,0,0,1-2-7,11.75,11.75,0,0,1,4.5-9.5,17.45,17.45,0,0,1,11.4-3.8,20.24,20.24,0,0,1,4.3.4,26,26,0,0,1,4.2,1.5Z"/>
    <path class="cls-3" d="M644.1,923.55c-9.4,0-17.2-3.1-23.5-9.4s-9.4-14.1-9.4-23.5c0-10.3,3.4-18.9,10.3-25.7s15.5-10.2,25.9-10.2a55.54,55.54,0,0,1,8.2.6,70.48,70.48,0,0,1,8.7,2.4v11a36.65,36.65,0,0,0-9.3-4.6,32.62,32.62,0,0,0-9.8-1.3,21.54,21.54,0,0,0-16.5,7.3c-4.4,4.9-6.6,11.1-6.6,18.5,0,7.7,2,14,6.1,19.1s9.2,7.6,15.3,7.6h0a44,44,0,0,0,13.9-2.3v-4.6a92.26,92.26,0,0,0-.5-10.5,65.36,65.36,0,0,0-1.8-8.8h14.8a63.94,63.94,0,0,0-1.8,8.7,75.25,75.25,0,0,0-.5,10.6v1.2a45.78,45.78,0,0,0,.3,5.3,29.79,29.79,0,0,0,.9,4.3,66.6,66.6,0,0,1-24.7,4.3Z"/>
    <path class="cls-3" d="M682.4,909v-19.2a49.22,49.22,0,0,0-.4-6.7c-.4-2.3-.9-4.6-1.5-6.8h11.2v8.2l7.2-8.1a18.26,18.26,0,0,1,6.1-1.1,9.78,9.78,0,0,1,4.1.9l-1.9,10-.4-.3a9.9,9.9,0,0,0-6.2-1.9,18.33,18.33,0,0,0-6.9,2l-2.1.9v22.2a59.19,59.19,0,0,0,.5,8.4,19.31,19.31,0,0,0,1.5,5.2H680.4a15,15,0,0,0,1.5-5.1,49.65,49.65,0,0,0,.5-8.6"/>
    <path class="cls-3" d="M717.6,917.05c-3.9-4.3-5.8-9.7-5.8-16.3,0-7.3,2.2-13.4,6.5-18.3a21.07,21.07,0,0,1,16.2-7.3,18.84,18.84,0,0,1,14.6,6.5c3.9,4.3,5.8,9.8,5.8,16.3,0,7.3-2.2,13.4-6.5,18.2a20.65,20.65,0,0,1-16.2,7.2,18,18,0,0,1-14.6-6.3m25.5-5.7a20.7,20.7,0,0,0,2.2-9.8c0-5.9-1.4-10.6-4.2-14.2a14.75,14.75,0,0,0-11.5-5.6,11.51,11.51,0,0,0-5.9,5.8,21.1,21.1,0,0,0-2.2,9.9c0,5.9,1.4,10.6,4.3,14.2a14.75,14.75,0,0,0,11.5,5.6,12.76,12.76,0,0,0,5.8-5.9"/>
    <path class="cls-3" d="M772.9,889.75V907c0,2.7.6,4.6,1.9,5.9s3.1,1.9,5.6,1.9a20,20,0,0,0,7.2-1.7l1.5-.6v-22.8a51.7,51.7,0,0,0-.4-6.8,55.23,55.23,0,0,0-1.5-6.8h13.2a15.57,15.57,0,0,0-1.5,5.2,78.58,78.58,0,0,0-.5,8.3v19.2a59.19,59.19,0,0,0,.5,8.4,19.31,19.31,0,0,0,1.5,5.2H789.6v-7.9l-7.3,7.9a25.1,25.1,0,0,1-6,1c-4.2,0-7.3-1.1-9.5-3.3s-3.2-5.4-3.2-9.6v-20.8a50.2,50.2,0,0,0-.4-6.7c-.4-2.3-.9-4.6-1.5-6.8h13.2a18.48,18.48,0,0,0-1.6,5.2,59.07,59.07,0,0,0-.4,8.4"/>
    <path class="cls-3" d="M812.3,889.75a49.22,49.22,0,0,0-.4-6.7c-.4-2.3-.9-4.6-1.5-6.8h11.2v8l6.3-7.5,1.2-.6a12.2,12.2,0,0,1,5.3-1c4.9,0,8.9,2.3,11.9,6.9s4.6,10.5,4.5,17.8c0,7.5-1.4,13.4-4.3,17.5a13.91,13.91,0,0,1-12.3,6.1,19.37,19.37,0,0,1-12.6-4.6v4.8a37.8,37.8,0,0,0,.5,6.7q.6,3.45,1.5,6.9H810.4a39.29,39.29,0,0,0,1.5-6.8,50.7,50.7,0,0,0,.4-6.8Zm17,26.5a10.48,10.48,0,0,0,8.8-4.1c2.1-2.8,3.1-6.7,3.1-11.8s-1-9-3-11.9a9.17,9.17,0,0,0-8.1-4.4,16.34,16.34,0,0,0-5.8,1.3,24.37,24.37,0,0,0-2.8,1.4v25.5a10.2,10.2,0,0,0,7.8,4"/>
    <g class="cls-4">
      <rect class="cls-5" x="267.2" y="947.35" width="585.8" height="7.1"/>
    </g>
    <path class="cls-6" d="M80.6,901.85c0-36.4,36.8-66.8,85.4-73.3a143.79,143.79,0,0,0-19.7-1.3c-58,0-105,33.4-105,74.6s47,74.7,105,74.7a161.58,161.58,0,0,0,19.7-1.3c-48.6-6.6-85.4-36.9-85.4-73.4"/>
    <path class="cls-7" d="M189.4,946.35c0,36.4-36.7,66.8-85.4,73.3a143.79,143.79,0,0,0,19.7,1.3c58.1,0,105.1-33.5,105.1-74.6s-47.1-74.7-105.1-74.7A143.79,143.79,0,0,0,104,873c48.7,6.5,85.4,36.9,85.4,73.4"/>
    <path class="cls-3" d="M274.3,1003.35v-28h13.8q4.8,0,6.6,1.5c1.2,1,1.8,3,1.8,5.8,0,3.5-1.4,5.5-4.1,6.1v.1c3.2.5,4.8,2.7,4.8,6.7,0,2.9-.6,4.9-1.9,6s-3.4,1.7-6.4,1.7l-14.6.1Zm5.3-16.3h6.5c2.1,0,3.5-.2,4-.7a4.49,4.49,0,0,0,.9-3.2c0-2.2-1.3-3.4-3.8-3.4h-7.6Zm0,11.8h7.7c1.8,0,3-.2,3.5-.8a4.88,4.88,0,0,0,.9-3.2c0-1.6-.3-2.8-.9-3.2s-2.1-.7-4.4-.7h-6.8Z"/>
    <path class="cls-3" d="M302.5,1003.35v-28h13.8c3.4,0,5.8.6,7.1,1.8s2,3.3,2,6.5c0,2.8-.3,4.8-1,5.8a6.14,6.14,0,0,1-4,2.2v.2c3.1.2,4.7,2,4.7,5.4v6.2h-5.3v-5.1c0-2.9-1.4-4.3-4.3-4.3h-7.6v9.4h-5.4v-.1Zm5.3-13.9h7.6c1.8,0,3-.3,3.6-1s.9-2,.9-3.9-.3-3.3-.8-3.9-1.6-.9-3.4-.9h-8Z"/>
    <polygon class="cls-3" points="335.9 979.85 335.9 987.05 349.1 987.05 349.1 990.95 335.9 990.95 335.9 998.85 349.9 998.85 349.9 1003.35 330.6 1003.35 330.6 975.35 349.8 975.35 349.8 979.85 335.9 979.85"/>
    <path class="cls-3" d="M372.4,998H360.3l-1.7,5.4H353l9.4-28h8l9.5,28h-5.5Zm-1.3-3.9-4.9-14.6-4.8,14.6Z"/>
    <polygon class="cls-3" points="394.8 980.05 394.8 1003.35 389.5 1003.35 389.5 980.05 381.4 980.05 381.4 975.35 403.2 975.35 403.2 980.05 394.8 980.05"/>
    <polygon class="cls-3" points="431.2 975.35 431.2 1003.35 425.9 1003.35 425.9 991.25 412.7 991.25 412.7 1003.35 407.4 1003.35 407.4 975.35 412.7 975.35 412.7 986.75 425.9 986.75 425.9 975.35 431.2 975.35"/>
    <rect class="cls-3" x="437.6" y="975.35" width="5.3" height="28"/>
    <path class="cls-3" d="M475.5,975.35v28h-9l-8-15.4c-.4-.8-1-2.1-1.9-4l-.9-2-.9-2h-.2l.1,1.8.1,1.8v19.7h-5.3v-28h9l7.3,14.2c.6,1.2,1.4,2.8,2.2,4.6l1.1,2.3,1.1,2.3h.2l-.1-1.8-.1-1.8v-19.7Z"/>
    <path class="cls-3" d="M493,988.45h12.3l.1,5.6c0,4.1-.8,6.7-2.3,7.8s-4.9,1.8-10.2,1.8c-4.8,0-8-.8-9.6-2.3s-2.4-4.7-2.4-9.5c0-6.1.3-10,.9-11.6a6.94,6.94,0,0,1,3.5-4c1.6-.7,4.3-1,8.1-1,5,0,8.2.5,9.7,1.6s2.2,3.4,2.2,7h-5.4c-.1-1.8-.5-3-1.2-3.4s-2.5-.7-5.3-.7c-3.1,0-5,.4-5.9,1.2s-1.2,2.6-1.2,5.4v6.4c0,2.8.4,4.5,1.2,5.3s2.7,1.1,5.7,1.1,4.7-.3,5.5-1,1.2-2.2,1.2-4.5v-1.2h-7Z"/>
    <polygon class="cls-3" points="528 975.35 528 998.55 541.2 998.55 541.2 1003.35 522.7 1003.35 522.7 975.35 528 975.35"/>
    <rect class="cls-3" x="545.4" y="975.35" width="5.3" height="28"/>
    <polygon class="cls-3" points="562.6 979.85 562.6 987.35 575.1 987.35 575.1 991.85 562.6 991.85 562.6 1003.35 557.3 1003.35 557.3 975.35 575.8 975.35 575.8 979.85 562.6 979.85"/>
    <polygon class="cls-3" points="585.4 979.85 585.4 987.05 598.5 987.05 598.5 990.95 585.4 990.95 585.4 998.85 599.3 998.85 599.3 1003.35 580 1003.35 580 975.35 599.2 975.35 599.2 979.85 585.4 979.85"/>
    <polygon class="cls-3" points="628.1 980.05 628.1 1003.35 622.8 1003.35 622.8 980.05 614.7 980.05 614.7 975.35 636.4 975.35 636.4 980.05 628.1 980.05"/>
    <path class="cls-3" d="M652.3,975.05c5.1,0,8.4.8,9.8,2.5s2.2,5.5,2.2,11.3c0,6.4-.7,10.5-2.2,12.1s-5,2.5-10.7,2.5c-5.1,0-8.4-.8-9.9-2.5s-2.2-5.3-2.2-10.9c0-6.7.7-10.9,2.2-12.6,1.5-1.5,5.1-2.4,10.8-2.4m-.4,4.6c-3.6,0-5.7.5-6.3,1.4s-.9,4.1-.9,9.5c0,4,.3,6.4,1,7.3s2.8,1.2,6.2,1.2,5.3-.5,5.9-1.4,1-3.7,1-8.4-.3-7.5-.9-8.3-2.6-1.3-6-1.3"/>
    <path class="cls-3" d="M681.5,1003.35v-28h13.8q4.8,0,6.6,1.5c1.2,1,1.8,3,1.8,5.8,0,3.5-1.4,5.5-4.1,6.1v.1c3.2.5,4.8,2.7,4.8,6.7q0,4.35-1.8,6c-1.2,1.2-3.4,1.7-6.5,1.7Zm5.4-16.3h6.5c2.1,0,3.5-.2,4-.7a4.49,4.49,0,0,0,.9-3.2c0-2.2-1.3-3.4-3.8-3.4h-7.6v7.3Zm0,11.8h7.7c1.8,0,3-.2,3.5-.8a4.88,4.88,0,0,0,.9-3.2c0-1.6-.3-2.8-.9-3.2s-2.1-.7-4.4-.7h-6.8Z"/>
    <path class="cls-3" d="M709.7,1003.35v-28h13.8c3.4,0,5.8.6,7.1,1.8s2,3.3,2,6.5c0,2.8-.3,4.8-1,5.8a6.14,6.14,0,0,1-4,2.2v.2c3.1.2,4.7,2,4.7,5.4v6.2H727v-5.1c0-2.9-1.4-4.3-4.3-4.3H715v9.4h-5.3Zm5.4-13.9h7.6c1.8,0,3-.3,3.6-1s.9-2,.9-3.9-.2-3.3-.8-3.9-1.6-.9-3.4-.9h-8v9.7Z"/>
    <path class="cls-3" d="M755.3,998H743.2l-1.8,5.4h-5.6l9.3-28h8l9.5,28h-5.5Zm-1.2-3.9-4.9-14.6-4.8,14.6Z"/>
    <path class="cls-3" d="M792.6,975.35v28h-9l-8-15.4c-.4-.8-1-2.1-1.9-4l-.9-2-.9-2h-.2l.1,1.8.1,1.8v19.7h-5.3v-28h9l7.3,14.2c.6,1.2,1.4,2.8,2.2,4.6l1.1,2.3,1.1,2.3h.2l-.1-1.8-.1-1.8v-19.7Z"/>
    <path class="cls-3" d="M799.1,1003.35v-28h13.8c3.9,0,6.6.9,8.2,2.6s2.3,4.7,2.3,9c0,7-.6,11.5-1.9,13.5s-4.1,3-8.5,3Zm5.3-4.5H812c2.5,0,4.2-.6,4.9-1.8s1.1-3.8,1.1-7.8-.3-6.8-1-7.9-2.2-1.7-4.7-1.7h-7.9Z"/>
    <path class="cls-3" d="M849.6,983.45h-5.2v-.6c-.1-1.6-.5-2.6-1-3s-1.9-.6-4.1-.6c-2.5,0-4.2.2-4.9.7a3.31,3.31,0,0,0-1.2,2.9c0,1.8.3,2.8.9,3.2s2.7.6,6.2.8q6.3.3,8.1,1.8t1.8,6c0,3.7-.7,6.1-2.2,7.2s-4.6,1.6-9.5,1.6c-4.4,0-7.3-.5-8.8-1.6s-2.2-3.2-2.2-6.5v-1h5.2v.6c0,2,.3,3.2,1,3.6s2.5.7,5.6.7c2.4,0,3.9-.2,4.5-.8a4.85,4.85,0,0,0,1-3.5,3.36,3.36,0,0,0-.8-2.7,5.29,5.29,0,0,0-3.2-.8l-2.9-.2c-4.4-.3-7.3-.9-8.5-1.8s-1.8-3.1-1.8-6.3.7-5.5,2.2-6.5,4.5-1.6,8.9-1.6c4.2,0,7.1.5,8.5,1.5s2.2,3,2.2,5.8Z"/>
  </g>
</svg>
