<svg id="Layer_1" data-name="Layer 1" xmlns="http://www.w3.org/2000/svg" viewBox="0 0 187.61 193.74">
  <defs>
    <style>
      .cls-1 {
        fill: #1b345e;
      }

      .cls-1, .cls-2 {
        fill-rule: evenodd;
      }

      .cls-2 {
        fill: #ee3938;
      }
    </style>
  </defs>
  <title>Logo</title>
  <path class="cls-1" d="M39.39,74.64c0-36.44,36.76-66.8,85.37-73.3A145.71,145.71,0,0,0,105.07,0c-58,0-105,33.41-105,74.64s47,74.67,105,74.67A154.9,154.9,0,0,0,124.79,148c-48.61-6.57-85.37-36.92-85.37-73.35" transform="translate(-0.07)"/>
  <path class="cls-2" d="M148.24,119.1c0,36.42-36.73,66.76-85.37,73.33a147.48,147.48,0,0,0,19.7,1.31c58.05,0,105.11-33.45,105.11-74.64S140.62,44.4,82.57,44.4a147.48,147.48,0,0,0-19.7,1.31c48.64,6.55,85.37,36.9,85.37,73.39" transform="translate(-0.07)"/>
</svg>
