<svg xmlns="http://www.w3.org/2000/svg" xmlns:xlink="http://www.w3.org/1999/xlink" viewBox="0 0 684.16 437.08"><style><![CDATA[.K,.C,.d{mix-blend-mode:overlay}.i{opacity:.25}.j{fill:#98c4f9}.k{stroke-miterlimit:10}.l{fill:#6c5be8}.m{fill:#ff6643}.n{fill:#12006d}.o{fill:#4d5aff}.p{stroke:#092533}.q{stroke-width:.92}.r{fill:#ff7900}]]></style><defs><linearGradient id="A" x1="477.17" y1="268.61" x2="485.04" y2="394.46" gradientUnits="userSpaceOnUse"><stop offset="0" stop-color="#ffb000"/><stop offset="1" stop-color="#ff7900"/></linearGradient><linearGradient id="B" x1="179.19" y1="234.55" x2="180.09" y2="226.03" gradientUnits="userSpaceOnUse"><stop offset="0" stop-color="#ffc5ae"/><stop offset="1" stop-color="#ea8b6a"/></linearGradient><linearGradient id="C" x1="190.55" y1="231.7" x2="182.68" y2="232.28" xlink:href="#B"/><linearGradient id="D" x1="180.25" y1="263.81" x2="187.46" y2="237.92" xlink:href="#B"/><linearGradient id="E" x1="467.93" y1="168.88" x2="468.26" y2="161.38" xlink:href="#B"/><linearGradient id="F" x1="469.38" y1="172.07" x2="469.14" y2="166.74" xlink:href="#B"/><linearGradient id="G" x1="452.95" y1="212.27" x2="458.84" y2="173.92" xlink:href="#B"/><linearGradient id="H" x1="485.95" y1="166.02" x2="490.54" y2="190.22" xlink:href="#B"/><linearGradient id="I" x1="355.82" y1="130.32" x2="358.68" y2="136.42" xlink:href="#B"/><linearGradient id="J" x1="351.47" y1="130.17" x2="358.59" y2="133.16" xlink:href="#B"/><linearGradient id="K" x1="355.56" y1="127.88" x2="360.15" y2="137.63" xlink:href="#B"/><linearGradient id="L" x1="420.89" y1="137.53" x2="407.86" y2="153.01" xlink:href="#B"/><linearGradient id="M" x1="384.46" y1="161.13" x2="383.06" y2="144.91" xlink:href="#B"/><linearGradient id="N" x1="382.07" y1="161.26" x2="382.73" y2="157.08" xlink:href="#B"/><linearGradient id="O" x1="623.13" y1="71.59" x2="402.24" y2="122.71" gradientUnits="userSpaceOnUse"><stop offset="0" stop-color="#fff" stop-opacity="0"/><stop offset="1" stop-color="#98c4f9"/></linearGradient><linearGradient id="P" x1="184.815" y1="77.467" x2="351.623" y2="231.06" xlink:href="#O"/><linearGradient id="Q" x1="646.11" y1="295.29" x2="329.03" y2="368.67" xlink:href="#O"/><linearGradient id="R" x1="105.62" y1="312.95" x2="422.69" y2="386.34" xlink:href="#O"/><path id="S" d="M302.7 162.6a6.39 6.39 0 1 1-12.78 0 6.39 6.39 0 0 1 10.908-4.518 6.39 6.39 0 0 1 1.872 4.518z"/></defs><path d="M518.68 304.54l-9.2-27-15.35 5.23-31.36-92-35 11.92.1.3-27.32 117.93 9.36 20.66 58.38-19.9 10.92 32.06 35-11.9-10.9-32.06zm-63.57-8.44L432 304l10.36-51.48 1-4.27 15.87 46.46z" class="j"/><path class="C i" d="M503.32 309.77l10.93 32.06-22.27-9.53-35.6-128.24-13.05 44.17-6.05 25.02-20.65-21.57L427.9 203l-.1-.3 34.96-11.92 31.36 92.03 15.35-5.24 9.2 26.98-15.36 5.23zm-48.34 16.47l-12 4.1 1.76-24.76v-4.52l2.48-2.26 1.57-1.45 6.36-1.25s-.44 18.2-.17 30.14z"/><path d="M488.9 296.1a10 10 0 0 0-8.25-3.33c-5.24.44-8.17 2.4-8.34 7.86s1.12 33-.08 43.92 6.26 12 6.68 3.93-2.74-33.43-.4-37.58.92 4.6 3.38 7.43 5.1-2.18 2.46-9 4.54-13.23 4.54-13.23z" transform="translate(-33.78)" fill="url(#A)"/><path d="M134.93 255.3a6.22 6.22 0 0 1-1.85-.17c-.33-.14-1.36-.57-10.28-16.5l1.6-.9c3.33 5.94 8.38 14.6 9.45 15.7a96.7 96.7 0 0 0 11-.69l.18 1.83c-2.94.3-7.5.7-10.1.7z" class="m"/><path d="M167.27 263v.53s-.48 10.1-8.05 9.68h-.06c-4.68-.3-10.47-2.48-14.35-4.1-2.45-1-4.14-1.82-4.33-1.8-.5.08 5.74 26 5.65 27.45a2.12 2.12 0 0 1-.12.63c-.44 1.4-2 3.08-2.9 3.22-.1 0-.3-.17-.57-.52-2.8-3.5-13.95-23.82-14.26-30.45-.32-7.3 3.36-11.68 8.36-12.52 3.7-.6 14.47.87 19.87 1.7l3.16.5z" fill="#092533"/><path class="C i" d="M146.13 294.78a2.12 2.12 0 0 1-.12.63c-.44 1.4-2 3.08-2.9 3.22-.1 0-.3-.17-.57-.52 4-5.6-6.4-32.83-4.14-32.9 1.1 0 3.57 1.85 6.42 3.92-2.45-1-4.14-1.82-4.33-1.8-.5.08 5.74 25.97 5.65 27.45zM167.27 263v.53s-.48 10.1-8.05 9.68c1.5-1.2 1.76-3.3 1.65-5.83-.13-2.94-2.84-8-4.37-10.58l3.16.5z"/><path d="M151.22 229.84a2.11 2.11 0 0 0-.42 1c-.08-.16-.4-.7-.8-1.34-.7-1.06-1.64-2.4-2.22-2.55-.92-.25-3.38 2.86-6.7 3.1a5 5 0 0 1-.67 0c-3.66-.17-7.54-5.36-4.42-11.47a4 4 0 0 0 3.32 2.29 1.92 1.92 0 0 1-1.41-2c4 .7 6.06-2.3 9.5-1.2s3.22 3.17 3.22 3.17 2.62-1 3.44 2.24c.58 2.6-1.83 5.2-2.83 6.76z" fill="#092533"/><g transform="translate(-33.78)"><path d="M184.5 230.77a6.91 6.91 0 0 1-1.28 2.46 3.61 3.61 0 0 1-2.79 1.52c-2.32-.06-4.63-3.18-5.66-4.77 3.32-.24 5.78-3.35 6.7-3.1.58.16 1.53 1.5 2.22 2.55l.8 1.34z" fill="url(#B)"/><path d="M187.86 231.1s-1.74 4-2.4 3.12a4.32 4.32 0 0 0-2.24-1 6.91 6.91 0 0 0 1.28-2.46 2.11 2.11 0 0 1 .42-1 7.89 7.89 0 0 0 2.94 1.34z" fill="url(#C)"/></g><path d="M166.37 264.8c-2.78-.4-10.32-8.6-10.32-12.13a10.29 10.29 0 0 0-.15-1.65c-.58-3.67-2.7-9-3.58-12.85-1-4.42.45-6.07.45-6.07 3.43-5.9 11.2 5.8 15.62 15.16a24.22 24.22 0 0 1 2.56 8.05c.33 6.7-1.8 9.9-4.58 9.5z" class="o"/><path class="C i" d="M166.37 264.8c-2.78-.4-10.32-8.6-10.32-12.13a10.29 10.29 0 0 0-.15-1.65v-1.57l2.73-14.3s3.77 4.5 4.37 12.5 9.43 9.78 5.4-.38a24.22 24.22 0 0 1 2.56 8.05c.3 6.7-1.8 9.9-4.6 9.48z"/><path d="M160.53 247.1a1.09 1.09 0 0 1-.37.16 22 22 0 0 1-6.63 0 2.64 2.64 0 0 1-.54-.15c-1-.5 0-1.7-.33-3.83s-1.14-8.36 2-10.27 5.73 5.57 5.84 9.34.72 4.14.03 4.75z" class="o"/><path d="M193.94 247.26s-.16 9.2-1.9 13.55c-.55 1.35-1.25 2.23-2.16 2.2-3.8-.08-12.37-9.13-13.15-9.47s-4.67.25-4.55-.32 1.64-1.85 3.28-2.46 1.35-.25 11.88 4.6c-.14-.93-.08-5 0-7.22v-.9a22 22 0 0 0 6.61.02z" transform="translate(-33.78)" fill="url(#D)"/><path d="M149.27 301c.27 1.64-10.75 12.86-10.18 9.9s4-12.3 4-12.3c.93-.14 2.47-1.82 2.9-3.22.9 1.6 3.05 4.24 3.27 5.6z" class="o"/><path class="K i k" d="M159.22 266.54s-17.7-3.32-21.2-1.72 6.4 29.58 6.4 29.58" fill="none" stroke="#fff" stroke-width=".46"/><path class="C i" d="M158.22 260.8c.33-1.85.6-7.22-.34-9.35-.63-1.43-2.95-2.66-4.4-3.3v-.9a22 22 0 0 0 6.63 0s-.1 9.22-1.9 13.56z"/><path d="M444.22 198.53a51.65 51.65 0 0 1-1.89 5.53c-1.32 3.4-3.32 8.05-6.27 14.52-.07 3.3-1.12 24.26-1.4 29.1 0 .58-.06.93-.06 1a2.92 2.92 0 0 1-1.63.82c-.78.2-1.62.23-2-.25-.74-1-5.74-20.8-6-25.48s-.5-3.6 5.24-22.2c-1.4.65-10.42.4-10.42.4l1.66 22.94a.57.57 0 0 1 0 .16 4.23 4.23 0 0 1-.8 1.35c-.16.16-.32.26-.48.2a2.55 2.55 0 0 1-.6-.54 60.59 60.59 0 0 1-9.06-13.8c-3-6.8-3.77-11.55-.9-16.3s17.4-5.12 17.4-5.12c.92.26 3 .5 5.13 1a20.93 20.93 0 0 1 1.81.5c3.18 1.06 9.24 2.4 10.55 1.65a8 8 0 0 1-.26 4.51z" class="l"/><path d="M456.3 182.7c-.58.32-7.25.07-11.76-1.65 0 .8.12 2 .24 3.47.18 2.24.38 4.9.33 6.84 0 1.4-.2 2.4-.57 2.64-.7.4-2.73.2-5-.22-1.44-.27-3-.64-4.27-1a19.11 19.11 0 0 1-1.32-.41c-2.56-.85-5.75-1.18-6.94-1.5-.3-.08-.47-.16-.48-.25 0-.45 1.1-1.47 1.65-2.54.06-.13.15-.33.25-.58a46.68 46.68 0 0 0 1.45-4.58c.2-.8.27-1.32.1-1.23-.54.3-3.7 6.18-4.06 6.18a7 7 0 0 1-1.52-.87c-1.26-.86-2.86-2.12-2.9-2.73a.22.22 0 0 1 .08-.2c.74-.7 6.4-10.2 8.44-12.23a8.28 8.28 0 0 1 3-1.87 8.39 8.39 0 0 1 1.81-.48 12.93 12.93 0 0 1 3.65.43c4.06 1 7.8 3.58 9.9 4.85 2.75 1.63 4.63 1.18 5.33 1.6s3.15 6 2.58 6.35z" class="m"/><path d="M445.1 191.36c-3.78 0-12.18-.3-16.66-3.88a46.68 46.68 0 0 0 1.45-4.58c0 0 8.87 2.7 14.88 1.62.18 2.24.38 4.9.33 6.84z" fill="#ff9280"/><path class="C i" d="M438.52 169.9c-.15 1.57-.7 3.26-2.42 3.13a3.23 3.23 0 0 1-3-3.08 8.39 8.39 0 0 1 1.81-.48 12.93 12.93 0 0 1 3.61.43z"/><path d="M437.5 166.47a6.57 6.57 0 0 0-1.23-2.54c-.66 1.08-3.23 1.64-5.22 1.78a7.71 7.71 0 0 1-2.15-.06 6.09 6.09 0 0 1 5.37-8c2.4-.16 4.6 1.64 3.93 4.38 2.17 2.2-.7 4.44-.7 4.44z" fill="#350909"/><g transform="translate(-33.78)"><path d="M471.27 166.47a8.82 8.82 0 0 1-.64 1.58 2.22 2.22 0 0 1-3 1.21l-.16-.08a4.67 4.67 0 0 1-2.37-2.69 6 6 0 0 1-.24-.78c2-.14 4.56-.7 5.22-1.78l.1.12a7.11 7.11 0 0 1 1.08 2.42z" fill="url(#E)"/><path d="M471.07 170.65c-.25 1.52-2.75 1.44-3 .45l-.43-1.36-.2-.55.16.08a2.22 2.22 0 0 0 3-1.21c-.17.34.28.77.43 1.57a2.93 2.93 0 0 1 .03 1.02z" fill="url(#F)"/></g><path d="M424.3 230.7c-.24 1.88-10 9.26-9.83 7.95s5.13-12.6 5.13-12.6a2.55 2.55 0 0 0 .6.54c.5.14 1.12-1.1 1.28-1.56 1.3 1.64 3.04 3.95 2.82 5.66zm6.72 33.88c-2.3-4.92 0-15.36 0-15.36.74 1 3.52-.16 3.6-.57 0-.05 0-.4.06-1l.8 9.23c.44 4.23-2.18 12.6-4.48 7.7z" class="n"/><path class="C i" d="M430.28 201.54c-1.4.65-10.42.4-10.42.4l1.66 22.94a.57.57 0 0 1 0 .16 4.23 4.23 0 0 1-.8 1.35c-1.66-7.8-5-22.73-2.33-25.3 3.38-3.27 12.56-4.15 12.7-3.43a18.52 18.52 0 0 1-.8 3.87z"/><path d="M457.56 190.78a1.1 1.1 0 0 0-.16.66c.2.76-.85 10.32-.46 11.3a18.49 18.49 0 0 1 .38 6.06c-.22 2-4.32 3.17-4.32 1.48s.5-5.68.66-7.2-1.37-12.6-1-14.12a17.58 17.58 0 0 1 2-3.74l.63-1c.06 1 4.1 3.6 4.42 3.6a18.53 18.53 0 0 0-2.15 2.97z" transform="translate(-33.78)" fill="url(#G)"/><path class="C i" d="M444.22 198.53a8.47 8.47 0 0 1-5.26-2.35 25.88 25.88 0 0 0-6.84-4.32l1.8.5c3.18 1.06 9.24 2.4 10.55 1.65a8 8 0 0 1-.26 4.52zm-1.85 5.53c-1.32 3.4-3.32 8.05-6.27 14.52-.07 3.3-1.12 24.26-1.4 29.1 0 .58-.06.93-.06 1a2.92 2.92 0 0 1-1.63.82c.2-7.07-.06-22.46 1.13-27 1.43-5.5 7.84-17.68 8.24-18.43z"/><path class="C i" d="M435.3 192.77l-1.32-.4c-2.56-.85-5.75-1.18-6.94-1.5-.3-.08-.47-.16-.48-.25 0-.45 1.1-1.47 1.65-2.54s2.33-6.68 1.8-6.4-3.7 6.18-4.06 6.18a7 7 0 0 1-1.52-.87l.27-.4c2-2.9 5.18-6.5 5.73-9.6.44-2.3 1.1-1 1 2-.12 2.6-.26 10.72 3.87 13.8zm9.24 1.23c-.7.4-2.73.2-5-.22 4-4 1.8-14.85 2.44-14.3a16.42 16.42 0 0 0 2.54 1.55c.1 2.96 1.3 12.18.02 12.96z"/><path class="C i" d="M425.94 187.85a18.53 18.53 0 0 0-2.16 2.93c0-.25 0-.47-.05-.67-.12-1.18-1.95-3.72-2.84-4.9l.63-1c.06 1 4.1 3.64 4.42 3.64zm10.43-23.8c-1 2.18-3.87 2.43-5.1 2.44a6 6 0 0 1-.24-.78c2-.14 4.56-.7 5.22-1.78zm.9 5.57a1.69 1.69 0 0 1-.69.31 4.26 4.26 0 0 1-2.75-.19l-.2-.55.16.08a2.22 2.22 0 0 0 3-1.21c-.13.33.32.76.47 1.56z"/><path d="M450.36 0v204.06" fill="none" class="k p q"/><path d="M492.74 179.77v.16c-.55 2.47-2.52 2.73-2.9 2.57s-1.36-1.3-2.22-5.27c0-.08 0-.16-.05-.24s-1.86-4.77-2.73-7.06c-2.16-1.27-2.57-.76-2.87-2.23a4.33 4.33 0 0 1 1.2-3.66c.55-.27 3 2 3.34 2.87s6.7 10.24 6.22 12.86z" transform="translate(-33.78)" fill="url(#H)"/><path class="C i" d="M458.93 179.93c-.55 2.47-2.52 2.73-2.9 2.57s-1.36-1.3-2.22-5.27a8.5 8.5 0 0 0 2.31 3.13 2 2 0 0 0 2.8-.43z"/><path d="M386.54 309l-5.27-26.9q-5.85-29.85-22.55-43.56-16.7-13.7-41.28-8.9-24.57 4.8-34.84 23.7-10.27 18.88-4.38 48.84l5.3 27q5.82 29.74 22.53 43.45a43.49 43.49 0 0 0 15.53 8.27q11.6 3.4 25.85.6a62.13 62.13 0 0 0 13.47-4.18 43.93 43.93 0 0 0 21.27-19.5Q392.4 339 386.54 309zm-32.9 36.12q-2.7 8.26-11.43 10-9 1.77-14.7-5.08-3.87-4.66-6.6-13.86-1.26-4.26-2.3-9.5l-7.4-37.83q-2.6-14.9 0-23 2.6-8.1 11.4-9.85a14.21 14.21 0 0 1 11.61 2.31 16.67 16.67 0 0 1 3.11 3q5.72 7.05 8.83 23l7.15 36.56q3.05 15.97.34 24.25z" class="m"/><path class="C i" d="M356.3 350.17c1.5 2.33 3.53 18.2 4.56 27.16a62.13 62.13 0 0 1-13.47 4.18q-14.26 2.78-25.85-.6a20.36 20.36 0 0 0 .85-2.22c4.83-14.74-1.2-41.32-1.48-42.52q2.74 9.2 6.6 13.86 5.65 6.86 14.7 5.08 8.73-1.7 11.43-10 2.7-8.3-.32-24.24l-7.1-36.54q-3.12-15.93-8.83-23a16.67 16.67 0 0 0-3.11-3c11.63 2.28 21.07 38.28 25 55.64s4.23 25.4-2.98 36.2z"/><path d="M323.48 343.23s.75 2 4.7 3.06 7.68-5 10.3-3.06 6.82 10.13 10.5 8.9 4.78 18.42 3 20.6-3-15.48-7.62-15-1.12 13.85-3.75 16.26-1.53-5.9-4.37-7.43 3.06 66.86-1.3 67.95-7.2-3.06-5.46-17.7-.44-65.1-3.06-67.73-2.42-3.08-2.95-5.85z" class="l"/><path d="M322.4 0v238.57" fill="none" class="k p q"/><path d="M379.1 146.32s-3.48-9.55-3.2-10.3 4.1-2.13 4.4-1.72 2.7 7.83 2.3 8.36-3.5 3.65-3.5 3.65z" class="n"/><g transform="translate(-33.78)"><path d="M355 133.8a6.26 6.26 0 0 1 3 3.2c.94 2.3.57-6 .57-6l-1-.94z" fill="url(#I)"/><path d="M353.86 133.8a29.67 29.67 0 0 0 3.12 2.11c.45.12 1.32-5.08.92-5.9s-1.84-1.64-2.77-1.1-1.7 4.58-1.27 4.9z" fill="url(#J)"/><path d="M361 134.4s-2.12-4.9-3.05-5.77-2.65.24-2.77.7 2.06.78 2.77 1.52-1.2 6.2.63 8.1 2.42-4.55 2.42-4.55z" fill="url(#K)"/><path d="M410.27 147.42a11.56 11.56 0 0 0 2.3-1.56c.4-.53-.33-2.54.86-4.38s3.73-1.3 4.34.9-1 5-1.72 5.86-5.78 4.47-5.78 4.47" fill="url(#L)"/></g><path d="M377.84 151.7a4.45 4.45 0 0 1-1 1.65c-2.4 2.8-9 8.26-20.85 14.5a29.27 29.27 0 0 0-.56 2.91 48.3 48.3 0 0 0-.29 9.08c0 .73.1 1.44.14 2.12.2 3 .5 5.44.43 6.86a1.91 1.91 0 0 1-.36 1.24 7.08 7.08 0 0 1-.84.63c-5.93 3.8-16.73-1.88-18.47-3.6a.79.79 0 0 1-.24-.32c-.3-1.15.87-2.37 1.53-4.34a13.69 13.69 0 0 0 .33-2.11c.3-3 .58-8.45.68-12.53a38.89 38.89 0 0 0-.08-5.2c-.33-1.34-10.27-16.36-13.26-21.68a6.5 6.5 0 0 1-.84-1.81c.1-1.2 2.4-5.46 2.9-5.4a4.51 4.51 0 0 1 .84 1c2.3 3.2 8.5 12.87 9.65 14.1l8.82 9.32 1.06 1.1a28.52 28.52 0 0 0 3.79-.33c11.18-1.73 22.16-9.55 25-11.73.47-.35.72-.56.72-.56s1.15 3.52.9 5.06z" class="r"/><path d="M349.95 164.2c-3.8.62-3.82-4.34-3.62-6l1.06 1.1a28.52 28.52 0 0 0 3.79-.33c.48 1.9.1 5.02-1.23 5.22z" fill="#c64200"/><path d="M353.8 153.57a3.69 3.69 0 0 1-2.94.28 11.08 11.08 0 0 1-3.34-1.63 6.08 6.08 0 0 0-1.11 3.48c-2.7-2.34-3.36-4.68-1.06-5.54-.94-4.1 1.06-4.95 4.42-5.15s4.14 3.23 6.15 3.15c.12 1.84-.4 4.4-2.12 5.4z" class="n"/><g transform="translate(-33.78)"><path d="M387.6 153.57c0 .33-.1.7-.17 1.12-.45 2.4-1.63 5.74-3.4 5.56l-.3-.06a5.52 5.52 0 0 1-3.06-3.19 8.78 8.78 0 0 1-.47-1.3 7.42 7.42 0 0 1 .3-1.83 5 5 0 0 1 .81-1.65 11.08 11.08 0 0 0 3.34 1.63 3.69 3.69 0 0 0 2.94-.28z" fill="url(#M)"/><path d="M384 161.66c0 .87-.14 1.55-.72 1.6-1.17.08-2.73-1.45-2.64-3.1V157a5.52 5.52 0 0 0 3.06 3.19l.3.06v1.4z" fill="url(#N)"/></g><path d="M377.84 151.7a4.45 4.45 0 0 1-1 1.65 45.53 45.53 0 0 0-.58-6.15l.72-.56s1.1 3.52.86 5.06zm-49.98-16.98c-1.74 1.5-2.6 4.75-2.9 6.2a6.5 6.5 0 0 1-.84-1.81c.1-1.2 2.4-5.46 2.9-5.4a4.51 4.51 0 0 1 .84 1.02z" fill="#c64200"/><path d="M355.22 182c-3.9.56-11.26 1.07-17.62-1.63.3-3 .58-8.45.68-12.53 3.15 1.33 9.95 3.7 17.1 3a52.21 52.21 0 0 0-.15 11.16z" fill="#ffb000"/><path class="C i" d="M354.47 190.7c-6.4 4.1-18.43-2.8-18.7-3.9s.87-2.37 1.53-4.34a13.69 13.69 0 0 0 .33-2.11c.3-3 .58-8.45.68-12.53a38.89 38.89 0 0 0-.08-5.2 112.87 112.87 0 0 1 3.41 13.94c1.15 6.88.9 10.16 4.26 12.37 1.97 1.3 5.56 1.97 8.58 1.78z"/><path d="M369.08 209.62c0 2.84-10.27 18.6-12.4 21.82l-.38.58a14.65 14.65 0 0 1-2.42-.52c-.76-.26-1.4-.62-1.4-1.12a2.61 2.61 0 0 1 .06-.46c.36-2.2 2.62-10.13 5.5-20.62-1.52-1.86-12.23-9-12.23-9l-17 38.65-.12.22c-.77 1-3.94 1.1-4.16-1-.9-8.7 6.6-34.9 10.08-46.5l1.42-4.64c1.74 1.7 12.54 7.4 18.47 3.6a7.08 7.08 0 0 0 .84-.63 1.91 1.91 0 0 0 .36-1.24c.1.12.23.25.34.4 4.1 4.85 13.04 17.74 13.04 20.47z" class="j"/><path d="M329.83 243.82c-.4 2-11.22 8.1-10.24 4.44.8-3 3.8-8.17 4.9-10 .22 2.07 3.4 2 4.16 1l.12-.22c.56 1.55 1.32 3.45 1.05 4.78zm30.4-1.82c-.82.4-11.47-3.7-11.23-5.08s3.53-7 3.53-7a2.61 2.61 0 0 0-.06.46c0 1.2 3.83 1.64 3.83 1.64l.38-.58c.48 4.25 4.33 10.2 3.55 10.56z" class="n"/><path class="d i k" d="M344.42 199.16s-11.8 23.17-16.2 39.08m19-39.08s13.1 8.6 13.6 10-6.8 20.76-6.8 20.76" fill="none" stroke-width=".46" stroke="#000"/><path class="C i" d="M356 189.22c-1.44 5.76-9.8 4.2-14.08 3.1a25.47 25.47 0 0 0-7.35-.56l1.42-4.64c1.74 1.7 12.54 7.4 18.47 3.6a7.08 7.08 0 0 0 .84-.63 1.91 1.91 0 0 0 .36-1.24c.1.17.23.25.34.4zm-2.12 42.28c-.76-.26-1.4-.62-1.4-1.12a2.61 2.61 0 0 1 .06-.46c.36-2.2 2.62-10.13 5.5-20.62-1.52-1.86-12.23-9-12.23-9s.87-3 1.86-3.17 12.34 9.56 13.6 11.58c1.1 1.82-6.62 16.3-7.38 22.8zm-.08-77.93c0 .33-.1.7-.17 1.12-2.86 1.46-5.67-1.82-6-1.78s-.58.52-.9 1a5 5 0 0 1 .81-1.65 11.08 11.08 0 0 0 3.34 1.63 3.69 3.69 0 0 0 2.93-.32zm-3.58 8.1c-1.9-.46-2.93-2.36-3.33-3.24V157a5.52 5.52 0 0 0 3.06 3.19l.3.06-.02 1.4zm5.18 9.1a48.3 48.3 0 0 0-.29 9.08c-.74-3.14-1.4-6.5-.63-8.46a21.63 21.63 0 0 1 1.48-3.53 29.27 29.27 0 0 0-.56 2.91z"/><path d="M263.4 202.12L228.03 196l-.05.32-78.12 87.95-1.6 22 11.2 1.93 47.86 8.23-5.57 32.4 35.4 6.16 5.57-32.43 15.5 2.62 4.7-27.3-15.54-2.67zm-44.18 45.07l-7.22 42-27.5-4.72 12.87-15.32 19.93-23.78 2.82-3.2z" class="l"/><path class="C i" d="M204.88 316l-26-4.47c3.07-10.13 6.9-24.08 5.7-27.12l18.87 3.24a18.9 18.9 0 0 1 2.43 8.59c.42 6.76-.6 13.62-1 19.76z"/><path d="M185.66 284.62s2.84-3.94 9.23-2.7 6.88 9.1 4.1 17.8-3.44 39-2.13 48.83.5 14.42-2.62 14.75-4.6-11.8-2.78-20.32 1.63-16.4-1.32-15.08-.5 4.6-2 7.54-5.9 1.15-5.74-4.43 9.12-41.78 3.27-46.37z" class="j"/><path class="C i" d="M247.4 295.23l15.54 2.67-4.7 27.3-15.54-2.66-5.57 32.43-12.35-2.12 21.7-135.43 16.9-15.3-16 93.1z"/><path d="M236.84 0v211.1" fill="none" class="k p q"/><use xlink:href="#S" class="r"/><path d="M525.07 243.83a6.39 6.39 0 0 1-12.78-.013 6.39 6.39 0 0 1 10.912-4.512 6.39 6.39 0 0 1 1.868 4.525z" class="l"/><path d="M190.92 197.16a6.39 6.39 0 0 1-10.908 4.518 6.39 6.39 0 0 1 4.518-10.908 6.4 6.4 0 0 1 6.39 6.39z" class="j"/><use xlink:href="#S" x="-6.38" y="230" class="m"/><circle cx="482.15" cy="181.85" r="2.46" class="r"/><circle cx="293.86" cy="220.23" r="2.46" class="j"/><path d="M222.58 186.85a2.47 2.47 0 0 1-4.217 1.757 2.47 2.47 0 0 1 1.757-4.217 2.46 2.46 0 0 1 2.46 2.46z" class="l"/><g transform="translate(-33.78)"><path d="M587.37 51.76s-9.85-9.83-28.52-5.9-31.8 33.43-45.4 40-40.4 25.9-42.4 42.45c26.2-21.8 36-12.3 53.06-14.92s18.35-22.62 42.93-22 50.8 31.2 75.38 14.12 53.42-37.4 30.15-54.1-70.46 8.87-85.2.35z" fill="url(#O)"/><path d="M188.52 118.22S186 131.9 199.74 145.1s45.53 7.4 58.6 14.93 44.18 18.75 59 11.08c-32.77-9.33-30.47-22.8-42.24-35.4s-29-2.4-42.35-23.08-2.88-59.54-30.84-70.2-61-23-61.7 5.6 47 53.2 48.3 70.2z" fill="url(#P)"/><path d="M664.4 196.64s-40 43.87-48.5 95.3-49.5 48.16-63.43 72.4-47.1 26.22-62.3 36-49.84-7.2-55.8 0 31.07 18.36 79.1 19 57.2-36.7 99.8-42 85.22-23.6 100.3-93.08-10.5-106.55-49.16-87.63z" fill="url(#Q)"/><path d="M87.33 214.3s40 43.87 48.5 95.3 49.5 48.15 63.43 72.4 47.1 26.2 62.3 36.05 49.84-7.2 55.8 0-31.07 18.35-79.1 19-57.2-36.7-99.8-41.95-85.2-23.6-100.3-93.08 10.5-106.65 49.16-87.74z" fill="url(#R)"/></g></svg>