<?xml version="1.0" encoding="utf-8"?>
<!-- Generator: Adobe Illustrator 23.0.3, SVG Export Plug-In . SVG Version: 6.00 Build 0)  -->
<svg version="1.1" id="Layer_1" xmlns="http://www.w3.org/2000/svg" xmlns:xlink="http://www.w3.org/1999/xlink" x="0px" y="0px"
	 viewBox="0 0 1920 900" style="enable-background:new 0 0 1920 900;" xml:space="preserve">
<style type="text/css">
	.st0{clip-path:url(#SVGID_2_);fill:url(#SVGID_3_);}
	.st1{clip-path:url(#SVGID_5_);fill:#AC2D72;}
	.st2{clip-path:url(#SVGID_7_);fill:#99244F;}
</style>
<g>
	<g>
		<defs>
			<rect id="SVGID_1_" x="-3.1" y="-2.9" width="1921.3" height="293.3"/>
		</defs>
		<clipPath id="SVGID_2_">
			<use xlink:href="#SVGID_1_"  style="overflow:visible;"/>
		</clipPath>
		
			<linearGradient id="SVGID_3_" gradientUnits="userSpaceOnUse" x1="-97.2" y1="780.4467" x2="2386.0757" y2="780.4467" gradientTransform="matrix(1 0 0 -1 0 902)">
			<stop  offset="0" style="stop-color:#99244F"/>
			<stop  offset="1" style="stop-color:#87235F"/>
		</linearGradient>
		<path class="st0" d="M-13.7,257.6c0,0,845.5,66.6,1935.4,3.7s-80.5-306.5-80.5-306.5L-97.2-33.3"/>
	</g>
	<g>
		<defs>
			<rect id="SVGID_4_" x="-3.1" y="-2.9" width="1921.3" height="293.3"/>
		</defs>
		<clipPath id="SVGID_5_">
			<use xlink:href="#SVGID_4_"  style="overflow:visible;"/>
		</clipPath>
		<path class="st1" d="M-53.2,212.5c0,0,1564.7-14.1,2025.3-136.7s-39.8-67.9-39.8-67.9L-95.6,32"/>
	</g>
	<g>
		<defs>
			<rect id="SVGID_6_" x="-3.1" y="-2.9" width="1921.3" height="293.3"/>
		</defs>
		<clipPath id="SVGID_7_">
			<use xlink:href="#SVGID_6_"  style="overflow:visible;"/>
		</clipPath>
		<path class="st2" d="M-7.5,120.9c0,0,1492.8-12.2,1933.9-97.2S1889.3-23,1889.3-23L-45.3-3.2"/>
	</g>
</g>
</svg>
